<svg width="48" height="48" viewBox="0 0 48 48" fill="none" xmlns="http://www.w3.org/2000/svg">
<path d="M30.3894 11.544L30.4768 11.6153L30.581 11.5731C30.6941 11.5268 30.7991 11.4865 30.8917 11.4521C31.0655 11.3971 31.2313 11.3194 31.3847 11.2209C31.9019 10.8568 32.337 10.3882 32.6617 9.84538C32.9701 9.33001 33.168 8.75615 33.2428 8.16022C33.3177 7.57351 33.2704 6.97764 33.1039 6.41008C32.9293 5.81589 32.6314 5.26521 32.2295 4.79402C31.3365 3.74118 31.316 3.17348 32.1209 2.03287C32.2451 1.87142 32.3311 1.68384 32.3722 1.4843C32.4134 1.28477 32.4086 1.07849 32.3584 0.881046C32.3057 0.706044 32.2138 0.545362 32.0896 0.411206C31.9655 0.27705 31.8124 0.17295 31.642 0.106816C31.4864 0.038474 31.3186 0.00214761 31.1487 0C30.953 0.0100598 30.7617 0.0619336 30.5878 0.152128C30.4138 0.242322 30.2612 0.368743 30.1403 0.522876C29.433 1.28509 29.0437 2.28872 29.0519 3.32848C29.0725 4.40037 29.471 5.43056 30.1772 6.23716C30.5466 6.61309 30.7662 7.11076 30.795 7.63697C30.7595 8.14576 30.5287 8.62111 30.1507 8.96358C30.1033 9.01288 30.0491 9.06144 29.9913 9.11298C29.8128 9.24365 29.674 9.4213 29.5905 9.62614C29.4514 10.0034 29.4413 10.4161 29.5617 10.7996C29.6982 11.0392 29.8992 11.2356 30.1418 11.3666C30.2318 11.4271 30.3166 11.4846 30.3894 11.544Z" fill="currentColor"/>
<path d="M10.7039 11.1243C10.9295 11.3507 11.2339 11.4811 11.5535 11.488C11.8896 11.4802 12.2119 11.3531 12.4629 11.1294C12.9509 10.7514 13.3579 10.2792 13.6597 9.74089C13.9616 9.20253 14.1522 8.60899 14.2201 7.99552C14.2556 7.37531 14.166 6.7543 13.9566 6.16941C13.7473 5.58453 13.4224 5.0477 13.0015 4.59086C12.6876 4.2712 12.5071 3.84409 12.4966 3.39621C12.4862 2.94834 12.6465 2.51326 12.9451 2.17928C13.0676 2.00625 13.1766 1.82408 13.2711 1.63437C13.3077 1.5649 13.3425 1.49917 13.3757 1.44128L13.4131 1.37704L13.3959 1.30496C13.3772 1.2269 13.363 1.16004 13.3507 1.10066C13.3326 0.999016 13.306 0.89907 13.2711 0.801875C13.1905 0.571747 13.041 0.372037 12.8428 0.229901C12.6447 0.0877663 12.4076 0.0101044 12.1638 0.00747681C11.9702 0.0126841 11.7796 0.0568391 11.6035 0.137306C11.4273 0.217773 11.2692 0.332903 11.1385 0.475824C10.4059 1.22826 9.9982 2.23836 10.0032 3.28852C10.0162 4.37654 10.4172 5.42417 11.1341 6.24277C11.5095 6.61841 11.7283 7.12261 11.7462 7.65341C11.6976 8.17947 11.4491 8.66686 11.0519 9.01513C11.0168 9.05248 10.9794 9.08983 10.9399 9.12718C10.867 9.19777 10.792 9.27097 10.7217 9.35127C10.488 9.60259 10.3535 9.93031 10.3434 10.2734C10.3491 10.593 10.4783 10.8979 10.7039 11.1243Z" fill="currentColor"/>
<path d="M13.471 37.0581C13.6916 37.2082 13.955 37.2829 14.2217 37.271C14.4181 37.2725 14.6135 37.241 14.7994 37.1776C15.0518 37.044 15.2541 36.8322 15.3761 36.574L15.3848 36.5605C15.4538 36.4526 15.5251 36.3411 15.6051 36.2379L15.6917 36.1259L15.6069 36.0138C15.518 35.8943 15.4407 35.7763 15.366 35.662C15.233 35.4288 15.0612 35.2199 14.8581 35.0443C13.8176 34.2565 12.887 33.3333 12.091 32.2992C11.3007 31.261 10.6544 30.1208 10.1698 28.9094C9.8325 28.0725 9.28236 27.9473 8.98357 27.9473C8.80998 27.9493 8.63849 27.9856 8.479 28.0542C7.78245 28.3436 7.54716 29.0297 7.86537 29.8446C8.47619 31.5012 9.38998 33.0296 10.56 34.3518C11.4646 35.3222 12.4374 36.2266 13.471 37.0581Z" fill="currentColor"/>
<path fill-rule="evenodd" clip-rule="evenodd" d="M37.1184 14.8187C31.8486 14.8134 26.4928 14.8134 21.2043 14.8134C15.9841 14.8134 10.6818 14.8134 5.44743 14.8183C4.99255 14.809 4.54037 14.8903 4.11719 15.0574C3.69401 15.2245 3.30828 15.4741 2.98245 15.7916C2.34481 16.456 1.99575 17.3456 2.01139 18.2663L2.00922 18.8263C1.99997 21.2026 1.99042 23.6576 2.01961 26.0732C2.04534 27.8991 2.36464 29.709 2.96527 31.4334C3.56065 33.1507 4.40733 34.7701 5.47768 36.239C6.54619 37.7128 7.82546 39.0215 9.27451 40.1232C10.729 41.2329 12.3491 42.1067 14.0753 42.7126C15.209 43.1047 16.3785 43.3848 17.5669 43.5488C18.7402 43.7113 19.9235 43.7897 21.1079 43.7834C21.5684 43.7834 22.0547 43.7733 22.5526 43.7528C30.0428 43.4454 35.4934 39.9317 38.7531 33.3091C38.9519 32.8262 39.2595 32.3958 39.6521 32.0515C40.0487 31.7741 40.5284 31.6411 41.0112 31.6747C41.0814 31.6747 41.1576 31.6766 41.2353 31.6799C41.3051 31.6848 41.3761 31.6848 41.4459 31.6848C42.6421 31.6752 43.7941 31.2311 44.687 30.4351C45.5943 29.6366 46.209 28.5582 46.4338 27.3707C46.558 26.5751 46.5998 25.7689 46.5585 24.9647C46.5506 24.1514 46.3559 23.3507 45.9896 22.6245C45.6233 21.8983 45.0951 21.2659 44.4458 20.7761C43.907 20.3453 43.2849 20.0307 42.6187 19.8521C41.9481 19.678 41.2572 19.5949 40.5645 19.6052C40.5648 19.5527 40.5655 19.5008 40.5661 19.4495C40.567 19.3807 40.5679 19.3125 40.5679 19.2456C40.572 18.8807 40.5757 18.5363 40.5608 18.1931C40.5475 17.2819 40.1842 16.4108 39.546 15.7602C39.2237 15.4506 38.8432 15.2079 38.4265 15.0463C38.0098 14.8847 37.5652 14.8073 37.1184 14.8187ZM21.3365 17.3049V17.3038H36.7341C37.3227 17.3038 37.6502 17.3804 37.8269 17.5585C38.0036 17.7367 38.0779 18.0598 38.0745 18.6394C38.07 19.4331 38.0745 20.2398 38.079 21.02L38.0794 21.0871C38.0897 22.9281 38.1004 24.8301 37.9897 26.6913C37.8881 28.421 37.4932 30.1207 36.8218 31.718C36.1655 33.2836 35.2578 34.7315 34.1346 36.0045C33.0163 37.2768 31.6957 38.356 30.2261 39.1985C28.7291 40.0578 27.0941 40.6501 25.394 40.949C23.8898 41.2257 22.3643 41.3701 20.8349 41.3808C18.3564 41.4242 15.9017 40.8916 13.6641 39.8248C12.2918 39.1666 11.0064 38.341 9.83697 37.3669C7.65991 35.5507 6.06755 33.1322 5.25957 30.4146C4.82715 28.9535 4.57836 27.4442 4.51895 25.9216C4.44239 24.1867 4.46218 22.4153 4.48161 20.7025L4.48365 20.5206C4.4913 19.8434 4.49916 19.147 4.49916 18.4616C4.4598 18.1371 4.54879 17.8101 4.74715 17.5503C5.01269 17.3533 5.34361 17.2655 5.6719 17.3049H21.3365ZM43.0198 28.5591C42.4635 28.9947 41.7752 29.2274 41.0687 29.219V29.2168C40.9136 29.2168 40.7587 29.207 40.6049 29.1873V22.1625C40.7682 22.136 40.9335 22.1226 41.099 22.1225C41.7952 22.1216 42.4705 22.3612 43.0105 22.8007C43.552 23.2432 43.9117 23.8695 44.0211 24.5602C44.1371 25.3027 44.1371 26.0587 44.0211 26.8011C43.9203 27.4922 43.5628 28.1199 43.0198 28.5591Z" fill="currentColor"/>
<path d="M5.49711 47.9515C5.64005 47.9856 5.78678 48.0013 5.93371 47.9981C5.95728 47.9981 5.98098 47.9991 6.00457 48C6.03892 48.0013 6.07305 48.0027 6.10626 48.0011C6.1622 47.9985 6.21516 47.9985 6.26775 47.9985H29.1031C31.338 47.9985 34.2878 47.9981 37.2824 47.9963C37.4935 48.0086 37.7049 47.9781 37.9039 47.9065C38.1028 47.8349 38.2853 47.7238 38.4402 47.5798C38.5491 47.4649 38.6334 47.3288 38.6876 47.1801C38.7419 47.0313 38.7651 46.8729 38.7557 46.7149C38.7557 46.5449 38.7177 46.3771 38.6446 46.2237C38.5714 46.0703 38.465 45.9352 38.333 45.8282C38.0299 45.6077 37.6618 45.495 37.2872 45.5081H6.26985C6.21793 45.5081 6.16676 45.5081 6.10999 45.5055C6.05331 45.5029 5.99811 45.5029 5.94143 45.5029C5.81872 45.5007 5.69585 45.5108 5.57517 45.5331C5.29493 45.5814 5.03993 45.7249 4.85323 45.9394C4.66653 46.1539 4.55956 46.4263 4.55039 46.7105C4.54121 46.9947 4.63039 47.2734 4.80287 47.4995C4.97535 47.7256 5.22057 47.8852 5.49711 47.9515Z" fill="currentColor"/>
<path d="M20.6098 11.3985C20.7618 11.4704 20.9271 11.51 21.0952 11.5149C21.3665 11.509 21.6276 11.4104 21.8351 11.2355C23.1251 10.2039 23.7555 9.01551 23.7623 7.603C23.7615 6.60438 23.4109 5.63759 22.7714 4.8706C22.2433 4.22522 22.0383 3.84576 22.0192 3.47004C22.0035 3.16005 22.0958 2.80262 22.6041 1.97835C22.7096 1.78694 22.7723 1.57493 22.788 1.35693C22.8037 1.13894 22.7719 0.920133 22.6948 0.715604C22.5877 0.531441 22.4386 0.375236 22.2596 0.259758C22.0805 0.14428 21.8767 0.0728055 21.6648 0.051178H21.639C21.23 0.0907689 20.8512 0.284036 20.5791 0.591981C19.8937 1.36778 19.5189 2.36936 19.5267 3.40454C19.5345 4.43971 19.9243 5.43555 20.6213 6.20094C21.0144 6.58867 21.2471 7.11012 21.2734 7.66164C21.2085 8.20985 20.9397 8.71358 20.5204 9.07265C20.4904 9.10341 20.4596 9.13347 20.4272 9.16521L20.4241 9.16826C20.3215 9.26326 20.2269 9.36657 20.1413 9.47713C19.944 9.70506 19.8413 9.99987 19.8545 10.3011C19.8676 10.6023 19.9955 10.887 20.2119 11.0969C20.3223 11.2239 20.4577 11.3266 20.6098 11.3985Z" fill="currentColor"/>
</svg>
