<svg width="48" height="48" viewBox="0 0 48 48" fill="none" xmlns="http://www.w3.org/2000/svg">
<path d="M36.0465 22.9545C35.7693 22.9571 35.4944 22.9046 35.2377 22.8C34.9811 22.6954 34.7477 22.5409 34.5512 22.3453C34.3603 22.1533 34.2094 21.9252 34.1074 21.6743C34.0053 21.4235 33.9541 21.1548 33.9568 20.884C33.9564 20.3287 34.1765 19.7959 34.5687 19.4027C34.7611 19.208 34.9903 19.0536 35.243 18.9483C35.4957 18.8431 35.7668 18.7892 36.0406 18.7897H36.0521C36.5998 18.7953 37.1232 19.0163 37.509 19.4051C37.8949 19.7938 38.112 20.3189 38.1135 20.8666C38.1149 21.4143 37.9005 21.9405 37.5167 22.3312C37.1329 22.722 36.6106 22.9458 36.0629 22.9542L36.0465 22.9545Z" fill="currentColor"/>
<path d="M19.3675 22.9521C19.0928 22.9555 18.8202 22.9048 18.5651 22.8028C18.31 22.7008 18.0776 22.5495 17.881 22.3576C17.5906 22.0646 17.3932 21.6923 17.3137 21.2875C17.2342 20.8827 17.276 20.4634 17.434 20.0823C17.592 19.7012 17.8591 19.3753 18.2018 19.1455C18.5444 18.9157 18.9473 18.7923 19.3598 18.7908H19.377C19.6547 18.7836 19.9311 18.8321 20.1899 18.9334C20.4486 19.0347 20.6844 19.1868 20.8834 19.3807C21.0825 19.5747 21.2406 19.8065 21.3486 20.0625C21.4566 20.3185 21.5123 20.5936 21.5123 20.8714C21.5123 21.1493 21.4566 21.4243 21.3486 21.6804C21.2406 21.9364 21.0825 22.1682 20.8834 22.3621C20.6844 22.556 20.4486 22.7081 20.1899 22.8094C19.9311 22.9108 19.6547 22.9593 19.377 22.9521H19.3675Z" fill="currentColor"/>
<path d="M36.0444 29.3978C35.7677 29.4002 35.4933 29.3475 35.2371 29.2429C34.981 29.1383 34.7482 28.9837 34.5523 28.7883C34.2635 28.4931 34.0686 28.1189 33.9921 27.7131C33.9157 27.3072 33.9611 26.8878 34.1226 26.5077C34.2842 26.1276 34.5547 25.8039 34.9 25.5773C35.2453 25.3507 35.6499 25.2314 36.0629 25.2345C36.6079 25.2405 37.1288 25.4603 37.5134 25.8464C37.8982 26.2303 38.1155 26.7509 38.1177 27.2945C38.1229 27.5713 38.073 27.8464 37.9709 28.1038C37.8689 28.3612 37.7167 28.5958 37.5232 28.7939C37.3302 28.987 37.1008 29.1398 36.8483 29.2434C36.5957 29.347 36.3251 29.3994 36.0521 29.3975L36.0444 29.3978Z" fill="currentColor"/>
<path d="M19.3637 35.8422C18.8108 35.8422 18.2806 35.6226 17.8897 35.2317C17.4988 34.8407 17.2792 34.3105 17.2792 33.7577C17.2792 33.2049 17.4988 32.6747 17.8897 32.2838C18.2806 31.8928 18.8108 31.6732 19.3637 31.6732H19.3658C19.6378 31.6729 19.9072 31.7267 20.1583 31.8314C20.4094 31.9361 20.6372 32.0896 20.8285 32.2831C21.0255 32.4805 21.1813 32.7151 21.2868 32.9732C21.3923 33.2313 21.4455 33.5079 21.4433 33.7867C21.4436 34.0565 21.3907 34.3237 21.2877 34.5731C21.1847 34.8225 21.0336 35.0491 20.8429 35.24C20.6523 35.4309 20.4259 35.5824 20.1767 35.6858C19.9275 35.7892 19.6604 35.8424 19.3906 35.8425L19.3637 35.8422Z" fill="currentColor"/>
<path d="M27.6775 35.8401C27.4021 35.8411 27.1293 35.7867 26.8754 35.6801C26.6215 35.5735 26.3917 35.4168 26.1996 35.2195C26.0075 35.0222 25.8571 34.7882 25.7573 34.5316C25.6576 34.2749 25.6105 34.0008 25.6189 33.7255C25.6297 33.1815 25.8519 32.663 26.2384 32.28C26.6249 31.8969 27.1452 31.6793 27.6894 31.6732H27.7012C27.9744 31.6727 28.2449 31.7265 28.497 31.8315C28.7492 31.9365 28.9779 32.0906 29.1699 32.2848C29.4668 32.5743 29.6701 32.9462 29.7534 33.3524C29.8366 33.7586 29.7961 34.1804 29.637 34.5633C29.4779 34.9463 29.2076 35.2726 28.861 35.5003C28.5144 35.7279 28.1075 35.8463 27.6929 35.8401H27.6775Z" fill="currentColor"/>
<path d="M19.3745 42.282H19.364C19.0886 42.2878 18.8148 42.2378 18.5592 42.135C18.3036 42.0322 18.0714 41.8787 17.8767 41.6838C17.682 41.4889 17.5288 41.2565 17.4263 41.0008C17.3238 40.7451 17.2741 40.4712 17.2803 40.1958C17.2835 39.8551 17.3703 39.5204 17.5331 39.2211C17.6959 38.9218 17.9296 38.667 18.2138 38.4791C18.498 38.2913 18.824 38.176 19.1631 38.1435C19.5023 38.1109 19.8442 38.1622 20.1589 38.2926C20.4737 38.4231 20.7516 38.6288 20.9683 38.8917C21.1849 39.1546 21.3338 39.4667 21.4017 39.8006C21.4697 40.1344 21.4546 40.4798 21.3579 40.8065C21.2612 41.1332 21.0858 41.4312 20.8471 41.6742C20.6544 41.8684 20.4249 42.0222 20.1721 42.1266C19.9192 42.2309 19.6481 42.2838 19.3745 42.282Z" fill="currentColor"/>
<path d="M11.016 29.3968H11.0097C10.4575 29.3981 9.92737 29.18 9.53597 28.7905C9.14456 28.401 8.92391 27.872 8.92257 27.3198C8.92122 26.7676 9.13929 26.2375 9.52879 25.8461C9.9183 25.4547 10.4473 25.2341 10.9995 25.2327H11.0286C11.301 25.2329 11.5706 25.2872 11.8218 25.3925C12.0731 25.4978 12.3009 25.652 12.492 25.8461C12.686 26.0389 12.8401 26.2682 12.9455 26.5207C13.0509 26.7732 13.1054 27.0439 13.106 27.3175C13.1089 27.5901 13.0577 27.8604 12.9552 28.113C12.8527 28.3655 12.7011 28.5952 12.5091 28.7887C12.3129 28.9839 12.0799 29.1382 11.8236 29.2426C11.5672 29.347 11.2927 29.3994 11.016 29.3968Z" fill="currentColor"/>
<path d="M11.0156 35.8404C10.4673 35.8374 9.94232 35.6183 9.55452 35.2307C9.16672 34.843 8.9474 34.3181 8.94413 33.7698C8.94087 33.2215 9.15392 32.694 9.53707 32.3018C9.92022 31.9095 10.4426 31.6842 10.9908 31.6746H11.0209C11.2944 31.675 11.5652 31.7292 11.8178 31.8342C12.0704 31.9392 12.2999 32.0929 12.4931 32.2866C12.6863 32.4803 12.8394 32.7101 12.9438 32.963C13.0481 33.2158 13.1017 33.4868 13.1013 33.7603C13.101 34.0339 13.0468 34.3047 12.9418 34.5573C12.8368 34.8099 12.683 35.0393 12.4894 35.2325C12.2957 35.4257 12.0658 35.5789 11.813 35.6832C11.5601 35.7876 11.2892 35.8411 11.0156 35.8408V35.8404Z" fill="currentColor"/>
<path d="M36.0451 35.8408C35.7685 35.8429 35.4942 35.79 35.2383 35.6852C34.9823 35.5804 34.7497 35.4257 34.554 35.2302C34.3622 35.0376 34.2105 34.8087 34.1078 34.557C34.0052 34.3052 33.9536 34.0355 33.9561 33.7636C33.9576 33.2104 34.178 32.6803 34.5689 32.289C34.9599 31.8976 35.4898 31.6767 36.043 31.6746H36.057C36.6047 31.6817 37.1276 31.9043 37.5125 32.2941C37.8973 32.684 38.1131 33.2097 38.1131 33.7575C38.1131 34.3053 37.8973 34.8311 37.5125 35.2209C37.1276 35.6108 36.6047 35.8333 36.057 35.8404L36.0451 35.8408Z" fill="currentColor"/>
<path d="M36.0426 42.283C35.7668 42.2855 35.4931 42.2333 35.2376 42.1292C34.9821 42.0252 34.7497 41.8715 34.554 41.677C34.2664 41.3828 34.0717 41.0105 33.9943 40.6064C33.9169 40.2023 33.9602 39.7843 34.1187 39.4047C34.2773 39.025 34.5441 38.7004 34.886 38.4714C35.2278 38.2424 35.6295 38.1191 36.0409 38.1169H36.0584C36.6016 38.1208 37.1213 38.3394 37.504 38.725C37.89 39.11 38.1101 39.6307 38.1173 40.1758C38.126 40.4512 38.0789 40.7255 37.9789 40.9821C37.8789 41.2388 37.7279 41.4726 37.5352 41.6695C37.3425 41.8663 37.1119 42.0222 36.8574 42.1276C36.6029 42.233 36.3297 42.2859 36.0542 42.283H36.0426Z" fill="currentColor"/>
<path d="M11.0219 22.9521C10.4794 22.938 9.9639 22.7126 9.58519 22.3239C9.20647 21.9353 8.99453 21.4141 8.99453 20.8714C8.99453 20.3288 9.20647 19.8076 9.58519 19.4189C9.9639 19.0302 10.4794 18.8049 11.0219 18.7908H11.0387C11.5821 18.8002 12.1009 19.0196 12.4862 19.403C12.8715 19.7863 13.0935 20.3039 13.1057 20.8473C13.1125 21.1205 13.0645 21.3923 12.9647 21.6467C12.8648 21.9011 12.715 22.1329 12.5242 22.3286C12.3301 22.5269 12.0982 22.6843 11.8423 22.7916C11.5864 22.899 11.3116 22.954 11.0341 22.9535L11.0219 22.9521Z" fill="currentColor"/>
<path d="M27.6872 22.9542H27.6593C27.3895 22.9529 27.1226 22.8984 26.8739 22.7939C26.6253 22.6894 26.3996 22.5368 26.2099 22.345C26.0203 22.1532 25.8703 21.9258 25.7685 21.676C25.6668 21.4261 25.6154 21.1587 25.6171 20.8889C25.6159 20.6128 25.6695 20.3392 25.7748 20.0839C25.8802 19.8287 26.0351 19.5969 26.2308 19.402C26.4228 19.2078 26.6516 19.0538 26.9037 18.9488C27.1559 18.8438 27.4264 18.79 27.6995 18.7904H27.7103C27.9857 18.7919 28.258 18.8479 28.5116 18.9552C28.7652 19.0626 28.995 19.2191 29.1878 19.4158C29.3805 19.6125 29.5323 19.8455 29.6345 20.1012C29.7366 20.3569 29.7871 20.6304 29.7829 20.9057C29.7832 21.1788 29.7289 21.4492 29.6231 21.7009C29.5173 21.9527 29.3622 22.1808 29.1669 22.3717C28.9716 22.5626 28.74 22.7124 28.4859 22.8125C28.2318 22.9125 27.9603 22.9607 27.6872 22.9542Z" fill="currentColor"/>
<path d="M19.3588 29.3985H19.3525C18.7887 29.3977 18.2483 29.173 17.8501 28.7739C17.4519 28.3748 17.2284 27.8339 17.2288 27.2702C17.2293 26.7064 17.4535 26.1658 17.8523 25.7673C18.2511 25.3688 18.7918 25.1449 19.3556 25.1449C19.9194 25.1449 20.4601 25.3688 20.8589 25.7673C21.2577 26.1658 21.482 26.7064 21.4824 27.2702C21.4828 27.8339 21.2594 28.3748 20.8612 28.7739C20.463 29.173 19.9226 29.3977 19.3588 29.3985Z" fill="currentColor"/>
<path d="M27.697 29.3968C27.423 29.3999 27.1511 29.3482 26.8973 29.2447C26.6435 29.1412 26.4131 28.9879 26.2194 28.794C26.0258 28.6 25.8729 28.3693 25.7697 28.1154C25.6666 27.8615 25.6153 27.5895 25.6189 27.3154C25.6221 26.7718 25.8361 26.2507 26.2159 25.8618C26.5958 25.4729 27.1117 25.2466 27.6551 25.2306H27.6995C28.252 25.2291 28.7825 25.4472 29.1742 25.8368C29.5659 26.2265 29.7868 26.7558 29.7883 27.3083C29.7898 27.8608 29.5718 28.3913 29.1821 28.783C28.7925 29.1747 28.2632 29.3956 27.7107 29.3971L27.697 29.3968Z" fill="currentColor"/>
<path d="M11.016 42.2823H11.0125C10.7371 42.2859 10.4638 42.2338 10.2091 42.1291C9.95437 42.0244 9.72343 41.8693 9.53016 41.6731C9.3369 41.4769 9.18529 41.2437 9.08445 40.9874C8.98362 40.7311 8.93564 40.4571 8.94339 40.1818C8.94888 39.6367 9.16753 39.1154 9.55254 38.7295C9.93419 38.3427 10.4533 38.1224 10.9967 38.1169H11.0202C11.5719 38.1202 12.1001 38.3407 12.4905 38.7306C12.8808 39.1206 13.1019 39.6486 13.1057 40.2003C13.1093 40.4722 13.0588 40.7421 12.9571 40.9943C12.8553 41.2464 12.7043 41.4758 12.513 41.669C12.3167 41.8656 12.0833 42.021 11.8262 42.1264C11.5692 42.2317 11.2937 42.2847 11.016 42.2823Z" fill="currentColor"/>
<path d="M27.6841 42.2813H27.6908C28.2456 42.2877 28.7803 42.0735 29.1773 41.6858C29.4665 41.3918 29.6627 41.0192 29.7413 40.6144C29.82 40.2096 29.7776 39.7906 29.6195 39.4098C29.4614 39.0289 29.1945 38.7031 28.8523 38.4731C28.5101 38.243 28.1077 38.1189 27.6953 38.1162H27.6817C27.1378 38.1242 26.6184 38.3435 26.2334 38.7276C25.8483 39.1117 25.6278 39.6306 25.6185 40.1744C25.6104 40.4498 25.658 40.724 25.7584 40.9806C25.8588 41.2372 26.01 41.4708 26.2029 41.6675C26.3957 41.8643 26.6264 42.02 26.8809 42.1255C27.1354 42.231 27.4086 42.284 27.6841 42.2813Z" fill="currentColor"/>
<path fill-rule="evenodd" clip-rule="evenodd" d="M20.7488 47.9997C16.8708 47.9997 12.9606 47.9997 9.12732 47.9976C7.23932 48.022 5.41883 47.296 4.06561 45.9792C3.40629 45.3161 2.88551 44.5284 2.53358 43.6621C2.18166 42.7957 2.00563 41.868 2.01575 40.9329C1.99547 31.675 1.99477 22.0082 2.01366 12.2006C2.00301 11.266 2.17798 10.3385 2.52841 9.47195C2.87884 8.60542 3.39777 7.81705 4.05512 7.15254C5.40599 5.83455 7.2233 5.10433 9.11053 5.12121C9.25091 5.12121 9.39565 5.12075 9.54966 5.12026C9.7248 5.11971 9.91201 5.11911 10.1183 5.11911H11.7293V2.1779C11.7265 1.18899 12.1273 0.516896 12.8875 0.232252C13.2596 0.0857786 13.6549 0.00713967 14.0547 6.00941e-05C14.5837 -0.00376905 15.0976 0.1755 15.5094 0.507454C15.7495 0.707579 15.9372 0.963202 16.0563 1.2522C16.1753 1.54119 16.2222 1.85485 16.1927 2.16602C16.1871 2.83323 16.1881 3.49227 16.1891 4.18305L16.1892 4.29735V5.06491H30.8998C30.8998 4.86999 30.9026 4.67461 30.9053 4.48272L30.9053 4.482L30.9072 4.34869C30.9156 3.7156 30.9242 3.06095 30.8914 2.42338C30.8509 2.10374 30.8768 1.77916 30.9677 1.47003C31.0586 1.1609 31.2124 0.873901 31.4195 0.627047C31.6365 0.419671 31.8942 0.259725 32.1764 0.157381C32.4586 0.055037 32.7589 0.012536 33.0584 0.0325809C33.3542 0.0348297 33.649 0.0653918 33.9389 0.123849C34.3471 0.207538 34.7083 0.442832 34.9499 0.782308C35.1993 1.13419 35.3344 1.55427 35.337 1.98558C35.3467 2.72148 35.3447 3.45122 35.3426 4.22329L35.3426 4.247C35.3426 4.53164 35.3426 4.82433 35.3405 5.12121H38.0911C39.0439 5.10994 39.9882 5.30106 40.8616 5.68191C41.735 6.06277 42.5176 6.62469 43.1577 7.33053C43.7978 8.00526 44.292 8.80458 44.6096 9.67867C44.9163 10.5549 45.0675 11.4779 45.0565 12.4062C45.0509 16.9812 45.0513 21.6327 45.0516 26.131V34.1392C45.0516 34.6527 45.0517 35.1702 45.0519 35.6903C45.0523 37.4101 45.0528 39.1587 45.0485 40.885C45.0498 41.7316 44.9079 42.5723 44.6288 43.3716C44.0927 44.9038 43.0295 46.1955 41.6289 47.016C40.4945 47.706 39.1821 48.0465 37.8554 47.9952C32.1286 47.9983 26.3728 47.9997 20.7488 47.9997ZM3.03859 16.3615C3.03033 16.4088 3.02531 16.4566 3.02355 16.5045C3.02355 18.7537 3.0211 21.0407 3.01865 23.2535L3.01858 23.335C3.013 29.189 3.00725 35.2404 3.03544 41.1924C3.04876 42.661 3.62369 44.0689 4.64225 45.127C5.64801 46.198 7.01933 46.8523 8.4846 46.9601C9.06612 47.001 9.69416 47.0192 10.5208 47.0192C10.8186 47.0192 11.121 47.0169 11.4156 47.0146L11.5834 47.0133C11.8785 47.011 12.1825 47.0087 12.4815 47.0087L17.4558 47.0093C20.8242 47.0109 24.2745 47.0125 27.6747 47.0125C31.4348 47.0125 34.7544 47.0108 37.8229 47.0069C38.6808 47.0124 39.5318 46.8532 40.3298 46.538C41.0666 46.2455 41.7352 45.8043 42.2939 45.242C42.8527 44.6798 43.2897 44.0084 43.5777 43.2699C43.8891 42.4702 44.0459 41.6187 44.0396 40.7605V16.3615H3.03859ZM44.0319 14.4281C44.0319 14.2226 44.0359 14.0189 44.0399 13.8191C44.0409 13.7683 44.0418 13.7177 44.0428 13.6675C44.0554 12.9954 44.0669 12.3608 44.0193 11.725C43.9627 10.869 43.7233 10.035 43.3172 9.27933C42.8947 8.5242 42.3252 7.86143 41.6422 7.33018C41.0291 6.84152 40.3137 6.49741 39.5493 6.32343C38.8082 6.16593 38.0514 6.09413 37.2938 6.10942C36.9658 6.10942 36.6294 6.11677 36.306 6.12411C35.9972 6.1311 35.6786 6.1381 35.3646 6.1388L35.3576 6.15139C35.353 6.80251 35.35 7.46412 35.347 8.10581L35.3464 8.23062C35.3448 8.60362 35.343 8.97662 35.3412 9.34961C35.3335 10.7484 34.5603 11.4855 33.1049 11.4855H33.0958C32.5042 11.5257 31.92 11.3342 31.467 10.9515C31.2698 10.7408 31.118 10.4919 31.0209 10.2201C30.9238 9.94839 30.8836 9.65959 30.9026 9.37164C30.8991 8.65923 30.8997 7.96092 30.9004 7.22865L30.9005 6.17586H16.1854C16.1854 6.48394 16.1854 6.79061 16.1882 7.08854C16.1917 7.92779 16.1948 8.72158 16.1798 9.529C16.162 10.5008 15.6234 11.2369 14.8076 11.4047C14.5168 11.4665 14.2205 11.4987 13.9233 11.5009C13.6241 11.5174 13.3247 11.4728 13.0433 11.37C12.7619 11.2671 12.5044 11.1081 12.2864 10.9026C12.0757 10.6592 11.9172 10.3752 11.8206 10.0682C11.724 9.76115 11.6914 9.43756 11.7248 9.11742C11.749 8.41209 11.7431 7.71974 11.7369 6.98766L11.7367 6.96266C11.7342 6.69235 11.7321 6.41435 11.7311 6.136C11.4936 6.136 11.2588 6.13226 11.029 6.12861L10.824 6.12545C10.5111 6.12082 10.2135 6.11642 9.91376 6.11642C9.41091 6.11642 9.00108 6.12936 8.62412 6.15663C7.95427 6.19394 7.29635 6.34975 6.68092 6.61682C5.02725 7.38333 3.96141 8.47995 3.42184 9.96961C2.99802 11.1425 2.89242 12.5618 3.09244 14.4281H44.0319Z" fill="currentColor"/>
</svg>
