<svg xmlns="http://www.w3.org/2000/svg" width="45.603" height="48" viewBox="0 0 45.603 48">
  <g id="Group_2838" data-name="Group 2838" transform="translate(-0.001)">
    <path id="Union_2" data-name="Union 2" d="M29.938,42.607A5.394,5.394,0,1,1,35.333,48,5.4,5.4,0,0,1,29.938,42.607Zm-17.255,0A5.394,5.394,0,1,1,18.077,48,5.4,5.4,0,0,1,12.683,42.607Zm.284-5.648-5.6-18.885L3.574,8.365H0V6.127H5.1L9.189,16.6h1.52V9.109h6.248V0H32.176V9.109H43.587V16.6H45.6L40.479,36.959Zm1.67-2.236h24.1l1.108-4.414H13.326Zm-1.973-6.652H40.409l.9-3.588H11.6Zm-1.727-5.826H41.874l.858-3.413H9.924ZM32.176,16.6h9.175V11.347H32.176ZM19.2,9.109V16.6H29.939V2.238H19.2ZM12.948,16.6h4.009V11.347H12.948Z" transform="translate(0.001 0.001)" fill="currentColor"/>
  </g>
</svg>
