<svg width="48" height="48" viewBox="0 0 48 48" fill="none" xmlns="http://www.w3.org/2000/svg">
<path d="M24.0454 5.40678e-06C28.8007 0.00924503 33.446 1.43091 37.392 4.0846C41.338 6.73828 44.4067 10.5044 46.2087 14.905C48.0108 19.3056 48.4649 24.1423 47.5136 28.8015C46.5622 33.4606 44.2482 37.7321 40.8652 41.074C37.4822 44.4159 33.1827 46.6774 28.5123 47.5717C23.8419 48.466 19.011 47.9527 14.6328 46.097C10.2546 44.2412 6.52631 41.1267 3.92109 37.1486C1.31586 33.1705 -0.0488752 28.5081 5.0135e-05 23.753C0.0167603 20.6138 0.652246 17.5087 1.87015 14.6154C3.08806 11.722 4.86448 9.09714 7.0978 6.89098C9.33112 4.68481 11.9775 2.94062 14.8855 1.7582C17.7936 0.575775 20.9062 -0.021683 24.0454 5.40678e-06ZM24.0353 45.4597C28.2807 45.4527 32.4285 44.1866 35.9541 41.8215C39.4796 39.4565 42.2244 36.0988 43.8411 32.1733C45.4578 28.2478 45.8738 23.931 45.0364 19.7691C44.199 15.6071 42.1458 11.7871 39.1368 8.79238C36.1277 5.79764 32.2979 3.76278 28.132 2.94528C23.9661 2.12778 19.6513 2.56437 15.7336 4.19982C11.8159 5.83526 8.47139 8.59606 6.12321 12.1329C3.77502 15.6697 2.52873 19.8236 2.54202 24.0689C2.57923 29.7483 4.8589 35.1831 8.88455 39.1895C12.9102 43.196 18.3558 45.4496 24.0353 45.4597Z" fill="currentColor"/>
<path d="M23.0223 17.6325C23.0223 15.7844 23.0323 13.9363 23.0223 12.0882C23.0223 11.065 22.9551 9.88898 24.3512 9.90411C25.7742 9.92427 25.6113 11.1574 25.613 12.142C25.613 15.4736 25.6466 18.8052 25.5928 22.1351C25.5534 22.5074 25.633 22.8825 25.8202 23.2067C26.0073 23.5309 26.2924 23.7875 26.6344 23.9395C29.2167 25.3995 31.7453 26.9553 34.3107 28.4472C35.1508 28.9311 35.7489 29.5392 35.1995 30.4986C34.6501 31.4579 33.8269 31.2126 32.9986 30.7119C30.0333 28.9243 27.0175 27.219 24.0942 25.371C23.8099 25.1543 23.5729 24.8819 23.3976 24.5705C23.2222 24.2591 23.1122 23.9152 23.0743 23.5598C22.9433 21.5874 23.0273 19.6015 23.0273 17.6207" fill="currentColor"/>
</svg>
