<svg width="48" height="48" viewBox="0 0 48 48" fill="none" xmlns="http://www.w3.org/2000/svg">
<path fill-rule="evenodd" clip-rule="evenodd" d="M8.12408 8.88885L9.13856 9.91006L9.25028 9.81054L9.29137 9.77523C9.32347 9.74858 9.35558 9.72161 9.38768 9.68951C10.9299 8.15294 12.703 6.86715 14.6427 5.87881C16.5905 4.90537 18.6804 4.2474 20.8345 3.92948C20.8648 3.92438 20.8954 3.92149 20.926 3.92082C20.9723 3.92082 20.9934 3.92082 21.0448 4.03992C21.5906 5.30159 22.4965 5.96004 23.7415 5.99824H23.8327C24.4702 5.99907 25.0905 5.7909 25.5984 5.40561C26.1092 5.02162 26.4839 4.48438 26.6678 3.87234C26.8548 3.24878 26.8377 2.58175 26.619 1.9686C26.4036 1.36062 25.9949 0.839977 25.4555 0.486374C24.965 0.168911 24.3932 0.0001103 23.8089 0.000325947C23.0874 -0.00106039 22.3899 0.259098 21.8455 0.732609C21.3289 1.1873 20.9868 1.8078 20.8782 2.48739C16.0828 3.11996 11.6349 5.33269 8.23773 8.77584L8.12408 8.88885ZM22.6666 1.87992C22.9637 1.58169 23.3671 1.41369 23.7881 1.41288H23.7964C24.213 1.42279 24.61 1.592 24.9057 1.88568C25.2013 2.17937 25.3732 2.5752 25.3859 2.99174C25.3869 3.1988 25.3466 3.40398 25.2673 3.59527C25.1881 3.78656 25.0714 3.9601 24.9242 4.10573C24.6272 4.40913 24.2219 4.58231 23.7974 4.58729H23.7942C23.3732 4.5881 22.9692 4.42165 22.671 4.12456C22.3727 3.82748 22.2047 3.42409 22.2039 3.00313C22.2031 2.58218 22.3696 2.17815 22.6666 1.87992Z" fill="currentColor"/>
<path fill-rule="evenodd" clip-rule="evenodd" d="M40.9961 16.5447C41.3695 16.7037 41.7708 16.7865 42.1767 16.7882L42.1763 16.7895C42.8265 16.7887 43.4586 16.576 43.9771 16.1838C44.4956 15.7916 44.8723 15.2412 45.05 14.6158C45.2278 13.9905 45.197 13.3242 44.9623 12.7179C44.7277 12.1116 44.3019 11.5982 43.7494 11.2555C43.281 10.9578 42.7378 10.7989 42.1828 10.7971C41.8487 10.798 41.5171 10.8546 41.2017 10.9647C39.71 9.01626 37.916 7.3192 35.8879 5.93788C34.8683 5.25286 33.7914 4.65726 32.6692 4.15774C31.5109 3.6446 30.3118 3.22881 29.0845 2.91469L28.9298 2.87488L28.5615 4.27716L28.7182 4.31697C30.9738 4.87561 33.1194 5.80969 35.0651 7.08013C36.9544 8.33989 38.6169 9.91019 39.9824 11.7246C39.4496 12.3308 39.1686 13.1177 39.1968 13.9243C39.2164 14.6477 39.5034 15.3382 40.0023 15.8624C40.2848 16.1537 40.6227 16.3857 40.9961 16.5447ZM41.1275 12.6584C41.4189 12.3713 41.81 12.208 42.219 12.2026H42.2367C42.6417 12.2204 43.0247 12.392 43.3076 12.6825C43.5905 12.9729 43.7519 13.3603 43.759 13.7657C43.7525 14.1686 43.5868 14.5526 43.298 14.8338C43.0113 15.1205 42.6238 15.2836 42.2184 15.2884H42.212C42.0029 15.2904 41.7955 15.2508 41.6019 15.1717C41.4083 15.0927 41.2324 14.9758 41.0845 14.828C40.9437 14.6833 40.833 14.5122 40.7589 14.3244C40.6848 14.1367 40.6487 13.9361 40.6527 13.7342C40.6567 13.5324 40.7007 13.3334 40.7822 13.1487C40.8638 12.9641 40.9811 12.7974 41.1275 12.6584Z" fill="currentColor"/>
<path fill-rule="evenodd" clip-rule="evenodd" d="M20.4175 22.4362C21.3475 23.2665 22.5507 23.7253 23.7974 23.7249C25.0378 23.7252 26.2349 23.2693 27.1608 22.4439C27.1795 22.4227 27.2022 22.4055 27.2276 22.3932C27.253 22.3809 27.2807 22.3738 27.3089 22.3724C27.3386 22.3732 27.368 22.3779 27.3965 22.3865C27.791 22.4956 28.1984 22.5514 28.6078 22.5525C28.8087 22.5523 29.0093 22.5388 29.2084 22.512C30.0792 22.3944 30.8952 22.0199 31.552 21.4362C32.2153 20.8502 32.6906 20.0812 32.9183 19.2259C33.146 18.3778 33.1163 17.4812 32.833 16.6501C32.5496 15.819 32.0255 15.091 31.3272 14.5586C30.6289 14.0262 29.788 13.7136 28.9115 13.6605C28.035 13.6074 27.1626 13.8162 26.4051 14.2604C26.3656 14.2884 26.319 14.3047 26.2706 14.3073C26.216 14.3028 26.1631 14.2864 26.1156 14.2591C25.395 13.8897 24.5966 13.6978 23.7869 13.6994C22.9772 13.701 22.1796 13.8961 21.4605 14.2684C21.417 14.2928 21.3685 14.3069 21.3186 14.3099C21.2639 14.306 21.2111 14.2882 21.1652 14.2582C20.6051 13.9181 19.9767 13.706 19.325 13.6373H19.2929C18.5506 13.6324 17.8163 13.7908 17.142 14.1012C16.5219 14.3887 15.9724 14.8085 15.532 15.3311C15.1306 15.8075 14.8363 16.3647 14.669 16.9648C14.4976 17.5792 14.468 18.2244 14.5823 18.8519C14.6764 19.3851 14.8635 19.8975 15.1352 20.3659C15.5241 21.035 16.0824 21.5898 16.7539 21.9746C17.4254 22.3594 18.1864 22.5606 18.9603 22.5579C19.3724 22.5572 19.7825 22.5023 20.1802 22.3945C20.2156 22.3837 20.2522 22.3774 20.2891 22.3759C20.3135 22.3767 20.3374 22.3824 20.3595 22.3928C20.3816 22.4032 20.4013 22.418 20.4175 22.4362ZM21.2221 16.1075C21.9031 15.4271 22.8264 15.0452 23.789 15.0457L23.8012 15.046C24.7638 15.0474 25.6863 15.431 26.366 16.1126C27.0457 16.7942 27.4267 17.7179 27.4254 18.6804C27.424 19.643 27.0403 20.5656 26.3588 21.2452C25.6772 21.9249 24.7535 22.306 23.7909 22.3046H23.7855C22.8229 22.3041 21.8999 21.9213 21.2196 21.2403C20.5392 20.5593 20.1573 19.636 20.1578 18.6734C20.1582 17.7108 20.5411 16.7878 21.2221 16.1075ZM28.6123 21.1553C28.4536 21.1556 28.2952 21.1399 28.1397 21.1084V21.1071C28.6302 20.1993 28.837 19.1652 28.7333 18.1385C28.5791 17.1072 28.1239 16.1443 27.4247 15.3706C27.7916 15.158 28.2092 15.0489 28.6331 15.055C29.362 15.0614 30.0636 15.333 30.6069 15.819C31.1324 16.2805 31.4855 16.9068 31.6082 17.5953C31.7273 18.2723 31.6048 18.9697 31.2621 19.5655C30.9935 20.0353 30.6088 20.4281 30.1448 20.7065C29.6808 20.9849 29.1531 21.1394 28.6123 21.1553ZM17.7817 15.3033C18.1557 15.1408 18.559 15.0567 18.9667 15.0559L18.9664 15.0547C19.3747 15.056 19.7782 15.1415 20.152 15.3057C19.4715 16.0783 19.0241 17.0281 18.8618 18.0448C18.7456 19.0798 18.9506 20.1255 19.4489 21.0401C19.2722 21.0715 19.093 21.0874 18.9134 21.0876C18.3929 21.0878 17.8812 20.9527 17.4287 20.6956C16.9186 20.4033 16.5067 19.9662 16.2451 19.4397C15.9835 18.9132 15.8841 18.3209 15.9593 17.7379C16.0424 17.0841 16.3345 16.4747 16.792 16.0004C17.0709 15.703 17.4077 15.4657 17.7817 15.3033Z" fill="currentColor"/>
<path fill-rule="evenodd" clip-rule="evenodd" d="M13.2561 34.4234H34.4846L34.3309 31.8763H37.973L37.9589 31.7026C37.9377 31.4406 37.9184 31.1777 37.9001 30.9235L37.8973 30.8839C37.8556 30.314 37.8161 29.7725 37.7505 29.222L37.7398 29.1326C37.6226 28.1497 37.5017 27.1352 37.3037 26.1484C37.1791 25.3744 36.828 24.6548 36.2946 24.0803C35.7613 23.5058 35.0697 23.1023 34.3071 22.9207C33.926 22.8128 33.5439 22.6725 33.1746 22.5368L33.1513 22.5282C32.978 22.4647 32.7996 22.3992 32.6223 22.3374C32.4172 22.2661 32.2165 22.1974 32.0037 22.1248L31.7189 22.0285L31.5879 21.9836L31.5237 22.1065C31.4347 22.2795 31.3445 22.4523 31.2564 22.621L31.1816 22.7643C30.9177 23.2695 30.6676 23.748 30.4277 24.2459C30.3686 24.3679 30.3391 24.3679 30.3234 24.3679C30.2761 24.3637 30.2298 24.352 30.1863 24.3332C29.5426 24.0933 28.8833 23.8584 28.244 23.6306L28.1734 23.6054C27.9262 23.5175 27.6784 23.429 27.4299 23.34L27.3037 23.2947L27.2366 23.4106C27.2174 23.4427 27.1987 23.4748 27.1804 23.5069C27.1409 23.573 27.104 23.6372 27.069 23.7014C26.8655 24.0813 26.6566 24.4646 26.4524 24.8394L26.3628 25.0039C25.746 26.1355 25.1085 27.3057 24.5171 28.4759C24.3078 28.89 24.1056 29.0438 23.7701 29.0438C23.7076 29.0434 23.6451 29.0388 23.5832 29.03C23.4063 29.0053 23.3495 28.9716 23.2853 28.8492C22.5428 27.455 21.7816 26.0421 21.0454 24.6758L20.5193 23.6989C20.4846 23.6347 20.4483 23.5724 20.4098 23.5082C20.3915 23.4761 20.3726 23.444 20.3533 23.4119L20.2862 23.2966L17.2408 24.3804L15.9972 21.9794L15.1162 22.294C14.8208 22.4001 14.5328 22.503 14.2475 22.6049L14.2456 22.6056L14.2439 22.6063C13.8948 22.731 13.55 22.8542 13.2013 22.9797C13.1383 23.0023 13.0731 23.0244 13.0095 23.0458L12.9942 23.051C12.7799 23.1166 12.5716 23.2006 12.3717 23.3021C11.7845 23.6135 11.2821 24.0634 10.9081 24.6129C10.5479 25.1612 10.3147 25.7831 10.2256 26.4331C10.069 27.473 9.96634 28.5363 9.86705 29.5652L9.86633 29.5725C9.83006 29.951 9.79217 30.3411 9.75236 30.7263C9.72925 30.9511 9.72026 31.1687 9.71095 31.4005C9.70677 31.5068 9.70228 31.6166 9.69618 31.7277L9.68719 31.8968H13.3984L13.2561 34.4234ZM14.7172 32.9344H32.8008C32.7819 32.7322 32.7633 32.5306 32.7456 32.3338C32.6926 31.7527 32.6425 31.2037 32.5774 30.6448C32.553 30.4374 32.5324 30.2275 32.5132 30.0223C32.4169 29.0329 32.3241 28.098 31.8457 27.2242C31.6065 26.7212 31.1999 26.3171 30.6955 26.081C30.0261 25.8013 29.323 25.5577 28.6431 25.3223C28.3962 25.2369 28.1423 25.149 27.8899 25.0594C27.8527 25.1252 27.8203 25.183 27.7898 25.2408L27.2626 26.229C26.5695 27.5275 25.8526 28.8708 25.1541 30.1947C25.1129 30.2919 25.0427 30.374 24.9532 30.4297C24.8636 30.4855 24.7589 30.5121 24.6536 30.5061H24.6311C24.3354 30.4994 24.041 30.4958 23.7559 30.4958C23.4709 30.4958 23.18 30.4994 22.901 30.5064C22.7874 30.5176 22.6732 30.4922 22.575 30.434C22.4769 30.3757 22.3999 30.2876 22.3553 30.1825C21.6654 28.8757 20.9588 27.5511 20.2722 26.264L19.7196 25.2286C19.6929 25.1785 19.6624 25.1281 19.6303 25.0758L18.951 25.3275C18.3548 25.548 17.7381 25.7769 17.1384 26.0058C16.4739 26.2641 15.9273 26.7572 15.6023 27.3917C15.3031 27.995 15.1321 28.6537 15.0999 29.3263C15.0383 30.043 14.9506 30.7681 14.8657 31.4713L14.8403 31.6818C14.8002 32.0151 14.7592 32.3565 14.7217 32.6933C14.7146 32.7735 14.7131 32.8541 14.7172 32.9344ZM36.4539 30.4477H34.074C34.0561 30.2871 34.0398 30.1266 34.0238 29.9692L34.0234 29.9653C33.9773 29.5233 33.9295 29.0656 33.8612 28.6191C33.6098 26.9731 32.8904 25.7975 31.664 25.0305L32.3382 23.74C32.5626 23.8318 32.7886 23.9207 33.0085 24.0071C33.6086 24.2307 34.1965 24.4859 34.7697 24.7714C35.1565 24.9735 35.4752 25.2849 35.6863 25.6668C35.8965 26.0591 36.032 26.487 36.086 26.9288C36.2032 27.7494 36.2805 28.5918 36.3553 29.4066C36.3865 29.7478 36.4189 30.1006 36.4539 30.4477ZM13.5127 30.3077H11.1338C11.1481 30.1502 11.1622 29.9933 11.1762 29.8371L11.1766 29.8325C11.223 29.3196 11.2668 28.8346 11.3174 28.3401C11.3534 27.9935 11.3997 27.6413 11.4446 27.3002L11.4808 27.0238C11.5397 26.3934 11.7609 25.7889 12.1229 25.2694C12.5074 24.7642 13.046 24.3981 13.6571 24.2263C14.0684 24.0963 14.4642 23.9467 14.8835 23.7862C15.0302 23.7303 15.1808 23.6732 15.3329 23.6164L15.9984 24.8851C14.6722 25.6854 13.9294 26.9394 13.7284 28.7163C13.6851 29.0981 13.6317 29.472 13.5753 29.8663L13.5545 30.0129C13.5406 30.1101 13.5265 30.2087 13.5127 30.3077Z" fill="currentColor"/>
<path fill-rule="evenodd" clip-rule="evenodd" d="M2.92043 30.1655L2.95928 30.3295L4.28515 29.9453L4.24406 29.7931C3.6332 27.5711 3.37941 25.2661 3.4922 22.9643C3.61865 20.7218 4.09829 18.5133 4.91342 16.4203L5.14906 16.4226C5.2529 16.4248 5.34906 16.4248 5.44521 16.4248C5.58229 16.4248 5.6945 16.4226 5.79884 16.4178C6.45129 16.383 7.07379 16.1329 7.5689 15.7066C8.06402 15.2802 8.40379 14.7017 8.53503 14.0617C8.64378 13.4446 8.56255 12.8091 8.30211 12.2392C8.04167 11.6693 7.6143 11.1919 7.07656 10.8703C6.62281 10.6222 6.11371 10.4929 5.59659 10.4943C5.1182 10.4891 4.64523 10.596 4.21565 10.8066C3.78607 11.0171 3.41184 11.3255 3.123 11.7069C2.6923 12.2878 2.49421 13.0087 2.56761 13.7281C2.65339 14.4619 2.99699 15.1414 3.53714 15.6454C3.62222 15.7263 3.62671 15.7481 3.58177 15.8601C2.78957 17.8121 2.28541 19.8689 2.0851 21.9659C1.89788 24.0653 2.02611 26.1808 2.46552 28.2422C2.55598 28.6726 2.66295 29.109 2.76649 29.5314L2.78655 29.6133C2.83086 29.7942 2.87644 29.9804 2.92043 30.1655ZM5.6303 11.8411H5.64474C5.85186 11.8407 6.05698 11.8816 6.24813 11.9614C6.43928 12.0412 6.61264 12.1582 6.75809 12.3056C6.91146 12.4601 7.03256 12.6435 7.11436 12.8453C7.19615 13.047 7.23699 13.263 7.23451 13.4806C7.22011 13.887 7.0472 14.2716 6.75277 14.5521C6.45835 14.8326 6.06581 14.9867 5.65919 14.9815H5.64314C5.21914 14.9776 4.81284 14.811 4.50827 14.516C4.35849 14.3759 4.2386 14.2071 4.15584 14.0195C4.07308 13.8319 4.02916 13.6295 4.02672 13.4244C4.02731 13.2176 4.06935 13.0129 4.15035 12.8226C4.23135 12.6323 4.34967 12.4601 4.49832 12.3162C4.79885 12.0157 5.2053 11.8451 5.6303 11.8411Z" fill="currentColor"/>
<path fill-rule="evenodd" clip-rule="evenodd" d="M41.5192 37.7127C41.5815 37.7163 41.6457 37.7179 41.7099 37.7179C42.2853 37.7227 42.8509 37.5681 43.344 37.2713C43.8321 36.967 44.2234 36.5299 44.4721 36.0112C44.7193 35.4413 44.7999 34.8129 44.7045 34.199C44.65 33.5648 44.3556 32.9753 43.8814 32.5508C43.8216 32.5036 43.8091 32.4924 43.8592 32.3639C43.8988 32.2612 43.9386 32.1584 43.9786 32.0554C44.1738 31.5533 44.3754 31.0342 44.5408 30.5106C45.0162 29.0075 45.3242 27.4565 45.4593 25.8858C45.5898 24.3157 45.5521 22.7363 45.3469 21.1742C45.2679 20.5643 45.1472 19.9748 45.0188 19.3508C44.9613 19.0721 44.9022 18.7848 44.8477 18.4958L44.8156 18.3263L43.3619 18.7116L43.4001 18.8647C43.9493 21.0293 44.1476 23.268 43.9876 25.4954C43.8133 27.6744 43.2893 29.8112 42.4357 31.8236C42.3275 31.8217 42.2197 31.8175 42.1147 31.813L42.1048 31.8126C41.9731 31.8073 41.8372 31.8018 41.7054 31.8018C41.5402 31.7999 41.3751 31.8119 41.2119 31.8378C40.4952 31.956 39.8489 32.3386 39.4003 32.91C39.072 33.3354 38.8645 33.8416 38.7997 34.375C38.7349 34.9085 38.8152 35.4496 39.0321 35.9412C39.249 36.4329 39.5945 36.857 40.0322 37.1687C40.4699 37.4805 40.9836 37.6684 41.5192 37.7127ZM41.8723 33.1232H41.8787C42.0862 33.124 42.292 33.1664 42.4828 33.2478C42.6736 33.3293 42.8461 33.4481 42.9902 33.5974C43.1439 33.7525 43.265 33.9368 43.3463 34.1395C43.4276 34.3422 43.4674 34.5591 43.4634 34.7775C43.4588 34.9834 43.413 35.1863 43.3287 35.3742C43.2443 35.562 43.1231 35.7311 42.9722 35.8713C42.6637 36.1667 42.2529 36.3315 41.8258 36.3313H41.8219C41.4058 36.3306 41.0071 36.1648 40.7132 35.8703C40.4193 35.5757 40.2544 35.1766 40.2546 34.7605C40.2532 34.3292 40.4226 33.9149 40.7257 33.6081C41.0289 33.3013 41.4411 33.127 41.8723 33.1232Z" fill="currentColor"/>
<path fill-rule="evenodd" clip-rule="evenodd" d="M17.8476 44.8506L18.0004 44.8917L18.3722 43.58L18.2194 43.5353C16.1188 42.9286 14.1277 41.9928 12.32 40.7629C10.5644 39.5489 8.99926 38.0805 7.67592 36.4058C7.96148 36.0749 8.17784 35.6901 8.31221 35.2741C8.48365 34.7024 8.48317 34.0929 8.31084 33.5215C8.13851 32.95 7.80194 32.4419 7.34301 32.0602C6.7988 31.6076 6.11404 31.3584 5.4062 31.3556C5.24574 31.3556 5.08555 31.3687 4.92721 31.3947C4.54707 31.4506 4.18196 31.582 3.85337 31.7811C3.52477 31.9802 3.23935 32.2431 3.0139 32.5543C2.78845 32.8654 2.62754 33.2185 2.54064 33.5927C2.45373 33.967 2.4426 34.3549 2.50789 34.7335C2.61857 35.4628 2.98456 36.1292 3.54066 36.6138C4.07736 37.0836 4.76547 37.3442 5.47875 37.3477C5.75466 37.3476 6.02914 37.308 6.29386 37.2302C6.34579 37.2134 6.39983 37.204 6.45438 37.2023C6.53464 37.2023 6.59692 37.2296 6.71506 37.3792C7.73826 38.6779 8.90179 39.8596 10.1845 40.9029C11.4715 41.9422 12.874 42.8299 14.3641 43.5485C15.4815 44.0916 16.6479 44.5275 17.8476 44.8506ZM5.49191 32.8326H5.49577C5.70791 32.8314 5.91815 32.8728 6.11402 32.9543C6.30989 33.0358 6.48741 33.1558 6.63609 33.3072C6.77732 33.4484 6.88881 33.6165 6.96396 33.8015C7.03912 33.9866 7.07642 34.1848 7.07366 34.3845C7.07193 34.8042 6.91439 35.2083 6.63159 35.5184C6.50148 35.6618 6.34293 35.7765 6.16606 35.8552C5.98919 35.9339 5.79787 35.9749 5.60428 35.9756H5.59786C5.13706 35.9727 4.69602 35.7881 4.37054 35.4619C4.22552 35.3195 4.11023 35.1496 4.03137 34.9623C3.95251 34.7749 3.91164 34.5737 3.91113 34.3704C3.92474 33.9595 4.09697 33.5698 4.3917 33.2831C4.68643 32.9963 5.08074 32.8349 5.49191 32.8326Z" fill="currentColor"/>
<path fill-rule="evenodd" clip-rule="evenodd" d="M23.4407 47.9788C23.5546 47.9937 23.6693 48.0012 23.7842 48.0013C24.308 47.9962 24.82 47.8448 25.2622 47.564C25.6275 47.3419 25.94 47.0428 26.178 46.6877C26.416 46.3325 26.5738 45.9298 26.6405 45.5075C28.9753 45.19 31.2433 44.4961 33.3562 43.4528C35.4907 42.3771 37.4422 40.9715 39.1387 39.2877L39.2556 39.1731L38.2902 38.229L38.1778 38.3387C36.6006 39.8935 34.788 41.1897 32.8069 42.1796C30.8589 43.1343 28.7733 43.7778 26.626 44.0869C26.4021 43.4458 25.9826 42.8912 25.4266 42.5013C24.9367 42.1683 24.3576 41.9914 23.7653 41.9937C23.5351 41.9933 23.3057 42.0208 23.0821 42.0756C22.4124 42.2415 21.8186 42.6294 21.3976 43.1761C20.9815 43.7141 20.7703 44.3825 20.8018 45.0619C20.8361 45.7842 21.117 46.4729 21.5976 47.0131C22.0772 47.5445 22.7309 47.8869 23.4407 47.9788ZM23.78 43.4798H23.789C24.2093 43.4828 24.6116 43.6522 24.9069 43.9514C25.0571 44.0943 25.177 44.266 25.2593 44.4563C25.3417 44.6466 25.3848 44.8515 25.386 45.0588C25.3873 45.2662 25.3467 45.4716 25.2667 45.6629C25.1867 45.8542 25.0689 46.0274 24.9203 46.172C24.6228 46.4738 24.2179 46.6456 23.7941 46.65H23.7861C23.5688 46.6553 23.353 46.613 23.1538 46.5261C22.9546 46.4391 22.7768 46.3096 22.633 46.1467C22.3699 45.8427 22.2204 45.457 22.2098 45.0551C22.2069 44.8553 22.2442 44.6569 22.3195 44.4718C22.3948 44.2866 22.5065 44.1185 22.6481 43.9774C22.7945 43.8238 22.9699 43.7007 23.1642 43.6152C23.3585 43.5298 23.5678 43.4838 23.78 43.4798Z" fill="currentColor"/>
</svg>
