<svg xmlns="http://www.w3.org/2000/svg" width="48" height="48" viewBox="0 0 48 48">
  <path id="Union_5" data-name="Union 5" d="M9372.455,13385.618a3.468,3.468,0,0,1-1.148-1.717,11.775,11.775,0,0,1-11.572-10.8h-2.926a3.812,3.812,0,0,1-3.8-3.813v-6.976a3.813,3.813,0,0,1,3.8-3.815h2.886v-2.76a17.312,17.312,0,1,1,34.624,0v2.76h2.887a3.813,3.813,0,0,1,3.8,3.815v6.976a3.813,3.813,0,0,1-3.8,3.813h-3.854a.972.972,0,0,1-.97-.973v-16.392a15.373,15.373,0,1,0-30.746,0v16.39a9.828,9.828,0,0,0,9.672,9.831,3.442,3.442,0,1,1,1.148,3.662Zm.652-2.687a1.492,1.492,0,1,0,1.492-1.5A1.5,1.5,0,0,0,9373.107,13382.931Zm21.211-11.776h2.887a1.869,1.869,0,0,0,1.864-1.868v-6.976a1.869,1.869,0,0,0-1.864-1.868h-2.887Zm-39.373-8.844v6.976a1.868,1.868,0,0,0,1.863,1.868h2.886v-10.712h-2.886A1.868,1.868,0,0,0,9354.945,13362.311Z" transform="translate(-9353.008 -13338.374)" fill="currentColor"/>
</svg>
