<svg width="48" height="48" viewBox="0 0 48 48" fill="none" xmlns="http://www.w3.org/2000/svg">
<path d="M23.8532 23.4477C23.7272 23.4478 23.6022 23.4256 23.4839 23.3822H23.4272L23.2807 23.308L23.2159 23.2769C22.0948 22.7741 21.0367 22.1411 20.0636 21.391C19.3012 20.8068 18.6181 20.1259 18.0315 19.3655C17.3817 18.5266 16.9156 17.5605 16.6635 16.5297V16.5272C16.3481 15.2847 16.5151 13.9689 17.1309 12.8446C17.6539 11.9125 18.4718 11.1806 19.4559 10.7639C19.8749 10.5809 20.3272 10.4865 20.7844 10.4865C21.4874 10.4983 22.1751 10.6943 22.7787 11.0549C23.1713 11.2806 23.5371 11.5497 23.8694 11.8573C24.8609 10.9911 25.95 10.5214 26.9915 10.5214C27.4168 10.5211 27.8385 10.6007 28.2345 10.7561L28.2488 10.762C29.2354 11.1787 30.0551 11.9119 30.5788 12.8461C31.1945 13.97 31.3615 15.2855 31.0462 16.5276V16.5297C30.7765 17.6245 30.2681 18.646 29.5573 19.5213C28.922 20.3103 28.1862 21.0127 27.3685 21.6107C26.4683 22.2826 25.4941 22.8492 24.4649 23.2993C24.2813 23.4111 24.0675 23.463 23.8532 23.4477ZM23.8151 22.0105C23.8323 22.0151 23.8482 22.0201 23.8631 22.0251L23.8793 22.0195C24.8401 21.6038 25.7474 21.0743 26.582 20.4424C27.2899 19.92 27.9266 19.3075 28.476 18.6204C29.0471 17.9134 29.457 17.0903 29.677 16.2085C29.911 15.3071 29.7955 14.3505 29.3535 13.5307C28.9821 12.8737 28.406 12.3561 27.7132 12.0568C27.4821 11.967 27.2363 11.9211 26.9883 11.9212C26.1619 11.9212 25.2046 12.4317 24.3623 13.3219L23.8382 13.876L23.3303 13.3073C22.5241 12.4036 21.5958 11.887 20.7837 11.887C20.5175 11.8871 20.2543 11.9425 20.0106 12.0496L20.0006 12.054C19.3047 12.3524 18.7258 12.8708 18.3528 13.5298C17.9107 14.3503 17.7952 15.3076 18.0297 16.2097C18.2377 17.0496 18.6199 17.8364 19.1515 18.5191C19.6645 19.1825 20.2616 19.7763 20.9277 20.2857C21.8137 20.9685 22.777 21.5447 23.7977 22.0024L23.8151 22.0105Z" fill="#6CB8BC"/>
<path fill-rule="evenodd" clip-rule="evenodd" d="M12.1706 29.627H12.7845C13.6503 29.628 14.4804 29.9724 15.0926 30.5846C15.7049 31.1969 16.0493 32.027 16.0503 32.8928V41.1538H8.90487V32.8928C8.90586 32.027 9.25024 31.1969 9.86248 30.5846C10.4747 29.9724 11.3048 29.628 12.1706 29.627ZM14.648 39.7515V32.8928C14.6474 32.3987 14.4509 31.9251 14.1015 31.5757C13.7522 31.2264 13.2786 31.0299 12.7845 31.0293H12.1706C11.6766 31.0299 11.2029 31.2264 10.8536 31.5757C10.5042 31.9251 10.3077 32.3987 10.3071 32.8928V39.7515H14.648Z" fill="#2E2356"/>
<path fill-rule="evenodd" clip-rule="evenodd" d="M31.7184 41.1569H38.8638V32.8959C38.8628 32.0301 38.5184 31.2 37.9062 30.5878C37.2939 29.9755 36.4639 29.6311 35.598 29.6302H34.9841C34.1183 29.6311 33.2882 29.9755 32.676 30.5878C32.0638 31.2 31.7194 32.0301 31.7184 32.8959V41.1569ZM37.4615 39.7546H33.1207V32.8959C33.1212 32.4019 33.3178 31.9282 33.6671 31.5789C34.0164 31.2295 34.4901 31.033 34.9841 31.0324H35.598C36.0921 31.033 36.5657 31.2295 36.9151 31.5789C37.2644 31.9282 37.4609 32.4019 37.4615 32.8959V39.7546Z" fill="#2E2356"/>
<path fill-rule="evenodd" clip-rule="evenodd" d="M46.6486 17.9822C46.7673 18.0672 46.9096 18.1129 47.0556 18.1128C47.2042 18.1129 47.349 18.0659 47.4691 17.9783C47.5893 17.8908 47.6785 17.7674 47.7239 17.6259C47.7693 17.4844 47.7686 17.3321 47.7218 17.1911C47.6751 17.05 47.5847 16.9274 47.4638 16.8411L23.8843 0L14.891 6.42331V4.25514C14.8904 3.67599 14.66 3.12075 14.2505 2.71124C13.841 2.30172 13.2857 2.07136 12.7066 2.0707H10.6499C10.0708 2.07136 9.51554 2.30172 9.10602 2.71124C8.6965 3.12075 8.46615 3.67599 8.46549 4.25514V10.6932C8.46549 10.7898 8.48545 10.8845 8.52311 10.9715L0.30516 16.8411C0.155628 16.9498 0.0551083 17.1132 0.025481 17.2957C-0.00414637 17.4782 0.0395175 17.6651 0.146968 17.8155C0.254418 17.966 0.416956 18.0679 0.5992 18.0992C0.781444 18.1304 0.96864 18.0883 1.12004 17.9822L4.47678 15.5847V45.8156C4.47744 46.3947 4.7078 46.9499 5.11732 47.3595C5.52684 47.769 6.08207 47.9993 6.66122 48H41.1136C41.6928 47.9993 42.248 47.769 42.6576 47.3595C43.0671 46.9499 43.2974 46.3947 43.2981 45.8156V15.5892L46.6486 17.9822ZM9.86777 10.0111L13.4891 7.42462C13.4889 7.41725 13.4888 7.40987 13.4888 7.40247V4.25514C13.4885 4.04777 13.406 3.84897 13.2594 3.70234C13.1128 3.55571 12.914 3.47323 12.7066 3.47298H10.6499C10.4426 3.47323 10.2438 3.55571 10.0971 3.70234C9.9505 3.84897 9.86801 4.04777 9.86777 4.25514V10.0111ZM5.87906 14.7535C5.87906 14.7001 5.87296 14.6472 5.86113 14.596L23.8843 1.72324L41.9129 14.5998C41.9016 14.6499 41.8958 14.7014 41.8958 14.7535V45.8156C41.8956 46.0229 41.8131 46.2217 41.6664 46.3684C41.5198 46.515 41.321 46.5975 41.1136 46.5977H29.0541V30.6149C29.0534 30.0357 28.823 29.4805 28.4135 29.071C28.004 28.6614 27.4488 28.4311 26.8696 28.4304H24.1798L24.1772 28.4304H20.899C20.3199 28.4311 19.7646 28.6614 19.3551 29.071C18.9456 29.4805 18.7152 30.0357 18.7146 30.6149V46.5977H6.66122C6.45386 46.5975 6.25505 46.515 6.10842 46.3684C5.96179 46.2217 5.87931 46.0229 5.87906 45.8156V14.7535ZM27.6518 30.6149V46.5977H20.1169V30.6149C20.1171 30.4075 20.1996 30.2087 20.3462 30.0621C20.4929 29.9154 20.6917 29.8329 20.899 29.8327H23.5888L23.5914 29.8327H26.8696C27.077 29.8329 27.2758 29.9154 27.4224 30.0621C27.569 30.2087 27.6515 30.4075 27.6518 30.6149Z" fill="#2E2356"/>
</svg>
