<svg width="49" height="48" viewBox="0 0 49 48" fill="none" xmlns="http://www.w3.org/2000/svg">
<path fill-rule="evenodd" clip-rule="evenodd" d="M23.5374 36.3825C21.481 35.09 19.5198 33.7349 17.7033 32.3481C17.6194 32.2834 17.5532 32.2 17.5092 32.1058C16.5754 31.3817 15.6588 30.635 14.7604 29.8663C12.4299 27.876 10.3012 25.6608 8.40532 23.2528C7.87142 22.577 7.36904 21.878 6.89954 21.158C6.89125 21.1499 6.88317 21.1416 6.8753 21.1331C6.81611 21.0689 6.77032 20.9936 6.74061 20.9115C5.93969 19.655 5.23806 18.3363 4.64283 16.9671C3.85039 15.152 3.37802 13.2135 3.24663 11.2373C3.13088 9.48926 3.42397 7.7383 4.10267 6.12324C4.75252 4.61611 5.77422 3.29856 7.07212 2.29396C9.35965 0.508382 11.7096 -0.240907 14.0575 0.0673835C14.9653 0.190856 15.8473 0.459714 16.6697 0.863631C17.3648 1.20411 18.0202 1.62042 18.6238 2.10496C19.2274 2.57835 19.7765 3.11718 20.2612 3.71153C20.5362 3.58502 20.8377 3.51755 21.1461 3.51721C21.5655 3.51721 21.9755 3.64157 22.3242 3.87456C22.6729 4.10755 22.9447 4.43872 23.1051 4.82617C23.2656 5.21363 23.3076 5.63997 23.2258 6.05129C23.144 6.46261 22.942 6.84043 22.6455 7.13697C22.3489 7.43352 21.9711 7.63547 21.5598 7.71728C21.1485 7.7991 20.7221 7.75711 20.3347 7.59662C19.9472 7.43613 19.6161 7.16435 19.3831 6.81565C19.1501 6.46695 19.0257 6.05699 19.0257 5.63762C19.0261 5.27232 19.1207 4.91681 19.2959 4.60355C19.2847 4.59092 19.274 4.57783 19.2637 4.56428C18.8232 4.02372 18.3231 3.53453 17.773 3.10596C17.2463 2.68639 16.6749 2.32624 16.0691 2.03204C15.3778 1.69497 14.6371 1.47066 13.8749 1.36763C11.8916 1.11096 9.87531 1.771 7.87945 3.32908C6.75494 4.19894 5.86961 5.33997 5.30637 6.64532C4.70888 8.07413 4.45215 9.6224 4.5565 11.1676C4.68045 12.9922 5.11897 14.7817 5.85266 16.457C6.26868 17.4127 6.73905 18.3426 7.26112 19.2423C7.59579 18.4174 7.91846 17.5519 8.23381 16.7057C8.6821 15.5032 9.14584 14.2595 9.64168 13.1366C9.96068 12.3685 10.1934 11.5674 10.3355 10.7479C10.5006 9.7924 10.783 8.86096 11.1764 7.97473V7.97298C11.2247 7.87069 11.3067 7.67121 11.3946 7.45755L11.403 7.4369C11.7822 6.51407 12.0721 5.83653 12.3606 5.51949C12.8564 4.97845 13.305 4.94258 13.5952 5.00762C13.8485 5.06799 14.0712 5.21828 14.222 5.43053C14.3478 5.60485 14.4435 5.79908 14.5049 6.00511C14.5679 6.12732 14.8257 6.5027 15.0007 6.75382L15.1241 6.93319C15.2018 6.86496 15.2805 6.79245 15.3563 6.72267L15.3738 6.70657C15.7061 6.35048 16.1094 6.068 16.5577 5.87737C16.7426 5.80276 16.9434 5.77592 17.1415 5.79932C17.3396 5.82271 17.5286 5.89559 17.6911 6.01124C17.8522 6.14325 17.9771 6.31408 18.0541 6.50766C18.131 6.70124 18.1574 6.91121 18.1309 7.11782C18.0975 7.45232 18.0305 7.78261 17.9308 8.10365C17.8611 8.33267 17.8091 8.56669 17.7751 8.80365V8.81181C17.7882 8.81386 17.8042 8.81561 17.8194 8.81736H17.8211C19.4446 8.9944 20.657 9.69818 21.425 10.9092V10.9112C21.5402 11.0941 21.6391 11.279 21.7347 11.4581C21.8579 11.7107 22.0056 11.9507 22.1757 12.1744C22.4677 12.5388 22.8224 12.848 23.2231 13.0876H23.2248C23.5329 13.2479 23.8018 13.4742 24.0123 13.7503C24.2474 14.072 24.3516 14.4709 24.304 14.8665C24.212 15.607 24.0693 16.3403 23.877 17.0613C23.7328 17.7186 23.3659 18.3059 22.8384 18.7238C22.3225 19.1011 21.7153 19.3338 21.0793 19.3978C20.5377 19.4695 19.9843 19.5562 19.4453 19.6406C19.394 19.6487 19.3428 19.6567 19.2917 19.6647C19.0176 19.7079 18.7338 19.7522 18.4535 19.7954C18.3003 19.8189 18.2575 19.8694 18.241 19.8888C18.1811 19.9793 18.146 20.0842 18.1396 20.1926C18.053 20.8 18.1633 21.4191 18.4544 21.9592C18.7889 22.522 19.188 23.0438 19.6438 23.5138L19.6532 23.5244C19.834 23.7279 20.0209 23.9382 20.2055 24.1584C21.0872 25.2122 21.4139 26.725 21.1254 28.415C20.9118 29.7267 20.3508 30.9545 19.5041 31.9724C21.0408 33.1139 22.6228 34.1944 24.2463 35.211C27.2742 33.3149 30.1575 31.1968 32.8726 28.874C35.1375 26.9406 37.2064 24.7887 39.0492 22.4495C40.4995 20.6155 41.7064 18.6016 42.6399 16.4578C43.3738 14.7824 43.8126 12.9926 43.9366 11.1676C44.0412 9.62182 43.7845 8.07292 43.1867 6.64357C42.6235 5.33822 41.7382 4.19719 40.6137 3.32733C38.6178 1.76925 36.6006 1.11067 34.6182 1.36588C33.8559 1.46888 33.1151 1.69319 32.4237 2.03029C31.8179 2.32448 31.2465 2.68463 30.7198 3.10421C30.2276 3.48764 29.7755 3.91959 29.3702 4.39345C29.467 4.52704 29.5484 4.67216 29.6122 4.82617C29.7727 5.21363 29.8147 5.63997 29.7329 6.05129C29.6511 6.46261 29.4491 6.84043 29.1526 7.13697C28.856 7.43352 28.4782 7.63547 28.0669 7.71728C27.6556 7.7991 27.2292 7.75711 26.8418 7.59662C26.4543 7.43613 26.1232 7.16435 25.8902 6.81565C25.6572 6.46695 25.5328 6.05699 25.5328 5.63762C25.5334 5.07544 25.757 4.53646 26.1545 4.13894C26.5521 3.74142 27.091 3.51782 27.6532 3.51721C27.8759 3.51721 28.096 3.55228 28.3056 3.62006C28.7719 3.06111 29.2959 2.55266 29.869 2.10321C30.4726 1.61867 31.128 1.20236 31.8231 0.861882C32.6455 0.457964 33.5275 0.189107 34.4353 0.0656348C36.7829 -0.242364 39.1332 0.506633 41.4207 2.29221C42.7188 3.29674 43.7407 4.6143 44.3907 6.12149C45.0696 7.7371 45.3626 9.4887 45.2465 11.2373C45.1148 13.2134 44.6421 15.1518 43.8494 16.9668C42.8718 19.2156 41.6071 21.3284 40.0869 23.2525C38.191 25.6605 36.0624 27.8757 33.7318 29.866C30.9394 32.2554 27.9721 34.4322 24.8549 36.3782L24.85 36.3856C24.8573 37.1829 24.8867 37.9954 24.9153 38.7851L24.9162 38.8108C25.0092 40.4971 25.0063 42.1873 24.9075 43.8732C24.8595 44.5761 24.6885 45.265 24.4023 45.9088C24.1065 46.5909 23.6095 47.1664 22.9778 47.5584C22.4819 47.8517 21.9156 48.0043 21.3395 48C21.0421 47.9993 20.746 47.9624 20.4575 47.8901C19.6134 47.6832 18.868 47.188 18.3502 46.4901C17.8652 45.8017 17.606 44.9796 17.6085 44.1375C17.6026 43.3072 17.8158 42.4901 18.2266 41.7686C18.4203 41.4471 18.6334 41.1377 18.8644 40.8419C19.292 40.272 19.696 39.7336 19.7263 39.1293C19.7126 38.6587 19.513 38.2127 19.1712 37.889C18.8293 37.5653 18.3731 37.3903 17.9025 37.4023C17.3944 37.4839 16.9074 37.6625 16.468 37.9278C16.562 38.2797 16.6107 38.6453 16.6107 39.0158C16.6107 40.1344 16.1664 41.2071 15.3755 41.998C14.5845 42.789 13.5118 43.2333 12.3933 43.2333C11.2747 43.2333 10.202 42.789 9.41105 41.998C8.62012 41.2071 8.17578 40.1344 8.17578 39.0158C8.17578 37.8973 8.62012 36.8246 9.41105 36.0336C10.202 35.2427 11.2747 34.7983 12.3933 34.7983C13.5118 34.7983 14.5845 35.2427 15.3755 36.0336C15.5862 36.2444 15.7724 36.4752 15.9321 36.7215C16.5051 36.3963 17.136 36.183 17.7911 36.0942C18.1846 36.0586 18.5812 36.1084 18.9537 36.24C19.3593 36.3912 19.7316 36.6199 20.0498 36.9135C20.3719 37.1976 20.6274 37.5492 20.7983 37.9432C20.9691 38.3373 21.051 38.7642 21.0382 39.1935C20.9878 40.1997 20.4181 40.9592 19.9153 41.6292C19.7164 41.8829 19.5325 42.1481 19.3646 42.4234C19.0701 42.9414 18.9174 43.5279 18.9219 44.1238C18.9173 44.695 19.09 45.2535 19.4163 45.7224C19.7512 46.1694 20.2317 46.4855 20.7748 46.6161C21.2886 46.7599 21.8384 46.6939 22.3035 46.4326C22.6462 46.2284 23.4596 45.5559 23.599 43.7711C23.6933 42.135 23.6951 40.4949 23.6046 38.8586L23.6045 38.8569L23.6045 38.8566C23.575 38.0452 23.5447 37.2099 23.5374 36.3825ZM18.4606 31.1824C18.7812 30.8167 19.05 30.4081 19.2591 29.9681C19.5322 29.4073 19.725 28.8108 19.8316 28.1962C19.9378 27.6112 19.9407 27.0121 19.8403 26.4261C19.753 25.9042 19.5319 25.4138 19.1987 25.0028C19.0304 24.8017 18.854 24.6033 18.6831 24.4109L18.6626 24.3879C18.1352 23.8405 17.6755 23.2316 17.2935 22.5743C16.8776 21.7969 16.7183 20.9078 16.8382 20.0342C16.8719 19.6726 17.011 19.3289 17.2381 19.0455C17.4978 18.7433 17.8609 18.5487 18.2563 18.4998C18.423 18.4744 18.5914 18.4479 18.7584 18.4216C18.8693 18.4042 18.9796 18.3869 19.0884 18.37C19.6834 18.2761 20.2988 18.1789 20.9093 18.0982C21.8832 17.9707 22.4055 17.5545 22.6042 16.7486C22.7815 16.0854 22.9139 15.411 23.0003 14.73C23.0108 14.6317 23.0265 14.4821 22.5855 14.2342C22.0459 13.9176 21.5677 13.5064 21.1738 13.0203L21.1721 13.0182C20.9418 12.7264 20.7428 12.4112 20.5783 12.0779C20.4908 11.9119 20.4056 11.7553 20.3158 11.6112C19.7645 10.7432 18.9024 10.2561 17.6797 10.1237C17.3244 10.1082 16.9894 9.95405 16.7464 9.69439C16.639 9.56224 16.5589 9.41018 16.5106 9.24696C16.4622 9.08373 16.4466 8.91255 16.4646 8.74327C16.4978 8.41067 16.5643 8.08225 16.6632 7.76298L16.6634 7.76226C16.7112 7.58392 16.7674 7.37427 16.798 7.21553C16.6107 7.35599 16.4324 7.50795 16.2639 7.67053C15.9561 7.9896 15.5969 8.2548 15.2014 8.45511L14.6825 8.67502L14.3868 8.19552C14.2751 8.01411 14.0951 7.75161 13.9201 7.49786C13.6747 7.1789 13.4606 6.83704 13.2808 6.47703C13.1867 6.63727 13.102 6.80283 13.027 6.97286C12.8865 7.2794 12.7438 7.62707 12.6187 7.93332L12.6183 7.9343C12.5126 8.19166 12.429 8.3952 12.3647 8.53181C12.0158 9.3258 11.766 10.1597 11.6209 11.0148C11.4607 11.9244 11.1998 12.8135 10.843 13.6654C10.3632 14.7499 9.90851 15.9685 9.46859 17.1474L9.4623 17.1642C9.03126 18.321 8.58551 19.5135 8.10947 20.6092C8.52778 21.2405 8.97275 21.8546 9.44336 22.4498C11.2862 24.789 13.355 26.9409 15.62 28.8743C16.5475 29.6678 17.4947 30.4374 18.4606 31.1824ZM12.3933 41.9208C12.9678 41.9208 13.5295 41.7504 14.0072 41.4312C14.4849 41.112 14.8573 40.6583 15.0771 40.1275C15.297 39.5967 15.3545 39.0126 15.2424 38.4491C15.1303 37.8856 14.8537 37.368 14.4474 36.9617C14.0411 36.5554 13.5235 36.2787 12.96 36.1667C12.3965 36.0546 11.8124 36.1121 11.2816 36.332C10.7508 36.5518 10.2971 36.9242 9.97785 37.4019C9.65865 37.8796 9.48827 38.4413 9.48827 39.0158C9.48912 39.786 9.79546 40.5244 10.3401 41.069C10.8847 41.6136 11.6231 41.92 12.3933 41.9208ZM28.1021 6.30937C27.9692 6.39815 27.813 6.44553 27.6532 6.44553C27.439 6.4453 27.2337 6.3601 27.0822 6.20864C26.9307 6.05718 26.8455 5.85182 26.8453 5.63762C26.8453 5.47783 26.8927 5.32162 26.9815 5.18876C27.0702 5.0559 27.1964 4.95235 27.344 4.8912C27.4917 4.83005 27.6541 4.81405 27.8108 4.84523C27.9675 4.8764 28.1115 4.95335 28.2245 5.06633C28.3375 5.17932 28.4144 5.32328 28.4456 5.48C28.4768 5.63672 28.4608 5.79916 28.3996 5.94679C28.3385 6.09442 28.2349 6.2206 28.1021 6.30937ZM21.1461 6.44553C21.3059 6.44553 21.4621 6.39815 21.595 6.30937C21.7278 6.2206 21.8314 6.09442 21.8926 5.94679C21.9537 5.79916 21.9697 5.63672 21.9385 5.48C21.9074 5.32328 21.8304 5.17932 21.7174 5.06633C21.6044 4.95335 21.4605 4.8764 21.3038 4.84523C21.147 4.81405 20.9846 4.83005 20.837 4.8912C20.6893 4.95235 20.5632 5.0559 20.4744 5.18876C20.3856 5.32162 20.3382 5.47783 20.3382 5.63762C20.3385 5.85182 20.4236 6.05718 20.5751 6.20864C20.7266 6.3601 20.9319 6.4453 21.1461 6.44553Z" fill="#2E2356"/>
<path d="M32.2061 9.71509H34.904C35.1693 9.7154 35.4235 9.8209 35.6111 10.0084C35.7986 10.196 35.9041 10.4503 35.9044 10.7155V13.1684H38.3573C38.6226 13.1687 38.8769 13.2742 39.0644 13.4618C39.252 13.6493 39.3574 13.9036 39.3578 14.1688V16.8667C39.3574 17.132 39.252 17.3862 39.0644 17.5738C38.8769 17.7613 38.6226 17.8668 38.3573 17.8671H35.9044V20.32C35.9041 20.5853 35.7986 20.8396 35.6111 21.0271C35.4235 21.2147 35.1693 21.3202 34.904 21.3205H32.2061C31.9409 21.3202 31.6866 21.2147 31.4991 21.0271C31.3115 20.8396 31.206 20.5853 31.2057 20.32V17.8671H28.7528C28.4876 17.8668 28.2333 17.7613 28.0457 17.5738C27.8582 17.3862 27.7527 17.132 27.7524 16.8667V14.1688C27.7527 13.9036 27.8582 13.6493 28.0457 13.4618C28.2333 13.2742 28.4876 13.1687 28.7528 13.1684H31.2057V10.7155C31.206 10.4503 31.3115 10.196 31.4991 10.0084C31.6866 9.8209 31.9409 9.7154 32.2061 9.71509ZM34.5919 11.0276H32.5182V13.8247C32.5182 13.9987 32.4491 14.1656 32.326 14.2887C32.2029 14.4118 32.036 14.4809 31.862 14.4809H29.0649V16.5546H31.862C32.036 16.5546 32.2029 16.6238 32.326 16.7469C32.4491 16.8699 32.5182 17.0368 32.5182 17.2109V20.008H34.5919V17.2109C34.5919 17.0368 34.6611 16.8699 34.7842 16.7469C34.9072 16.6238 35.0741 16.5546 35.2482 16.5546H38.0453V14.4809H35.2482C35.0741 14.4809 34.9072 14.4118 34.7842 14.2887C34.6611 14.1656 34.5919 13.9987 34.5919 13.8247V11.0276Z" fill="#6CB8BC"/>
</svg>
