<svg width="49" height="48" viewBox="0 0 49 48" fill="none" xmlns="http://www.w3.org/2000/svg">
<path d="M5.09783 9.70874C5.71267 9.70939 6.3174 9.86518 6.85603 10.1617C7.39118 10.4571 7.85922 10.8603 8.2306 11.3458C9.03208 12.4129 9.45681 13.7158 9.4382 15.0502C9.45681 16.3846 9.03208 17.6875 8.2306 18.7546C7.85909 19.24 7.39092 19.6431 6.85568 19.9384C6.31732 20.2355 5.71241 20.3914 5.09748 20.3914C4.48254 20.3914 3.87764 20.2355 3.33928 19.9384C2.80429 19.643 2.33637 19.2399 1.96506 18.7546C1.16358 17.6875 0.738846 16.3846 0.757453 15.0502C0.738846 13.7158 1.16358 12.4129 1.96506 11.3458C2.33643 10.8603 2.80448 10.4571 3.33963 10.1617C3.87825 9.86518 4.48299 9.70939 5.09783 9.70874ZM5.09783 18.8165C5.471 18.8019 5.83575 18.7013 6.16362 18.5224C6.49149 18.3436 6.77362 18.0915 6.98799 17.7857C7.57401 16.9956 7.88173 16.0337 7.86307 15.0502C7.88173 14.0667 7.57401 13.1048 6.98799 12.3147C6.77362 12.0089 6.49149 11.7568 6.16362 11.578C5.83575 11.3991 5.471 11.2985 5.09783 11.2839C4.72465 11.2985 4.35991 11.3991 4.03204 11.578C3.70417 11.7568 3.42204 12.0089 3.20766 12.3147C2.62165 13.1048 2.31392 14.0667 2.33259 15.0502C2.31392 16.0337 2.62165 16.9956 3.20766 17.7857C3.42204 18.0915 3.70417 18.3436 4.03204 18.5224C4.35991 18.7013 4.72465 18.8019 5.09783 18.8165Z" fill="#2E2356"/>
<path d="M14.0761 1C14.6909 1.00065 15.2957 1.15644 15.8343 1.45294C16.3694 1.74836 16.8375 2.15157 17.2089 2.63709C18.0104 3.70417 18.4351 5.00704 18.4165 6.34146C18.4351 7.67588 18.0104 8.97876 17.2089 10.0458C16.8374 10.5313 16.3692 10.9344 15.834 11.2296C15.2956 11.5268 14.6907 11.6827 14.0757 11.6827C13.4608 11.6827 12.8559 11.5268 12.3175 11.2296C11.7826 10.9343 11.3146 10.5312 10.9433 10.0458C10.1418 8.97876 9.71712 7.67588 9.73572 6.34146C9.71712 5.00704 10.1418 3.70417 10.9433 2.63709C11.3147 2.15157 11.7828 1.74836 12.3179 1.45294C12.8565 1.15644 13.4613 1.00065 14.0761 1ZM14.0761 10.1078C14.4493 10.0932 14.814 9.99252 15.1419 9.8137C15.4698 9.63489 15.7519 9.38275 15.9663 9.07695C16.5523 8.2869 16.86 7.32495 16.8413 6.34146C16.86 5.35798 16.5523 4.39602 15.9663 3.60598C15.7519 3.30017 15.4698 3.04803 15.1419 2.86922C14.814 2.69041 14.4493 2.58976 14.0761 2.57514C13.7029 2.58976 13.3382 2.69041 13.0103 2.86922C12.6824 3.04803 12.4003 3.30017 12.1859 3.60598C11.5999 4.39602 11.2922 5.35798 11.3109 6.34146C11.2922 7.32495 11.5999 8.2869 12.1859 9.07695C12.4003 9.38275 12.6824 9.63489 13.0103 9.8137C13.3382 9.99252 13.7029 10.0932 14.0761 10.1078Z" fill="#2E2356"/>
<path d="M34.2693 9.70874C34.8842 9.70939 35.4889 9.86518 36.0275 10.1617C36.5627 10.4571 37.0307 10.8603 37.4021 11.3458C38.2036 12.4129 38.6283 13.7158 38.6097 15.0502C38.6283 16.3846 38.2036 17.6875 37.4021 18.7546C37.0306 19.24 36.5624 19.6431 36.0272 19.9384C35.4888 20.2355 34.8839 20.3914 34.269 20.3914C33.6541 20.3914 33.0491 20.2355 32.5108 19.9384C31.9758 19.643 31.5079 19.2399 31.1366 18.7546C30.3351 17.6875 29.9104 16.3846 29.929 15.0502C29.9104 13.7158 30.3351 12.4129 31.1366 11.3458C31.5079 10.8603 31.976 10.4571 32.5111 10.1617C33.0498 9.86518 33.6545 9.70939 34.2693 9.70874ZM34.2693 18.8165C34.6425 18.8019 35.0073 18.7013 35.3351 18.5224C35.663 18.3436 35.9451 18.0915 36.1595 17.7857C36.7455 16.9956 37.0532 16.0337 37.0346 15.0502C37.0532 14.0667 36.7455 13.1048 36.1595 12.3147C35.9451 12.0089 35.663 11.7568 35.3351 11.578C35.0073 11.3991 34.6425 11.2985 34.2693 11.2839C33.8962 11.2985 33.5314 11.3991 33.2035 11.578C32.8757 11.7568 32.5935 12.0089 32.3792 12.3147C31.7932 13.1048 31.4854 14.0667 31.5041 15.0502C31.4854 16.0337 31.7932 16.9956 32.3792 17.7857C32.5935 18.0915 32.8757 18.3436 33.2035 18.5224C33.5314 18.7013 33.8962 18.8019 34.2693 18.8165Z" fill="#2E2356"/>
<path d="M25.2911 1C25.9059 1.00065 26.5106 1.15644 27.0493 1.45294C27.5844 1.74836 28.0525 2.15157 28.4238 2.63709C29.2253 3.70417 29.65 5.00704 29.6314 6.34146C29.65 7.67588 29.2253 8.97876 28.4238 10.0458C28.0523 10.5313 27.5842 10.9344 27.0489 11.2296C26.5106 11.5268 25.9057 11.6827 25.2907 11.6827C24.6758 11.6827 24.0709 11.5268 23.5325 11.2296C22.9975 10.9343 22.5296 10.5312 22.1583 10.0458C21.3568 8.97876 20.9321 7.67588 20.9507 6.34146C20.9321 5.00704 21.3568 3.70417 22.1583 2.63709C22.5297 2.15157 22.9977 1.74836 23.5329 1.45294C24.0715 1.15644 24.6762 1.00065 25.2911 1ZM25.2911 10.1078C25.6642 10.0932 26.029 9.99252 26.3569 9.8137C26.6847 9.63489 26.9669 9.38275 27.1812 9.07695C27.7672 8.2869 28.075 7.32495 28.0563 6.34146C28.075 5.35798 27.7672 4.39602 27.1812 3.60598C26.9669 3.30017 26.6847 3.04803 26.3569 2.86922C26.029 2.69041 25.6642 2.58976 25.2911 2.57514C24.9179 2.58976 24.5531 2.69041 24.2253 2.86922C23.8974 3.04803 23.6153 3.30017 23.4009 3.60598C22.8149 4.39602 22.5072 5.35798 22.5258 6.34146C22.5072 7.32495 22.8149 8.2869 23.4009 9.07695C23.6153 9.38275 23.8974 9.63489 24.2253 9.8137C24.5531 9.99252 24.9179 10.0932 25.2911 10.1078Z" fill="#2E2356"/>
<path d="M19.6573 14.3526L19.6969 14.3547H19.6986C22.25 14.45 24.6931 15.4107 26.6261 17.0786C27.9129 18.1436 29.0649 19.3618 30.0564 20.706C31.0814 22.0696 31.835 23.6173 32.2763 25.2651C32.664 26.8172 32.5349 28.4534 31.9084 29.9254C31.5986 30.6542 31.1655 31.3241 30.628 31.9056C30.0727 32.5057 29.4097 32.9963 28.6734 33.3519C27.7609 33.7879 26.762 34.013 25.7507 34.0107C24.8282 34.0113 23.9151 33.8255 23.0663 33.4643C22.5031 33.222 21.9434 32.9571 21.4019 32.7008C20.8317 32.431 20.244 32.1527 19.6577 31.9045C19.0717 32.1513 18.4847 32.4296 17.9149 32.7005C17.3741 32.9571 16.8147 33.2224 16.2494 33.4646C15.4004 33.8254 14.4872 34.0111 13.5647 34.0107C12.5537 34.0128 11.5552 33.7876 10.643 33.3515C9.90695 32.995 9.24413 32.5039 8.68879 31.9035C8.15152 31.322 7.71849 30.6523 7.40873 29.9237C6.78239 28.4519 6.65323 26.8159 7.04084 25.2641C7.48211 23.6166 8.23559 22.0691 9.26039 20.7057C10.2519 19.3615 11.4039 18.1435 12.6907 17.0786C14.6237 15.4107 17.0667 14.45 19.6181 14.3547L19.6573 14.3526ZM25.7479 32.4355C26.5223 32.4378 27.2874 32.2658 27.9863 31.9322C28.5459 31.6618 29.0498 31.2889 29.4718 30.8327C29.8863 30.3837 30.2202 29.8666 30.4589 29.3041C30.9504 28.1491 31.0516 26.8652 30.7473 25.6474C29.901 22.2734 27.1683 19.5863 25.6149 18.2848C23.9544 16.8453 21.8532 16.0143 19.6573 15.9288C17.4613 16.0144 15.3599 16.8455 13.6995 18.2852C12.1464 19.5877 9.4137 22.2748 8.56733 25.6481C8.26295 26.8655 8.3641 28.149 8.8554 29.3038C9.09425 29.8664 9.42828 30.3836 9.84284 30.8327C10.2651 31.2893 10.7691 31.6628 11.3287 31.9339C12.0267 32.2666 12.7905 32.438 13.5637 32.4355C14.2733 32.436 14.9757 32.2931 15.6288 32.0155C16.1672 31.7848 16.7139 31.5254 17.239 31.2759C17.9019 30.9608 18.5873 30.636 19.2891 30.3507L19.4319 30.2926H19.8845L20.028 30.3514C20.7281 30.6381 21.4127 30.9622 22.075 31.2759C22.6035 31.5261 23.1503 31.7848 23.6876 32.0158C24.3396 32.2933 25.041 32.4361 25.7496 32.4355H25.7479Z" fill="#2E2356"/>
<path d="M19.1554 47.7623C18.2144 47.7627 17.2745 47.695 16.3433 47.5596C14.4882 47.2974 12.687 46.7405 11.0077 45.9099C9.29481 45.0476 7.72609 43.9246 6.35759 42.5811C4.95919 41.2353 3.83378 39.6321 3.04315 37.8596C1.8772 35.1293 1.51457 32.0687 1.16419 29.1088C1.03853 28.0489 0.919169 27.0475 0.766206 26.059C0.750325 25.9568 0.75473 25.8525 0.77917 25.752C0.803611 25.6515 0.847606 25.5568 0.908648 25.4733C1.03193 25.3046 1.21715 25.1919 1.42356 25.1598C1.62998 25.1277 1.84068 25.1789 2.00932 25.3022C2.17796 25.4255 2.29072 25.6107 2.32279 25.8171C2.481 26.8322 2.60667 27.8963 2.72848 28.9237C3.0659 31.7719 3.41488 34.7167 4.49158 37.2397C5.20131 38.8233 6.20985 40.2552 7.46193 41.4568C8.71247 42.6848 10.146 43.7113 11.7113 44.4997C13.2407 45.2553 14.8809 45.7618 16.5701 45.9999C20.02 46.4883 23.5378 45.9958 26.721 44.5788C28.281 43.8873 29.7221 42.9541 30.9913 41.8135C33.8161 39.2544 34.5574 35.8403 35.3418 32.2258C35.5589 31.2258 35.7836 30.1915 36.0549 29.1701C36.4098 27.6441 37.2346 26.2679 38.413 25.2354C39.0812 24.6922 39.8649 24.309 40.704 24.1153C41.5328 23.9223 42.39 23.8823 43.2333 23.9973C44.1339 24.117 45.0044 24.403 45.8004 24.8409C46.6009 25.2753 47.2933 25.8845 47.826 26.6233C48.2488 27.2188 48.5356 27.8999 48.6661 28.6184C48.7903 29.309 48.7859 30.0166 48.6531 30.7057C48.4155 32.0618 47.7537 33.3075 46.763 34.2636C45.7723 35.2197 44.5039 35.8368 43.1402 36.0261C42.1558 36.1859 41.1467 36.0853 40.2132 35.7345C40.117 35.6966 40.0292 35.64 39.9549 35.5681C39.8805 35.4962 39.821 35.4104 39.7799 35.3155C39.7387 35.2206 39.7166 35.1186 39.7148 35.0152C39.7131 34.9118 39.7318 34.809 39.7697 34.7128C39.8077 34.6166 39.8642 34.5288 39.9361 34.4545C40.008 34.3801 40.0939 34.3206 40.1887 34.2795C40.2836 34.2383 40.3857 34.2162 40.4891 34.2144C40.5925 34.2127 40.6953 34.2313 40.7915 34.2693C41.4684 34.5187 42.1987 34.5871 42.9102 34.4678C43.9493 34.3264 44.9162 33.8575 45.6706 33.1291C46.4249 32.4007 46.9274 31.4507 47.105 30.4172C47.2112 29.924 47.2161 29.4143 47.1194 28.9191C47.0228 28.4239 46.8265 27.9535 46.5425 27.5365C46.1189 26.9879 45.5892 26.5302 44.985 26.1906C44.3809 25.851 43.7145 25.6365 43.0257 25.5599C42.3945 25.4554 41.7486 25.4807 41.1275 25.6344C40.5064 25.788 39.9231 26.0668 39.4134 26.4535C38.3497 27.3265 37.8281 28.6331 37.5778 29.5754C37.3157 30.5618 37.0951 31.5779 36.8816 32.5608C36.5283 34.4262 36.0249 36.26 35.3765 38.0444C35.0254 38.9509 34.582 39.8188 34.0534 40.6346C33.489 41.5007 32.8148 42.29 32.0477 42.983C30.656 44.2346 29.0756 45.2589 27.3647 46.0181C25.6454 46.7864 23.8262 47.3077 21.9609 47.5663C21.0314 47.6966 20.094 47.7621 19.1554 47.7623Z" fill="#6CB8BC"/>
</svg>
