<svg width="49" height="48" viewBox="0 0 49 48" fill="none" xmlns="http://www.w3.org/2000/svg">
<path d="M9.08779 40.1164C8.49738 40.1253 7.91335 39.9933 7.38419 39.7313H7.3814C7.18556 39.6364 7.00403 39.5144 6.84214 39.3689C6.7089 39.2493 6.60622 39.0995 6.54269 38.9321C6.47916 38.7647 6.45662 38.5845 6.47695 38.4066V38.4031C6.48332 38.3573 6.4858 38.311 6.48438 38.2647C6.3838 38.233 6.28153 38.2069 6.17804 38.1866C6.07335 38.1637 5.95471 38.138 5.83391 38.1036C5.75709 38.0855 5.67933 38.0715 5.60099 38.0618C5.33377 38.0362 5.07345 37.9621 4.83282 37.8431C4.64734 37.7411 4.49101 37.5933 4.37869 37.4139C4.26636 37.2345 4.20177 37.0293 4.19103 36.8179C4.15283 36.3549 4.28379 35.8937 4.55962 35.5198C4.83545 35.146 5.23745 34.8848 5.69112 34.7847C6.69717 34.5508 6.81085 33.9527 6.83098 32.6434C6.88298 31.1599 6.8067 29.6746 6.60301 28.2042C6.40002 26.7774 5.90767 25.4072 5.15619 24.1775C4.17572 22.5925 3.54985 20.8141 3.32157 18.9645C3.11488 17.1848 3.08935 15.3888 3.24537 13.604C3.29556 13.3126 3.26657 13.0131 3.16143 12.7367C2.77948 11.9675 2.57366 11.1228 2.55893 10.264C2.54419 9.40528 2.72091 8.55403 3.07625 7.77212C3.21498 7.42634 3.23929 7.04521 3.14563 6.6846C2.97019 5.86393 2.85958 5.03072 2.81483 4.1927C2.76837 3.3207 2.84871 2.44658 3.05333 1.59765C3.06355 1.55677 3.07315 1.51557 3.0843 1.47376C3.1384 1.18455 3.23892 0.906003 3.38197 0.648904C3.49743 0.454971 3.6604 0.293654 3.8555 0.180172C4.0506 0.0666894 4.2714 0.00478396 4.49705 0.000296737C5.57342 -0.0430676 6.04051 0.958959 6.19415 1.28791C6.2657 1.44278 6.32796 1.59487 6.38805 1.74261C6.48472 2.02054 6.61772 2.28446 6.78359 2.52751C7.08112 2.94011 7.4415 3.30352 7.8516 3.60449C8.02897 3.72294 8.22889 3.80348 8.43884 3.84106C8.64879 3.87863 8.86424 3.87244 9.07168 3.82286C9.43757 3.73994 9.82003 3.77041 10.1682 3.91021L10.1722 3.91207C10.3254 4.00761 10.5008 4.06163 10.6811 4.0688C10.8615 4.07597 11.0406 4.03604 11.2009 3.95296C11.5798 3.70085 11.9079 3.37962 12.1679 3.00607C12.621 2.39635 13.1424 1.84046 13.7219 1.34924C13.9006 1.2049 14.4482 0.7632 15.033 1.02246C15.152 1.07703 15.2589 1.1547 15.3476 1.25094C15.4363 1.34718 15.505 1.46009 15.5497 1.5831C15.6237 1.7828 15.6649 1.99314 15.6717 2.20599C15.7673 3.88622 15.6013 5.57109 15.1796 7.20033C15.0518 7.62868 15.0518 8.08499 15.1796 8.51334C15.4962 9.37078 15.5479 10.3036 15.3279 11.1908V11.1929C15.3248 11.2032 15.323 11.2109 15.3217 11.2168C15.3394 11.2423 15.3593 11.2661 15.3812 11.288C15.9449 11.8618 16.3858 12.5444 16.6769 13.2943C16.7078 13.3723 16.7261 13.4247 17.1012 13.4696C17.4707 13.5142 17.852 13.5479 18.2209 13.5805C18.7701 13.6291 19.3382 13.6796 19.9035 13.7663C22.2885 14.1355 24.5497 15.3826 26.4422 17.3727C28.1535 19.1815 29.3937 21.3834 30.0535 23.7844C30.0789 23.879 30.0841 23.9779 30.0687 24.0746C30.0533 24.1714 30.0176 24.2638 29.9641 24.3458C29.9106 24.4278 29.8404 24.4977 29.7581 24.5508C29.6758 24.6038 29.5832 24.639 29.4864 24.6539C29.2323 24.6923 28.9734 24.6865 28.7213 24.6368C28.5853 24.6102 28.4603 24.5437 28.3623 24.4457C28.2643 24.3476 28.1977 24.2226 28.1711 24.0866C28.1445 23.9506 28.1591 23.8097 28.2129 23.682C28.2668 23.5543 28.3575 23.4455 28.4735 23.3697C27.8325 21.4927 26.7957 19.7753 25.4334 18.3338C23.7561 16.5683 21.7706 15.4662 19.6916 15.1434C19.1712 15.0629 18.6506 15.0168 18.0992 14.9678C17.7195 14.934 17.327 14.8994 16.9364 14.8523C16.6514 14.8278 16.3731 14.7521 16.115 14.6286C15.7676 14.4533 15.5004 14.1516 15.3685 13.7855C15.1435 13.2124 14.8043 12.691 14.3714 12.2532C14.1753 12.0705 14.0354 11.8358 13.9679 11.5764C13.9005 11.317 13.9084 11.0438 13.9907 10.7887C14.1253 10.1633 14.0736 9.5121 13.8421 8.9157V8.91167C13.6423 8.23934 13.6381 7.52401 13.83 6.84939C14.181 5.49393 14.338 4.09556 14.2965 2.69601C13.9233 3.06167 13.5776 3.45436 13.2622 3.87087C12.8882 4.40012 12.4097 4.84718 11.8563 5.18451C11.507 5.36736 11.1185 5.46259 10.7242 5.462C10.3299 5.4614 9.94173 5.365 9.59298 5.1811C9.51124 5.16873 9.42789 5.17199 9.34736 5.1907H9.34426C8.9615 5.27391 8.56603 5.28034 8.18077 5.20962C7.79551 5.13891 7.4281 4.99245 7.09984 4.77874C6.55775 4.39775 6.08212 3.93008 5.69205 3.39449C5.44101 3.04965 5.24074 2.67058 5.09734 2.26887C5.04097 2.13011 4.98769 1.99908 4.93039 1.87611C4.86471 1.7226 4.77706 1.57945 4.6702 1.45114C4.616 1.39663 4.58936 1.3926 4.56179 1.39322C4.50956 1.52237 4.46963 1.65615 4.44254 1.79279C4.4317 1.83926 4.42055 1.88572 4.40847 1.93466C4.02159 3.49453 4.24492 5.07269 4.51471 6.41048C4.66499 7.04161 4.61342 7.70399 4.36727 8.30426C4.10447 8.91542 3.96499 9.57248 3.95686 10.2377C3.96131 10.8909 4.11728 11.5342 4.41249 12.1169C4.63305 12.6123 4.71134 13.1593 4.63861 13.6966C4.48977 15.3869 4.51198 17.0879 4.70489 18.7737C4.90718 20.4276 5.46488 22.0182 6.33973 23.4363C7.19106 24.8238 7.74971 26.3707 7.98138 27.9821C8.19864 29.5324 8.28072 31.0987 8.2267 32.6633C8.25632 33.3415 8.15104 34.0189 7.91695 34.6562C7.74465 35.0409 7.48055 35.3775 7.14782 35.6363C6.81509 35.8952 6.42391 36.0684 6.00861 36.1408C5.89141 36.1646 5.78558 36.227 5.70795 36.318C5.63032 36.409 5.58536 36.5234 5.58023 36.6429C5.64683 36.6577 5.73789 36.6714 5.80573 36.6813C5.94532 36.6989 6.08357 36.7259 6.21955 36.7621C6.29636 36.7841 6.38371 36.803 6.47602 36.8241C6.81718 36.872 7.14084 37.0048 7.41733 37.2103C7.5859 37.3575 7.71592 37.5437 7.79609 37.7526C7.87626 37.9615 7.90414 38.1869 7.8773 38.409C7.91138 38.4301 7.9597 38.4577 8.02784 38.4933C8.9007 38.9446 10.3416 38.7101 11.1749 37.98C11.638 37.5218 12.0191 36.9874 12.3017 36.4003C12.306 36.3876 12.3129 36.3669 12.3181 36.3508C12.3535 36.1978 12.423 36.0549 12.5216 35.9328C12.6201 35.8106 12.7451 35.7124 12.8871 35.6455C13.0248 35.5922 13.1727 35.5706 13.3199 35.5821C13.467 35.5937 13.6097 35.6382 13.7374 35.7124C13.9008 35.7835 14.0416 35.898 14.1444 36.0436C14.2473 36.1891 14.3082 36.3601 14.3206 36.5379C14.3239 36.7544 14.2759 36.9687 14.1806 37.1632C14.1729 37.1818 14.1648 37.201 14.1571 37.2208V37.2246C14.0022 37.6006 14.0146 37.8332 14.0719 37.9178C14.1215 37.9909 14.303 38.0751 14.6511 38.0726C14.7426 38.0717 14.8335 38.0887 14.9184 38.1229C15.0033 38.157 15.0807 38.2075 15.1461 38.2715C15.2115 38.3355 15.2637 38.4118 15.2996 38.496C15.3355 38.5802 15.3545 38.6706 15.3555 38.7621C15.3565 38.8537 15.3394 38.9445 15.3053 39.0294C15.2712 39.1143 15.2206 39.1917 15.1566 39.2571C15.0926 39.3225 15.0163 39.3747 14.9321 39.4106C14.8479 39.4465 14.7575 39.4655 14.666 39.4665C13.6575 39.477 13.1588 39.0561 12.9181 38.7011C12.8419 38.5887 12.7805 38.4669 12.7353 38.3387C12.5452 38.5902 12.3304 38.8221 12.0942 39.031C11.4443 39.5806 10.6535 39.9374 9.81135 40.0609C9.57196 40.0981 9.33005 40.1166 9.08779 40.1164Z" fill="#6CB8BC"/>
<path d="M40.6198 41.3609C40.322 41.3733 40.0254 41.3152 39.7542 41.1915C39.483 41.0677 39.2448 40.8816 39.059 40.6485C38.9295 40.4882 38.8334 40.3036 38.7763 40.1055C38.7193 39.9074 38.7025 39.7 38.727 39.4953C38.7569 39.2564 38.8314 39.0253 38.9466 38.8139C37.5007 38.5614 36.0508 38.6965 34.5191 38.8393C34.2344 38.8659 33.9399 38.8932 33.649 38.9176C32.5168 39.0273 31.3789 39.0672 30.2418 39.0372C30.1503 39.0336 30.0604 39.0121 29.9772 38.9737C29.894 38.9354 29.8192 38.881 29.757 38.8138C29.6948 38.7466 29.6465 38.6677 29.6148 38.5818C29.5831 38.4959 29.5686 38.4045 29.5722 38.313C29.5757 38.2215 29.5973 38.1316 29.6356 38.0484C29.674 37.9652 29.7283 37.8904 29.7956 37.8282C29.8628 37.766 29.9416 37.7177 30.0276 37.686C30.1135 37.6543 30.2048 37.6398 30.2963 37.6433C31.3761 37.6707 32.4566 37.632 33.5316 37.5275C33.816 37.5037 34.1071 37.4767 34.3887 37.4504C36.0136 37.2989 37.6937 37.1422 39.3994 37.4795C39.7036 37.5414 40.2683 37.6523 40.4811 38.1749C40.5422 38.3751 40.5529 38.5873 40.5122 38.7927C40.4715 38.998 40.3807 39.1901 40.2478 39.3519V39.3538C40.179 39.4421 40.1325 39.5457 40.1122 39.6558C40.1085 39.6793 40.1104 39.7033 40.1175 39.7259C40.1247 39.7486 40.1369 39.7693 40.1534 39.7865C40.2042 39.8506 40.3392 40.0213 40.8295 39.955H40.8314C41.2242 39.9029 41.6253 39.8435 42.0134 39.7862C42.4065 39.7279 42.8132 39.6675 43.2164 39.6143H43.2183C43.5686 39.5938 43.9054 39.4723 44.1881 39.2646C44.4347 39.0222 44.6027 38.7112 44.6704 38.3722C44.8692 37.6632 44.6797 37.1809 44.0168 36.7079C41.8864 35.1852 39.4069 34.6342 36.437 35.0229C35.3738 35.1917 34.2963 35.254 33.2206 35.2087C32.7471 35.1839 32.2766 35.1174 31.8147 35.0102C31.6353 34.9658 31.4809 34.8519 31.3854 34.6936C31.29 34.5353 31.2614 34.3456 31.3058 34.1661C31.3502 33.9867 31.4641 33.8323 31.6224 33.7369C31.7807 33.6414 31.9704 33.6128 32.1499 33.6572C32.5324 33.7445 32.9217 33.7983 33.3136 33.818H33.3157C34.2995 33.8564 35.2846 33.7967 36.2565 33.6396C37.7361 33.4291 39.2406 33.4693 40.7069 33.7585C42.1915 34.0695 43.5948 34.6874 44.8265 35.5727C45.3456 35.9171 45.7483 36.4104 45.9818 36.9879C46.1809 37.5556 46.1917 38.1723 46.0128 38.7467C45.8721 39.3523 45.5506 39.9008 45.091 40.3195C44.606 40.7071 44.0162 40.9407 43.3973 40.9905C43.0052 41.0425 42.6044 41.1017 42.2166 41.1593C41.8232 41.2175 41.4165 41.2779 41.0132 41.3312C40.8829 41.3498 40.7515 41.3598 40.6198 41.3609Z" fill="#6CB8BC"/>
<path d="M8.43018 48C8.33476 47.9998 8.23946 47.9933 8.1449 47.9805H8.1415C7.93087 47.9514 7.71931 47.9185 7.51457 47.8894C7.21722 47.8451 6.90995 47.7996 6.61042 47.7618H6.60857C6.1611 47.7228 5.73528 47.5518 5.38507 47.2706C5.05164 46.9686 4.81752 46.5727 4.71355 46.135C4.57744 45.7077 4.58825 45.2471 4.74424 44.8266C4.90023 44.4061 5.19244 44.0499 5.57433 43.8147C6.39901 43.2237 7.33792 42.8112 8.33106 42.6036C9.30479 42.4114 10.3039 42.3842 11.2866 42.5231C11.8981 42.622 12.5178 42.6601 13.1368 42.6368C13.6878 42.5984 14.0202 42.5237 14.1248 42.4147C14.2295 42.3057 14.2797 41.9903 14.285 41.4635V41.4185C14.285 41.4161 14.285 41.4139 14.285 41.4114V41.4052C14.285 41.3912 14.285 41.3771 14.285 41.3631C14.3667 39.8836 14.5652 38.4129 14.8785 36.9647C15.0428 36.1255 15.321 35.3126 15.7055 34.5487C16.0998 33.7539 16.5971 33.0144 17.1845 32.3495C17.7755 31.6748 18.4669 31.095 19.2344 30.6307C20.0148 30.1585 20.8793 29.8422 21.7802 29.6993C22.1556 29.6405 22.5301 29.6064 22.8925 29.5754C23.1353 29.5544 23.3649 29.5342 23.5947 29.507C23.6381 29.5014 23.669 29.4964 23.6916 29.4921C23.8798 29.0244 24.1547 28.5966 24.5019 28.2311C24.3851 27.6467 24.4289 27.0416 24.6286 26.4801C24.6974 26.2451 24.6963 25.9951 24.6255 25.7606C24.3479 24.684 24.2384 23.5709 24.3009 22.4609C24.306 22.2978 24.3374 22.1366 24.3938 21.9836C24.4343 21.8698 24.4981 21.7657 24.5811 21.678C24.6641 21.5903 24.7645 21.5209 24.8759 21.4743C24.9873 21.4276 25.1072 21.4047 25.2279 21.4071C25.3487 21.4094 25.4676 21.437 25.5771 21.488C25.7146 21.5485 25.843 21.6278 25.9587 21.7237C26.3476 22.0526 26.6978 22.4248 27.0025 22.8329L27.0047 22.8354C27.5195 23.4911 27.6771 23.4976 27.9959 23.3492C28.2678 23.2369 28.5677 23.2106 28.8551 23.274C29.2887 23.3598 29.5548 23.199 30.0904 22.5259L30.0922 22.5238C30.1836 22.3855 30.2573 22.2362 30.3115 22.0796C30.3512 21.982 30.3924 21.881 30.4404 21.7776C30.5361 21.5572 30.6688 21.3548 30.8328 21.1792C30.9528 21.0536 31.0981 20.9549 31.2591 20.8898C31.4201 20.8246 31.5931 20.7945 31.7667 20.8013H31.7695C31.9562 20.8055 32.1387 20.8572 32.2998 20.9515C32.461 21.0458 32.5955 21.1796 32.6907 21.3402C32.7968 21.5289 32.8715 21.7337 32.9118 21.9464C32.9177 21.9718 32.9236 21.9969 32.9295 22.021C33.1627 23.142 33.1428 24.3008 32.8713 25.4131C32.8201 25.5984 32.8303 25.7953 32.9004 25.9743C33.1296 26.5082 33.2499 27.0824 33.2544 27.6634C33.2516 28.2611 33.1097 28.85 32.84 29.3834C32.794 29.5227 32.7842 29.6714 32.8115 29.8155V29.8176C32.9124 30.9869 32.895 32.1634 32.7594 33.3292C32.6077 34.5581 32.1912 35.7395 31.5387 36.7919C30.5252 38.4112 30.4679 40.3131 30.4961 42.1223C30.5104 43.0227 30.62 43.1677 31.0419 43.2665C31.3928 43.3445 31.7035 43.5471 31.9165 43.8366C32.1296 44.1261 32.2305 44.483 32.2007 44.8412C32.191 45.0188 32.1361 45.191 32.041 45.3414C31.946 45.4917 31.814 45.6153 31.6577 45.7001C31.4762 45.7914 31.2796 45.8485 31.0775 45.8687C31.0382 45.8745 30.9787 45.8829 30.9592 45.8885C30.8774 45.912 30.7997 45.9291 30.7306 45.9439C30.7281 46.077 30.6982 46.2082 30.643 46.3294C30.5878 46.4505 30.5082 46.5591 30.4094 46.6483C30.2893 46.7564 30.1547 46.8473 30.0095 46.9184L30.0024 46.9221C29.4691 47.1768 28.8695 47.2582 28.2876 47.155C27.6984 47.0678 27.1452 46.8181 26.69 46.4339C26.615 46.3683 26.545 46.3004 26.479 46.2307C26.3232 46.4184 26.1246 46.5659 25.8999 46.6608C25.6751 46.7557 25.4309 46.7952 25.1877 46.7759C22.663 46.7511 20.1045 46.7043 17.5819 46.6362C17.2984 46.6215 17.0172 46.5773 16.7428 46.5046C16.5366 46.4417 16.3218 46.4119 16.1063 46.416C15.0439 46.5373 13.9712 46.5387 12.9085 46.4203C12.7226 46.4048 12.5368 46.3875 12.3553 46.3704C11.5264 46.2631 10.6885 46.2423 9.85532 46.3085C9.91373 46.5021 9.92403 46.7071 9.88533 46.9056C9.84663 47.1041 9.7601 47.2902 9.63323 47.4477C9.44546 47.686 9.18689 47.8584 8.8948 47.9402C8.74342 47.9815 8.58707 48.0016 8.43018 48ZM8.33075 46.599C8.37755 46.6053 8.42484 46.6072 8.47199 46.6046L8.46487 46.5941C8.35196 46.4581 8.27643 46.295 8.24575 46.1209C8.21506 45.9468 8.23026 45.7678 8.28986 45.6013C8.37328 45.4353 8.49773 45.2933 8.65141 45.1889C8.80509 45.0844 8.9829 45.0209 9.16799 45.0045C10.2657 44.8351 11.3824 44.8276 12.4823 44.9822C12.6604 44.9989 12.8447 45.0159 13.024 45.0308C13.9834 45.139 14.9518 45.1405 15.9115 45.0351C16.2971 44.9999 16.6859 45.0376 17.0575 45.1463C17.2399 45.1959 17.4266 45.2281 17.6151 45.2423H17.6175C20.1327 45.3102 22.684 45.357 25.2004 45.3814C25.2496 45.3826 25.2988 45.3788 25.3472 45.3703C25.336 45.3041 25.3169 45.2396 25.2905 45.1779L25.2791 45.1513C25.2004 44.9906 25.1606 44.8136 25.1629 44.6346C25.1779 44.4906 25.2255 44.3519 25.302 44.2289C25.3785 44.1059 25.4819 44.0019 25.6044 43.9248C25.727 43.8476 25.8655 43.7994 26.0094 43.7836C26.1533 43.7678 26.299 43.7849 26.4354 43.8336C26.5599 43.891 26.67 43.9755 26.7575 44.081C26.845 44.1865 26.9078 44.3102 26.9412 44.4432L26.9433 44.4497C27.1102 44.7964 27.3345 45.1124 27.6068 45.3842C27.8431 45.579 28.1251 45.7103 28.4262 45.7658C28.7273 45.8212 29.0376 45.7989 29.3278 45.7011C29.3298 45.5457 29.3651 45.3925 29.4313 45.2519C29.4975 45.1113 29.5931 44.9864 29.7115 44.8858C29.9201 44.7273 30.165 44.6237 30.424 44.5844C30.4549 44.5779 30.4831 44.5717 30.5104 44.5652C30.2478 44.4905 30.0052 44.3584 29.7998 44.1785C29.5945 43.9987 29.4315 43.7755 29.3228 43.5251C29.157 43.0844 29.0817 42.6148 29.1013 42.1443C29.0657 41.1194 29.1198 40.0933 29.263 39.0778C29.4181 38.0054 29.7903 36.9759 30.3567 36.0522C30.9039 35.1669 31.2526 34.1736 31.3789 33.1406C31.5008 32.0686 31.5151 30.987 31.4213 29.9121C31.3704 29.5217 31.4292 29.1249 31.5911 28.7661V28.7639C31.765 28.414 31.8572 28.0292 31.8608 27.6385C31.8644 27.2478 31.7793 26.8614 31.6118 26.5083L31.6103 26.5046C31.4372 26.0717 31.4 25.5963 31.5037 25.1417C31.708 24.2974 31.7476 23.4215 31.6202 22.5622L31.6022 22.6065C31.5014 22.889 31.3592 23.1551 31.1804 23.396C30.7569 23.9278 29.9693 24.9172 28.5825 24.6427C28.5668 24.6396 28.5508 24.6376 28.5348 24.6368C28.279 24.7635 27.9967 24.8276 27.7113 24.8237C27.4259 24.8198 27.1454 24.7481 26.8932 24.6145C26.5044 24.382 26.1687 24.0706 25.9076 23.7005C25.8329 23.6076 25.7586 23.5146 25.6833 23.4217C25.7086 24.0941 25.8061 24.7618 25.9742 25.4134C26.1079 25.891 26.1047 26.3966 25.9652 26.8726V26.8769C25.8302 27.2168 25.7966 27.5885 25.8685 27.9471C25.935 28.1536 25.9418 28.3748 25.8882 28.585C25.8345 28.7953 25.7226 28.9861 25.5653 29.1356C25.3085 29.393 25.1075 29.7006 24.9749 30.0391C24.8692 30.3343 24.6548 30.578 24.3756 30.7206C24.1848 30.812 23.9794 30.8691 23.7688 30.8894H23.7629C23.5101 30.9203 23.258 30.9414 23.0139 30.9628C22.659 30.9937 22.3238 31.0232 21.9952 31.0746H21.9936C21.2708 31.1911 20.5774 31.4466 19.9518 31.827C19.3071 32.2179 18.7264 32.7058 18.2302 33.2735C17.2359 34.3955 16.5526 35.7582 16.2482 37.2261C15.9483 38.6084 15.7578 40.0122 15.6782 41.4244V41.4743C15.6695 42.2849 15.5726 42.9193 15.129 43.3805C14.6855 43.8417 14.0533 43.969 13.2334 44.0266C12.5218 44.058 11.8088 44.0171 11.1054 43.9046C9.25348 43.6636 7.70909 44.0052 6.38462 44.949C5.99589 45.2278 5.96925 45.4471 6.05629 45.7571C6.09086 45.927 6.17292 46.0836 6.29294 46.2088C6.43934 46.3097 6.61091 46.3681 6.78853 46.3773C7.10261 46.4169 7.41669 46.4637 7.72086 46.5089C7.92127 46.5402 8.1288 46.5712 8.33199 46.599H8.33075Z" fill="#2E2356"/>
</svg>
