<svg width="49" height="48" viewBox="0 0 49 48" fill="none" xmlns="http://www.w3.org/2000/svg">
<path fill-rule="evenodd" clip-rule="evenodd" d="M32.9048 8.44731V5.16473C32.9046 3.79504 32.3603 2.48153 31.3918 1.51302C30.4233 0.544501 29.1098 0.000273673 27.7401 0H19.6266C18.2569 0.000273673 16.9434 0.544501 15.9749 1.51302C15.0063 2.48153 14.4621 3.79504 14.4618 5.16473V8.44731H8.75689C8.02625 8.44661 7.32105 8.71562 6.7765 9.20277C6.23195 9.68991 5.88637 10.3609 5.80601 11.0871L2.16214 43.8923C2.10453 44.4094 2.15669 44.9329 2.31522 45.4285C2.47374 45.9241 2.73506 46.3806 3.08209 46.7683C3.42913 47.156 3.85407 47.4661 4.32914 47.6784C4.80421 47.8906 5.31872 48.0002 5.83905 48H41.5276C42.0479 47.9999 42.5623 47.8901 43.0372 47.6778C43.5122 47.4655 43.937 47.1554 44.284 46.7677C44.6309 46.3801 44.8923 45.9237 45.0509 45.4282C45.2095 44.9327 45.2619 44.4094 45.2045 43.8923L41.5607 11.0868C41.4802 10.3606 41.1346 9.68972 40.5901 9.20264C40.0455 8.71556 39.3404 8.4466 38.6098 8.44731H32.9048ZM31.5832 13.9909C31.7284 14.1361 31.9253 14.2176 32.1307 14.2176C32.336 14.2176 32.5329 14.1361 32.6781 13.9909C32.8233 13.8457 32.9048 13.6488 32.9048 13.4434V9.9957H38.6112C38.9604 9.99559 39.2975 10.1243 39.5577 10.3571C39.818 10.59 39.9833 10.9107 40.0219 11.2578L43.6658 44.0633C43.699 44.3639 43.6686 44.6681 43.5764 44.9561C43.4842 45.2441 43.3323 45.5095 43.1307 45.7349C42.93 45.9617 42.6832 46.143 42.4067 46.2666C42.1302 46.3902 41.8305 46.4533 41.5276 46.4516H5.84042C5.53782 46.4518 5.23857 46.3882 4.96226 46.2648C4.68595 46.1414 4.4388 45.9611 4.23697 45.7356C4.03515 45.5102 3.8832 45.2446 3.79105 44.9564C3.69891 44.6681 3.66866 44.3637 3.70227 44.063L7.34614 11.2581C7.38468 10.911 7.54992 10.5902 7.81022 10.3573C8.07052 10.1243 8.40759 9.9956 8.75689 9.9957H14.4618V13.4434C14.4618 13.6488 14.5434 13.8457 14.6886 13.9909C14.8338 14.1361 15.0307 14.2176 15.236 14.2176C15.4414 14.2176 15.6383 14.1361 15.7835 13.9909C15.9287 13.8457 16.0102 13.6488 16.0102 13.4434V9.9957H31.3565V13.4434C31.3565 13.6488 31.438 13.8457 31.5832 13.9909ZM16.0102 8.44731H31.3565V5.16473C31.3554 4.20595 30.974 3.28676 30.2961 2.6088C29.6181 1.93084 28.6989 1.54948 27.7401 1.54839H19.6266C18.6678 1.54948 17.7486 1.93084 17.0706 2.6088C16.3927 3.28676 16.0113 4.20595 16.0102 5.16473V8.44731Z" fill="#2E2356"/>
<path d="M16.1342 23.6731C16.5071 23.6809 16.8733 23.774 17.2047 23.9452C17.5361 24.1165 17.8238 24.3613 18.0459 24.661C18.5114 25.2777 18.7588 26.0317 18.7492 26.8043C18.7588 27.5769 18.5114 28.3309 18.0459 28.9476C17.8238 29.2473 17.5361 29.4921 17.2047 29.6634C16.8733 29.8346 16.5071 29.9277 16.1342 29.9355C15.7613 29.9277 15.3951 29.8346 15.0637 29.6634C14.7323 29.4921 14.4445 29.2473 14.2224 28.9476C13.7569 28.3309 13.5095 27.5769 13.5191 26.8043C13.5095 26.0317 13.7569 25.2777 14.2224 24.661C14.4445 24.3613 14.7323 24.1165 15.0637 23.9452C15.3951 23.774 15.7613 23.6809 16.1342 23.6731ZM16.1342 28.3871C16.2714 28.3771 16.4046 28.3367 16.5243 28.2688C16.6439 28.2009 16.7469 28.1072 16.8258 27.9945C17.0771 27.6492 17.2087 27.2313 17.2008 26.8043C17.2087 26.3773 17.0771 25.9594 16.8258 25.6141C16.7469 25.5014 16.6439 25.4077 16.5243 25.3398C16.4046 25.2719 16.2714 25.2315 16.1342 25.2215C15.997 25.2315 15.8637 25.2719 15.7441 25.3398C15.6245 25.4077 15.5215 25.5014 15.4426 25.6141C15.1913 25.9594 15.0596 26.3773 15.0675 26.8043C15.0596 27.2313 15.1913 27.6492 15.4426 27.9945C15.5215 28.1072 15.6245 28.2009 15.7441 28.2688C15.8637 28.3367 15.997 28.3771 16.1342 28.3871Z" fill="#6CB8BC"/>
<path d="M20.7794 19.1656C21.1523 19.1734 21.5185 19.2665 21.8499 19.4377C22.1812 19.6089 22.469 19.8538 22.6911 20.1535C23.1566 20.7702 23.404 21.5241 23.3944 22.2968C23.404 23.0694 23.1566 23.8233 22.6911 24.4401C22.469 24.7398 22.1812 24.9846 21.8499 25.1558C21.5185 25.3271 21.1523 25.4202 20.7794 25.428C20.4064 25.4202 20.0402 25.3271 19.7089 25.1558C19.3775 24.9846 19.0897 24.7398 18.8676 24.4401C18.4021 23.8233 18.1547 23.0694 18.1643 22.2968C18.1547 21.5241 18.4021 20.7702 18.8676 20.1535C19.0897 19.8538 19.3775 19.6089 19.7089 19.4377C20.0402 19.2665 20.4064 19.1734 20.7794 19.1656ZM20.7794 23.8796C20.9166 23.8696 21.0498 23.8292 21.1694 23.7613C21.2891 23.6934 21.3921 23.5997 21.471 23.487C21.7222 23.1416 21.8539 22.7238 21.846 22.2968C21.8539 21.8698 21.7222 21.4519 21.471 21.1066C21.3921 20.9939 21.2891 20.9002 21.1694 20.8323C21.0498 20.7644 20.9166 20.724 20.7794 20.714C20.6422 20.724 20.5089 20.7644 20.3893 20.8323C20.2696 20.9002 20.1666 20.9939 20.0877 21.1066C19.8365 21.4519 19.7048 21.8698 19.7127 22.2968C19.7048 22.7238 19.8365 23.1416 20.0877 23.487C20.1666 23.5997 20.2696 23.6934 20.3893 23.7613C20.5089 23.8292 20.6422 23.8696 20.7794 23.8796Z" fill="#6CB8BC"/>
<path d="M31.2327 23.6731C31.6056 23.6809 31.9718 23.774 32.3032 23.9452C32.6346 24.1165 32.9223 24.3613 33.1444 24.661C33.6099 25.2777 33.8573 26.0317 33.8477 26.8043C33.8573 27.5769 33.6099 28.3309 33.1444 28.9476C32.9223 29.2473 32.6346 29.4921 32.3032 29.6634C31.9718 29.8346 31.6056 29.9277 31.2327 29.9355C30.8598 29.9277 30.4936 29.8346 30.1622 29.6634C29.8308 29.4921 29.543 29.2473 29.321 28.9476C28.8554 28.3309 28.6081 27.5769 28.6176 26.8043C28.6081 26.0317 28.8554 25.2777 29.321 24.661C29.543 24.3613 29.8308 24.1165 30.1622 23.9452C30.4936 23.774 30.8598 23.6809 31.2327 23.6731ZM31.2327 28.3871C31.3699 28.3771 31.5031 28.3367 31.6228 28.2688C31.7424 28.2009 31.8454 28.1072 31.9243 27.9945C32.1756 27.6492 32.3073 27.2313 32.2994 26.8043C32.3073 26.3773 32.1756 25.9594 31.9243 25.6141C31.8454 25.5014 31.7424 25.4077 31.6228 25.3398C31.5031 25.2719 31.3699 25.2315 31.2327 25.2215C31.0955 25.2315 30.9622 25.2719 30.8426 25.3398C30.723 25.4077 30.62 25.5014 30.5411 25.6141C30.2898 25.9594 30.1581 26.3773 30.166 26.8043C30.1581 27.2313 30.2898 27.6492 30.5411 27.9945C30.62 28.1072 30.723 28.2009 30.8426 28.2688C30.9622 28.3367 31.0955 28.3771 31.2327 28.3871Z" fill="#6CB8BC"/>
<path d="M26.5875 19.1656C26.9604 19.1734 27.3266 19.2665 27.658 19.4377C27.9894 19.6089 28.2772 19.8538 28.4993 20.1535C28.9648 20.7702 29.2122 21.5241 29.2026 22.2968C29.2122 23.0694 28.9648 23.8233 28.4993 24.4401C28.2772 24.7398 27.9894 24.9846 27.658 25.1558C27.3266 25.3271 26.9604 25.4202 26.5875 25.428C26.2146 25.4202 25.8484 25.3271 25.517 25.1558C25.1856 24.9846 24.8979 24.7398 24.6758 24.4401C24.2103 23.8233 23.9629 23.0694 23.9725 22.2968C23.9629 21.5241 24.2103 20.7702 24.6758 20.1535C24.8979 19.8538 25.1856 19.6089 25.517 19.4377C25.8484 19.2665 26.2146 19.1734 26.5875 19.1656ZM26.5875 23.8796C26.7247 23.8696 26.858 23.8292 26.9776 23.7613C27.0972 23.6934 27.2002 23.5997 27.2791 23.487C27.5304 23.1416 27.6621 22.7238 27.6542 22.2968C27.6621 21.8698 27.5304 21.4519 27.2791 21.1066C27.2002 20.9939 27.0972 20.9002 26.9776 20.8323C26.858 20.7644 26.7247 20.724 26.5875 20.714C26.4503 20.724 26.3171 20.7644 26.1974 20.8323C26.0778 20.9002 25.9748 20.9939 25.8959 21.1066C25.6446 21.4519 25.513 21.8698 25.5209 22.2968C25.513 22.7238 25.6446 23.1416 25.8959 23.487C25.9748 23.5997 26.0778 23.6934 26.1974 23.7613C26.3171 23.8292 26.4503 23.8696 26.5875 23.8796Z" fill="#6CB8BC"/>
<path d="M23.6697 26.0772L23.7103 26.0793C25.1104 26.1329 26.4512 26.6593 27.5138 27.5726C28.2029 28.1433 28.8199 28.7959 29.3509 29.516C29.9092 30.2592 30.3194 31.1029 30.559 32.001C30.7792 32.8822 30.7057 33.8111 30.3498 34.6467C30.0602 35.342 29.5704 35.9355 28.9426 36.3517C28.3148 36.7679 27.5775 36.988 26.8243 36.9841C26.2972 36.9842 25.7756 36.8779 25.2907 36.6716C24.9889 36.5423 24.693 36.4019 24.4064 36.2663C24.1541 36.1469 23.9119 36.0323 23.6686 35.9253C23.4243 36.0323 23.18 36.1483 22.9251 36.2694C22.6409 36.4043 22.347 36.5447 22.048 36.672C21.5627 36.8784 21.0407 36.9846 20.5134 36.9844C19.7604 36.9881 19.0233 36.7679 18.3958 36.3517C17.7683 35.9355 17.2787 35.3421 16.9892 34.647C16.6331 33.8111 16.5596 32.8818 16.78 32.0003C17.0192 31.1016 17.4293 30.2573 17.9878 29.5136C18.5184 28.7938 19.1355 28.1419 19.8252 27.5726C20.8878 26.6593 22.2286 26.1329 23.6287 26.0793L23.6697 26.0772ZM26.8246 35.4364C27.1698 35.4377 27.5108 35.3613 27.8224 35.2127C28.3219 34.9692 28.7148 34.5512 28.927 34.0377C29.15 33.5137 29.1959 32.9313 29.0577 32.3788C28.8809 31.6724 28.3162 30.2648 26.5208 28.7611C25.7271 28.0701 24.7215 27.6706 23.67 27.6287C22.6181 27.6708 21.612 28.0706 20.8182 28.7621C19.0242 30.2599 18.4595 31.6704 18.2827 32.3781C18.1441 32.9309 18.1899 33.5137 18.4131 34.038C18.6249 34.5515 19.0176 34.9696 19.5169 35.2131H19.5186C19.8294 35.3615 20.1697 35.4377 20.5141 35.436C20.8313 35.4365 21.1455 35.373 21.4376 35.2492C21.7104 35.1322 21.9785 35.0049 22.2634 34.8707C22.6106 34.7059 22.9698 34.5356 23.3407 34.3842L23.4815 34.3267H23.8624L24.0041 34.3849C24.3726 34.5366 24.7267 34.7048 25.0708 34.8666C25.3571 35.0021 25.6275 35.1301 25.9035 35.2489C26.1948 35.3724 26.5081 35.436 26.8246 35.4357V35.4364Z" fill="#6CB8BC"/>
</svg>
