<svg width="49" height="48" viewBox="0 0 49 48" fill="none" xmlns="http://www.w3.org/2000/svg">
<path d="M39.7796 26.1205C40.9529 26.1205 42.0782 26.5866 42.9079 27.4163C43.7376 28.246 44.2037 29.3713 44.2037 30.5446C44.2037 31.718 43.7376 32.8433 42.9079 33.673C42.0782 34.5027 40.9529 34.9688 39.7796 34.9688C38.6062 34.9688 37.4809 34.5027 36.6512 33.673C35.8216 32.8433 35.3554 31.718 35.3554 30.5446C35.3554 29.3713 35.8216 28.246 36.6512 27.4163C37.4809 26.5866 38.6062 26.1205 39.7796 26.1205ZM39.7796 33.5948C40.3829 33.5948 40.9726 33.4159 41.4742 33.0808C41.9758 32.7456 42.3667 32.2692 42.5976 31.7119C42.8285 31.1545 42.8889 30.5412 42.7712 29.9496C42.6535 29.3579 42.363 28.8144 41.9364 28.3878C41.5098 27.9612 40.9663 27.6707 40.3746 27.5531C39.783 27.4354 39.1697 27.4958 38.6123 27.7266C38.055 27.9575 37.5786 28.3484 37.2434 28.85C36.9083 29.3516 36.7294 29.9414 36.7294 30.5446C36.7302 31.3533 37.0518 32.1287 37.6237 32.7005C38.1955 33.2724 38.9709 33.594 39.7796 33.5948Z" fill="#2E2356"/>
<path d="M39.5811 33.5918H39.5842C40.5006 33.5917 41.4081 33.7723 42.2548 34.123C43.1014 34.4738 43.8707 34.988 44.5186 35.6362C45.1665 36.2843 45.6803 37.0538 46.0307 37.9006C46.3811 38.7475 46.5613 39.655 46.5608 40.5715V41.1119C46.5599 41.9327 46.2335 42.7197 45.6531 43.3001C45.0726 43.8805 44.2857 44.207 43.4648 44.2079H35.7004C34.8796 44.207 34.0927 43.8805 33.5122 43.3001C32.9318 42.7197 32.6054 41.9327 32.6045 41.1119V40.5715C32.604 39.655 32.7842 38.7475 33.1346 37.9006C33.485 37.0538 33.9988 36.2843 34.6467 35.6362C35.2946 34.988 36.0639 34.4738 36.9105 34.123C37.7572 33.7723 38.6647 33.5917 39.5811 33.5918ZM43.4648 42.8339C43.9214 42.8334 44.3591 42.6519 44.682 42.329C45.0048 42.0062 45.1864 41.5685 45.1869 41.1119V40.5715C45.1869 39.8355 45.0419 39.1068 44.7603 38.4268C44.4786 37.7469 44.0658 37.1291 43.5454 36.6087C43.025 36.0883 42.4072 35.6755 41.7273 35.3938C41.0474 35.1122 40.3186 34.9672 39.5826 34.9672C38.8467 34.9672 38.1179 35.1122 37.438 35.3938C36.7581 35.6755 36.1403 36.0883 35.6199 36.6087C35.0995 37.1291 34.6867 37.7469 34.405 38.4268C34.1234 39.1068 33.9784 39.8355 33.9784 40.5715V41.1119C33.9789 41.5685 34.1605 42.0062 34.4833 42.329C34.8062 42.6519 35.2439 42.8334 35.7004 42.8339H43.4648Z" fill="#2E2356"/>
<path d="M10.9295 25.9678C12.1029 25.9678 13.2282 26.4339 14.0579 27.2636C14.8875 28.0933 15.3537 29.2186 15.3537 30.3919C15.3537 31.5653 14.8875 32.6906 14.0579 33.5203C13.2282 34.35 12.1029 34.8161 10.9295 34.8161C9.75616 34.8161 8.63086 34.35 7.80117 33.5203C6.97149 32.6906 6.50537 31.5653 6.50537 30.3919C6.50537 29.2186 6.97149 28.0933 7.80117 27.2636C8.63086 26.4339 9.75616 25.9678 10.9295 25.9678ZM10.9295 33.4421C11.5328 33.4421 12.1225 33.2632 12.6241 32.9281C13.1257 32.5929 13.5167 32.1166 13.7475 31.5592C13.9784 31.0019 14.0388 30.3886 13.9211 29.7969C13.8034 29.2052 13.5129 28.6617 13.0863 28.2351C12.6597 27.8086 12.1163 27.5181 11.5246 27.4004C10.9329 27.2827 10.3196 27.3431 9.76226 27.5739C9.20491 27.8048 8.72854 28.1958 8.39338 28.6974C8.05822 29.199 7.87933 29.7887 7.87933 30.3919C7.88014 31.2007 8.20176 31.976 8.7736 32.5479C9.34545 33.1197 10.1208 33.4413 10.9295 33.4421Z" fill="#2E2356"/>
<path d="M10.7341 33.4421H10.7372C11.6536 33.4421 12.5611 33.6226 13.4078 33.9734C14.2544 34.3242 15.0237 34.8384 15.6716 35.4865C16.3195 36.1347 16.8333 36.9042 17.1837 37.751C17.5341 38.5978 17.7143 39.5054 17.7138 40.4218V40.9623C17.7129 41.7831 17.3865 42.5701 16.806 43.1505C16.2256 43.7309 15.4387 44.0574 14.6178 44.0583H6.85343C6.0326 44.0574 5.24564 43.7309 4.66522 43.1505C4.0848 42.5701 3.75834 41.7831 3.75745 40.9623V40.4218C3.75701 39.5054 3.93714 38.5978 4.28755 37.751C4.63797 36.9042 5.1518 36.1347 5.79969 35.4865C6.44758 34.8384 7.21684 34.3242 8.0635 33.9734C8.91016 33.6226 9.81765 33.4421 10.7341 33.4421ZM14.6178 42.6843C15.0744 42.6838 15.5121 42.5022 15.8349 42.1794C16.1578 41.8566 16.3394 41.4188 16.3399 40.9623V40.4218C16.3399 38.9355 15.7494 37.5101 14.6984 36.4591C13.6474 35.4081 12.222 34.8176 10.7356 34.8176C9.2493 34.8176 7.82384 35.4081 6.77285 36.4591C5.72185 37.5101 5.13141 38.9355 5.13141 40.4218V40.9623C5.13189 41.4188 5.31347 41.8566 5.63631 42.1794C5.95915 42.5022 6.39687 42.6838 6.85343 42.6843H14.6178Z" fill="#2E2356"/>
<path d="M25.3805 25.1007C26.4684 25.1 27.5321 25.422 28.4368 26.0261C29.3416 26.6302 30.0468 27.4892 30.4631 28.4943C30.8794 29.4994 30.9882 30.6054 30.7756 31.6723C30.563 32.7393 30.0386 33.7191 29.2688 34.4879C28.6949 35.0611 28.0012 35.5002 27.2376 35.7738C26.4739 36.0474 25.6592 36.1486 24.8518 36.0703C24.0445 35.9919 23.2644 35.7359 22.5676 35.3206C21.8709 34.9053 21.2746 34.341 20.8216 33.6681C20.3685 32.9952 20.07 32.2305 19.9473 31.4286C19.8247 30.6268 19.8809 29.8078 20.1121 29.0302C20.3432 28.2527 20.7435 27.5359 21.2843 26.9313C21.825 26.3267 22.4929 25.8492 23.2399 25.533C23.9171 25.2464 24.6451 25.0993 25.3805 25.1007ZM25.3805 34.7245C26.1963 34.7245 26.9938 34.4826 27.6722 34.0293C28.3505 33.5761 28.8792 32.9318 29.1914 32.1781C29.5036 31.4244 29.5853 30.595 29.4262 29.7948C29.267 28.9947 28.8741 28.2597 28.2973 27.6828C27.9145 27.2988 27.4597 26.9939 26.9589 26.7858C26.4582 26.5777 25.9214 26.4703 25.3791 26.4699C24.8369 26.4695 24.2998 26.5759 23.7988 26.7833C23.2977 26.9906 22.8424 27.2946 22.459 27.6781C22.0756 28.0615 21.7715 28.5168 21.5642 29.0178C21.3569 29.5189 21.2504 30.0559 21.2508 30.5982C21.2513 31.1404 21.3586 31.6773 21.5668 32.178C21.7749 32.6787 22.0797 33.1335 22.4637 33.5163C22.8459 33.9006 23.3004 34.2052 23.8011 34.4126C24.3018 34.6199 24.8386 34.726 25.3805 34.7245Z" fill="#2E2356"/>
<path d="M25.1301 34.7245C26.2847 34.7239 27.428 34.9508 28.4947 35.3924C29.5615 35.8339 30.5308 36.4814 31.3471 37.2978C32.1635 38.1141 32.811 39.0834 33.2525 40.1502C33.694 41.2169 33.921 42.3602 33.9204 43.5148V44.2109C33.9202 45.2158 33.521 46.1795 32.8104 46.89C32.0999 47.6006 31.1362 47.9998 30.1313 48H20.1289C19.124 47.9998 18.1604 47.6006 17.4498 46.89C16.7393 46.1795 16.34 45.2158 16.3398 44.2109V43.5148C16.3392 42.3602 16.5662 41.2169 17.0077 40.1502C17.4493 39.0834 18.0967 38.1141 18.9131 37.2978C19.7295 36.4814 20.6988 35.8339 21.7655 35.3924C22.8323 34.9508 23.9756 34.7239 25.1301 34.7245ZM30.1313 46.626C30.7716 46.6253 31.3855 46.3706 31.8383 45.9178C32.291 45.4651 32.5457 44.8512 32.5464 44.2109V43.5148C32.5464 41.5478 31.7651 39.6615 30.3743 38.2706C28.9834 36.8798 27.0971 36.0984 25.1301 36.0984C23.1632 36.0984 21.2768 36.8798 19.886 38.2706C18.4952 39.6615 17.7138 41.5478 17.7138 43.5148V44.2109C17.7145 44.8512 17.9692 45.4651 18.422 45.9178C18.8747 46.3706 19.4886 46.6253 20.1289 46.626H30.1313Z" fill="#2E2356"/>
<path d="M25.2859 19.0827C25.1907 19.0827 25.0967 19.063 25.0096 19.0247C24.9225 18.9864 24.8443 18.9305 24.7799 18.8605L24.7042 18.7896C24.6309 18.7209 24.5619 18.6562 24.4935 18.597L24.4914 18.5948C24.3306 18.454 24.1698 18.3125 24.009 18.1704C23.8482 18.0284 23.6886 17.888 23.5302 17.7494C23.2931 17.5502 23.0677 17.3375 22.8552 17.1122L22.8527 17.1094C22.6239 16.8675 22.4397 16.5869 22.3086 16.2808V16.2774C22.223 16.0652 22.1652 15.8428 22.1364 15.6158C22.1104 15.4236 22.1014 15.2295 22.1096 15.0357C22.1195 14.6406 22.2508 14.2582 22.4857 13.9404C22.7206 13.6227 23.0477 13.3849 23.4225 13.2596C23.639 13.1868 23.8657 13.149 24.0942 13.1476C24.5247 13.1502 24.9425 13.2942 25.2831 13.5576C25.3778 13.4871 25.4782 13.4246 25.5832 13.3707L25.589 13.3677C25.9158 13.2033 26.2814 13.1314 26.6461 13.1598H26.6485C27.0844 13.1898 27.4975 13.3658 27.8211 13.6594C28.1448 13.953 28.36 14.347 28.4322 14.778C28.4644 14.9828 28.4715 15.1907 28.4536 15.3972C28.4418 15.6143 28.4055 15.8294 28.3455 16.0384L28.3434 16.0454C28.2432 16.3725 28.0795 16.6766 27.8616 16.9403C27.6707 17.1692 27.4613 17.3819 27.2353 17.5763L27.2308 17.5802L26.9499 17.8245C26.7542 17.9952 26.5529 18.1717 26.3548 18.3463C26.2586 18.4336 26.1606 18.524 26.066 18.6113C25.9713 18.6987 25.8669 18.7945 25.7655 18.8861C25.7555 18.8953 25.7454 18.9041 25.735 18.9127C25.6106 19.0216 25.4511 19.0819 25.2859 19.0827ZM23.8713 16.1877C24.0488 16.3736 24.2366 16.5494 24.4337 16.7144C24.5943 16.8552 24.755 16.9965 24.9158 17.1381L25.2846 17.4627L25.4336 17.3265L25.44 17.3207C25.6419 17.1421 25.8473 16.9629 26.0461 16.7895L26.3233 16.5473C26.4923 16.4033 26.6492 16.2456 26.7923 16.0759L26.7948 16.0729C26.8986 15.9496 26.9769 15.807 27.0253 15.6533C27.0561 15.5449 27.0747 15.4334 27.0809 15.3209V15.3187C27.0906 15.2193 27.0898 15.1191 27.0784 15.0198V15.0143C27.0594 14.8782 26.9904 14.754 26.8848 14.6659L26.8815 14.6632C26.7865 14.5825 26.6674 14.5355 26.5429 14.5298C26.427 14.5198 26.3107 14.5425 26.207 14.5951C26.0727 14.6673 25.9606 14.7749 25.8831 14.9062L25.873 14.9218L25.8547 14.949C25.7928 15.0418 25.7093 15.1181 25.6113 15.1714C25.5133 15.2247 25.4038 15.2533 25.2923 15.2548C25.1808 15.2563 25.0706 15.2307 24.9712 15.18C24.8718 15.1294 24.7863 15.0553 24.7219 14.9642C24.7025 14.9379 24.6849 14.9102 24.6691 14.8815C24.6369 14.8296 24.5988 14.7816 24.5555 14.7386C24.4978 14.6726 24.427 14.6191 24.3477 14.5817C24.2684 14.5442 24.1822 14.5235 24.0945 14.5209C24.012 14.5224 23.9303 14.5369 23.8524 14.564C23.7434 14.602 23.6491 14.6732 23.5826 14.7674C23.516 14.8617 23.4805 14.9743 23.4811 15.0897C23.4761 15.2028 23.4812 15.3161 23.4963 15.4283V15.4384C23.51 15.5485 23.5378 15.6563 23.5791 15.7593C23.6507 15.918 23.7498 16.0629 23.8713 16.1877Z" fill="#2E2356"/>
<path d="M25.2874 19.029C25.1314 19.0289 24.9786 18.9851 24.8462 18.9026C24.8014 18.8769 24.7596 18.8461 24.7216 18.811C24.6392 18.7347 24.5647 18.666 24.4877 18.5973C24.169 18.3149 23.8444 18.0306 23.5306 17.7555C23.2954 17.5565 23.0712 17.3449 22.8588 17.1216L22.8567 17.1192C22.6267 16.8774 22.4417 16.5966 22.3102 16.2899C22.222 16.0763 22.1632 15.8516 22.1352 15.6222C22.109 15.43 22.1 15.2359 22.1084 15.0421C22.1193 14.6482 22.2506 14.267 22.4846 13.95C22.7186 13.6329 23.0441 13.3951 23.4173 13.2685H23.4219C23.639 13.1957 23.8664 13.1579 24.0954 13.1564C24.5246 13.1586 24.941 13.3022 25.2804 13.5649C25.3993 13.4757 25.5273 13.3993 25.6623 13.3372C25.923 13.2184 26.2063 13.1571 26.4928 13.1576C26.5404 13.1576 26.589 13.1595 26.6366 13.1628H26.6412C27.0783 13.1913 27.493 13.3666 27.8179 13.6604C28.1428 13.9541 28.359 14.349 28.4313 14.781C28.4633 14.9859 28.4705 15.1939 28.4527 15.4005C28.4407 15.6171 28.4045 15.8317 28.3446 16.0402L28.3425 16.0472C28.2421 16.374 28.0785 16.6778 27.861 16.9415C27.6701 17.1706 27.4605 17.3834 27.2344 17.5778C27.0857 17.7094 26.9346 17.841 26.7887 17.968C26.6427 18.095 26.4962 18.2226 26.3521 18.3503L26.3496 18.3524C26.24 18.4486 26.1328 18.5472 26.0196 18.6516C25.9628 18.7039 25.9059 18.7561 25.8489 18.8083C25.6963 18.9501 25.4957 19.029 25.2874 19.029ZM23.8673 16.1895C24.0467 16.3761 24.2356 16.5532 24.4334 16.7201C24.7103 16.9629 24.9958 17.2129 25.2798 17.4639C25.3327 17.4159 25.3864 17.3678 25.441 17.3198C25.5894 17.1885 25.7396 17.0575 25.8849 16.9311C26.0302 16.8047 26.1771 16.6768 26.3215 16.5489C26.4911 16.4045 26.6484 16.2464 26.792 16.0762L26.7939 16.0741C26.8975 15.9503 26.9761 15.8075 27.0253 15.6536C27.0561 15.5452 27.0747 15.4337 27.0809 15.3211V15.3181C27.0906 15.2189 27.0897 15.1189 27.0784 15.0198V15.0143C27.0594 14.8781 26.9904 14.754 26.8848 14.6659C26.7876 14.5836 26.6659 14.5358 26.5386 14.5301C26.5236 14.5301 26.5081 14.5301 26.4934 14.5301C26.4057 14.5293 26.3189 14.5474 26.2388 14.5832C26.0891 14.6564 25.9641 14.7719 25.8794 14.9154L25.8721 14.9267L25.8623 14.9407C25.8072 15.0277 25.7333 15.1012 25.646 15.1558C25.5586 15.2103 25.4602 15.2446 25.3578 15.2559C25.2555 15.2673 25.1519 15.2555 25.0547 15.2215C24.9575 15.1874 24.8693 15.132 24.7964 15.0592C24.7505 15.0132 24.7108 14.9613 24.6783 14.905C24.6489 14.8562 24.6147 14.8105 24.5763 14.7685L24.5674 14.7597C24.5097 14.69 24.4378 14.6334 24.3565 14.5936C24.2752 14.5538 24.1865 14.5318 24.096 14.5288C24.0129 14.5302 23.9304 14.5446 23.8518 14.5716C23.7428 14.6101 23.6485 14.6814 23.5818 14.7757C23.515 14.8701 23.4791 14.9827 23.479 15.0983C23.4739 15.2113 23.479 15.3245 23.4942 15.4366V15.4451C23.5074 15.5526 23.5352 15.6578 23.5767 15.7578L23.5794 15.7648C23.6494 15.9225 23.747 16.0664 23.8676 16.1898L23.8673 16.1895Z" fill="#2E2356"/>
<path d="M15.1094 5.99963C15.5572 6.00007 15.9976 6.11348 16.3899 6.32938C16.7764 6.5426 17.1144 6.83371 17.3825 7.18429C17.9544 7.94493 18.2578 8.8738 18.2451 9.82534C18.258 10.7772 17.9546 11.7064 17.3825 12.4673C17.1144 12.8179 16.7764 13.109 16.3899 13.3222C15.9978 13.5385 15.5572 13.6519 15.1094 13.6519C14.6616 13.6519 14.221 13.5385 13.8289 13.3222C13.4424 13.109 13.1044 12.8179 12.8363 12.4673C12.2642 11.7064 11.9608 10.7772 11.9737 9.82534C11.9608 8.87349 12.2642 7.94426 12.8363 7.18338C13.1044 6.83279 13.4424 6.54168 13.8289 6.32847C14.2213 6.11289 14.6617 5.99979 15.1094 5.99963ZM15.1094 12.2771C15.3449 12.267 15.5749 12.2026 15.7814 12.089C15.988 11.9754 16.1655 11.8156 16.3002 11.6222C16.6837 11.1027 16.8845 10.4709 16.8711 9.82534C16.8842 9.17967 16.6831 8.54783 16.2992 8.02851C16.1647 7.83516 15.9873 7.67547 15.7809 7.56188C15.5746 7.44829 15.3447 7.38385 15.1094 7.37359C14.8739 7.38371 14.6439 7.44808 14.4374 7.56168C14.2308 7.67528 14.0533 7.83504 13.9186 8.02851C13.5351 8.54795 13.3343 9.17978 13.3477 9.82534C13.3346 10.471 13.5357 11.1029 13.9196 11.6222C14.0541 11.8155 14.2315 11.9752 14.4379 12.0888C14.6442 12.2024 14.8741 12.2668 15.1094 12.2771Z" fill="#6CB8BC"/>
<path d="M21.2953 0C21.743 0.000431897 22.1835 0.11385 22.5758 0.32975C22.9622 0.542967 23.3002 0.834076 23.5684 1.18466C24.1403 1.9453 24.4436 2.87416 24.4309 3.82571C24.4438 4.77757 24.1404 5.70679 23.5684 6.46768C23.3002 6.81826 22.9622 7.10937 22.5758 7.32259C22.1836 7.53885 21.7431 7.65227 21.2953 7.65227C20.8474 7.65227 20.4069 7.53885 20.0147 7.32259C19.6283 7.10937 19.2903 6.81826 19.0221 6.46768C18.4501 5.70679 18.1467 4.77757 18.1596 3.82571C18.1467 2.87385 18.4501 1.94463 19.0221 1.18374C19.2903 0.83316 19.6283 0.542051 20.0147 0.328834C20.4071 0.113253 20.8475 0.000151245 21.2953 0ZM21.2953 6.27746C21.5308 6.26734 21.7607 6.20297 21.9673 6.08937C22.1738 5.97578 22.3514 5.81601 22.486 5.62254C22.8696 5.10311 23.0704 4.47128 23.057 3.82571C23.0701 3.18004 22.869 2.5482 22.4851 2.02888C22.3505 1.83553 22.1732 1.67584 21.9668 1.56225C21.7604 1.44865 21.5306 1.38422 21.2953 1.37396C21.0597 1.38408 20.8298 1.44845 20.6232 1.56205C20.4167 1.67565 20.2392 1.83541 20.1045 2.02888C19.7209 2.54831 19.5202 3.18014 19.5335 3.82571C19.5204 4.47138 19.7215 5.10322 20.1054 5.62254C20.24 5.81589 20.4173 5.97558 20.6237 6.08918C20.8301 6.20277 21.0599 6.2672 21.2953 6.27746Z" fill="#6CB8BC"/>
<path d="M35.2058 5.99963C35.6536 6.00007 36.0941 6.11348 36.4864 6.32938C36.8728 6.5426 37.2108 6.83371 37.479 7.18429C38.0508 7.94493 38.3542 8.8738 38.3415 9.82534C38.3544 10.7772 38.051 11.7064 37.479 12.4673C37.2108 12.8179 36.8728 13.109 36.4864 13.3222C36.0942 13.5385 35.6537 13.6519 35.2058 13.6519C34.758 13.6519 34.3175 13.5385 33.9253 13.3222C33.5388 13.109 33.2008 12.8179 32.9327 12.4673C32.3606 11.7064 32.0573 10.7772 32.0702 9.82534C32.0573 8.87349 32.3606 7.94426 32.9327 7.18338C33.2008 6.83279 33.5388 6.54168 33.9253 6.32847C34.3177 6.11289 34.7581 5.99979 35.2058 5.99963ZM35.2058 12.2771C35.4413 12.267 35.6713 12.2026 35.8779 12.089C36.0844 11.9754 36.2619 11.8156 36.3966 11.6222C36.7802 11.1027 36.9809 10.4709 36.9676 9.82534C36.9807 9.17967 36.7796 8.54783 36.3957 8.02851C36.2611 7.83516 36.0837 7.67547 35.8774 7.56188C35.671 7.44829 35.4412 7.38385 35.2058 7.37359C34.9703 7.38371 34.7403 7.44808 34.5338 7.56168C34.3273 7.67528 34.1497 7.83504 34.0151 8.02851C33.6315 8.54795 33.4307 9.17978 33.4441 9.82534C33.431 10.471 33.6321 11.1029 34.016 11.6222C34.1506 11.8155 34.3279 11.9752 34.5343 12.0888C34.7407 12.2024 34.9705 12.2668 35.2058 12.2771Z" fill="#6CB8BC"/>
<path d="M29.02 0C29.4677 0.000431897 29.9082 0.11385 30.3005 0.32975C30.6869 0.542967 31.0249 0.834076 31.2931 1.18466C31.865 1.9453 32.1683 2.87416 32.1556 3.82571C32.1685 4.77757 31.8651 5.70679 31.2931 6.46768C31.0249 6.81826 30.6869 7.10937 30.3005 7.32259C29.9083 7.53885 29.4678 7.65227 29.02 7.65227C28.5721 7.65227 28.1316 7.53885 27.7394 7.32259C27.353 7.10937 27.015 6.81826 26.7468 6.46768C26.1748 5.70679 25.8714 4.77757 25.8843 3.82571C25.8714 2.87385 26.1748 1.94463 26.7468 1.18374C27.015 0.83316 27.353 0.542051 27.7394 0.328834C28.1318 0.113253 28.5722 0.000151245 29.02 0ZM29.02 6.27746C29.2555 6.26734 29.4854 6.20297 29.692 6.08937C29.8985 5.97578 30.0761 5.81601 30.2107 5.62254C30.5943 5.10311 30.7951 4.47128 30.7817 3.82571C30.7948 3.18004 30.5937 2.5482 30.2098 2.02888C30.0752 1.83553 29.8979 1.67584 29.6915 1.56225C29.4851 1.44865 29.2553 1.38422 29.02 1.37396C28.7844 1.38408 28.5545 1.44845 28.3479 1.56205C28.1414 1.67565 27.9639 1.83541 27.8292 2.02888C27.4456 2.54831 27.2449 3.18014 27.2582 3.82571C27.2451 4.47138 27.4462 5.10322 27.8301 5.62254C27.9647 5.81589 28.1421 5.97558 28.3484 6.08918C28.5548 6.20277 28.7846 6.2672 29.02 6.27746Z" fill="#6CB8BC"/>
<path d="M25.1332 9.20245H25.1362C25.1482 9.20245 25.1603 9.20245 25.1723 9.20245C26.9621 9.26831 28.6761 9.94166 30.0321 11.1116C30.9271 11.8526 31.7281 12.7003 32.4173 13.6358C33.1341 14.5902 33.6612 15.6733 33.9699 16.8264C34.2449 17.9264 34.1533 19.0861 33.7091 20.1294C33.489 20.6463 33.1816 21.1214 32.8002 21.5339C32.4055 21.9607 31.9343 22.3097 31.411 22.5628C30.763 22.8734 30.0533 23.0338 29.3347 23.0321C28.6787 23.0323 28.0294 22.8999 27.4259 22.6428C27.0323 22.4746 26.6442 22.2905 26.2687 22.1125C25.8931 21.9345 25.5148 21.7552 25.1338 21.5934C24.7524 21.7559 24.3705 21.9372 23.9989 22.1125C23.6273 22.2877 23.2356 22.4746 22.8408 22.6431C22.2374 22.8985 21.5887 23.0299 20.9335 23.0297C20.2152 23.0315 19.5057 22.8721 18.8572 22.5631C18.3337 22.3101 17.8622 21.9612 17.4671 21.5345C17.0855 21.1221 16.778 20.6469 16.5579 20.13C16.1146 19.0862 16.0239 17.9264 16.2995 16.8264C16.6083 15.6736 17.1354 14.5906 17.8521 13.6364C18.5414 12.7008 19.3425 11.853 20.2376 11.112C21.5935 9.94238 23.3071 9.26926 25.0965 9.20337C25.109 9.20276 25.1212 9.20245 25.1332 9.20245ZM29.3357 21.6597C29.8462 21.6615 30.3506 21.5482 30.8113 21.3281C31.181 21.1493 31.5138 20.9029 31.7926 20.6014C32.0671 20.304 32.2882 19.9615 32.4463 19.589C32.7727 18.8223 32.8399 17.97 32.6377 17.1616C32.391 16.1794 31.6103 14.2253 29.15 12.165C28.0314 11.1943 26.615 10.6342 25.135 10.5773C23.6551 10.6343 22.2389 11.1943 21.1203 12.165C20.0639 13.0505 18.2066 14.8745 17.6326 17.1613C17.4302 17.9702 17.4973 18.823 17.8237 19.5902C17.9817 19.9625 18.2028 20.3048 18.4771 20.602C18.7558 20.9032 19.0885 21.1494 19.4578 21.3281C19.9193 21.547 20.4239 21.6597 20.9347 21.6578C21.4041 21.6588 21.869 21.5653 22.3016 21.3831C22.6711 21.2252 23.0307 21.0545 23.4115 20.8741C23.8679 20.6579 24.34 20.4341 24.8254 20.2366C24.9076 20.2031 24.9956 20.1859 25.0843 20.1859H25.1851C25.2739 20.1859 25.3618 20.2031 25.444 20.2366C25.9295 20.4344 26.4015 20.6579 26.858 20.8741C27.2387 21.0545 27.5984 21.2249 27.9678 21.3831H27.9693C28.4014 21.5667 28.8662 21.661 29.3357 21.6603V21.6597Z" fill="#6CB8BC"/>
</svg>
