<svg xmlns="http://www.w3.org/2000/svg" width="48" height="43.411" viewBox="0 0 48 43.411">
  <path id="Union_3" data-name="Union 3" d="M9767.835,13334.573c-.267-1.405-.351-2.848-.524-4.323-.268.3-.539.611-.828.913a.815.815,0,1,1-1.2-1.089c.81-.908,1.625-1.814,2.449-2.707a.77.77,0,0,1,1.271-.039c.863.9,1.7,1.83,2.53,2.767a.776.776,0,0,1-.046,1.138.816.816,0,0,1-1.174-.09c-.395-.416-.77-.849-1.205-1.334a3.189,3.189,0,0,0-.059.373,20.032,20.032,0,0,0,39.564,4.706c.146-.624.23-1.264.346-1.9.1-.557.443-.838.934-.771a.828.828,0,0,1,.669,1.019,21.735,21.735,0,0,1-17.137,18.45,21.334,21.334,0,0,1-4.347.449A21.713,21.713,0,0,1,9767.835,13334.573Zm25.924,8.933c-2.753-.012-5.5-.006-8.259-.006h-8.256c-.859,0-1.123-.262-1.109-1.12q.138-8.07.279-16.14a1.106,1.106,0,0,1,.561-1c2.837-1.8,5.663-3.615,8.508-5.4a1.831,1.831,0,0,1,.945-.257c4.846.076,9.69.174,14.535.266.81.015,1.093.3,1.093,1.111,0,4.6.01,9.207-.015,13.809a1.6,1.6,0,0,1-.386.988c-2.272,2.455-4.578,4.883-6.868,7.324a1.291,1.291,0,0,1-1.016.43Zm-15.991-1.674h15.467c.074-4.99.148-9.939.225-14.916h-4.76v.662c0,2.115.009,4.23,0,6.346,0,.785-.548,1.121-1.265.8-.107-.049-.21-.106-.316-.157-.591-.29-1.185-.815-1.77-.807-.6.011-1.2.536-1.791.847-.96.506-1.478.2-1.478-.9q0-3.146,0-6.294c0-.178-.016-.355-.023-.523h-4.037C9777.937,13331.887,9777.852,13336.853,9777.768,13341.832Zm17.484-15.466a.7.7,0,0,0-.166.484q-.111,6.57-.2,13.14c0,.16,0,.319,0,.479l.138.073a5.293,5.293,0,0,1,.331-.434c1.582-1.687,3.164-3.377,4.763-5.052a1.127,1.127,0,0,0,.327-.854q-.016-5.632-.007-11.264v-.616C9798.629,13323.726,9796.932,13325.036,9795.252,13326.366Zm-8.176,6.425c0-2.234.01-4.312-.009-6.393a1.324,1.324,0,0,1,.571-1.162c1.521-1.15,3.027-2.322,4.539-3.486.14-.108.274-.223.412-.332l-.035-.135c-.4,0-.8.029-1.2-.007a1.634,1.634,0,0,0-1.2.378q-3.009,2.276-6.059,4.5a.869.869,0,0,0-.395.8c.018,1.725.008,3.45.01,5.176,0,.158.02.315.041.652a2.019,2.019,0,0,1,1.492-.759A3.35,3.35,0,0,1,9787.076,13332.791Zm8.407-11.411a.849.849,0,0,0-.434.218q-2.19,1.674-4.372,3.359a1.712,1.712,0,0,1-.3.15l.105.154c1.125,0,2.251,0,3.375-.007a.574.574,0,0,0,.318-.127q2.3-1.78,4.592-3.569c-.008-.062-.014-.127-.021-.189l-1.507,0C9796.654,13321.367,9796.068,13321.37,9795.483,13321.38Zm-9.9.274c-1.6,1.117-3.284,2.124-4.934,3.176-.16.1-.315.213-.595.4.9,0,1.645.007,2.384,0a.683.683,0,0,0,.366-.131c1.684-1.242,3.362-2.49,5.17-3.831-.3-.017-.588-.034-.855-.034A2.5,2.5,0,0,0,9785.583,13321.654Zm23.614,6.844q-1.4-.814-2.795-1.641a.822.822,0,1,1,.823-1.4c.453.259.9.525,1.463.854a17.41,17.41,0,0,0-1.489-4.463c-3.314-6.592-8.607-10.489-15.937-11.355a19.865,19.865,0,0,0-20.251,11.242c-.021.046-.04.093-.062.139-.3.618-.72.829-1.19.6s-.578-.693-.271-1.311c3.429-6.866,8.9-11.031,16.485-12.191a21.58,21.58,0,0,1,24.215,16.578c.028.129.073.256.129.451.4-.473.771-.908,1.146-1.337.4-.457.858-.54,1.236-.23.4.33.405.795-.009,1.29q-1.075,1.283-2.163,2.554a.961.961,0,0,1-.714.431A1.256,1.256,0,0,1,9809.2,13328.5Z" transform="translate(-9765 -13308.728)" fill="currentColor"/>
</svg>
