<svg width="48" height="48" viewBox="0 0 48 48" fill="none" xmlns="http://www.w3.org/2000/svg">
<path d="M37.32 0.001C36.8612 0.9923 36.6597 2.08322 36.734 3.173L39.678 1.635L39.753 1.718C39.2302 2.86211 39.0643 4.13721 39.277 5.377L37.07 4.366C37.3276 4.90579 37.7852 5.32402 38.346 5.532C39.1757 5.85113 39.9299 6.33961 40.5604 6.96632C41.1909 7.59302 41.6839 8.34421 42.008 9.172C42.2856 10.0554 42.5096 10.9547 42.679 11.865C42.7983 12.3503 42.9263 12.8337 43.063 13.315C43.118 13.509 43.244 13.579 43.471 13.559C43.6721 13.5342 43.8753 13.5832 44.043 13.6968C44.2107 13.8104 44.3315 13.9811 44.383 14.177C44.44 14.3777 44.4254 14.5919 44.3419 14.7831C44.2583 14.9743 44.111 15.1305 43.925 15.225C43.806 15.2923 43.7054 15.3877 43.632 15.503C43.0888 16.4317 42.3608 17.239 41.493 17.875C40.8133 18.3351 40.0029 18.5628 39.183 18.524C38.408 18.541 37.63 18.495 36.859 18.546C36.397 18.5827 35.9431 18.6878 35.512 18.858C35.1663 18.9658 34.8674 19.1877 34.6641 19.4874C34.4608 19.7871 34.3653 20.1469 34.393 20.508C34.4686 21.4048 34.613 22.2944 34.825 23.169C35.106 24.414 35.511 25.633 35.76 26.883C36.0565 28.7909 35.9729 30.7385 35.514 32.614C35.101 34.714 34.672 36.814 34.37 38.936C34.2666 39.8457 34.3078 40.7661 34.492 41.663C34.5584 42.2058 34.8331 42.7016 35.2581 43.0457C35.6832 43.3897 36.2253 43.5551 36.77 43.507C37.5882 43.6062 38.3452 43.991 38.9075 44.5936C39.4698 45.1962 39.8015 45.9779 39.844 46.801C39.8569 46.9509 39.8367 47.1018 39.7851 47.243C39.7334 47.3843 39.6514 47.5125 39.5448 47.6187C39.4382 47.7249 39.3097 47.8065 39.1682 47.8576C39.0268 47.9088 38.8758 47.9284 38.726 47.915C37.162 47.929 35.599 47.925 34.035 47.915C33.7629 47.9008 33.4965 47.8321 33.2515 47.7129C33.0065 47.5936 32.788 47.4264 32.609 47.221C31.933 46.5388 31.4098 45.7208 31.074 44.821C30.608 43.621 30.219 42.389 29.83 41.161C29.7933 40.9379 29.8283 40.7089 29.93 40.507C30.3979 39.5479 30.5905 38.4778 30.4865 37.4157C30.3825 36.3536 29.986 35.3412 29.341 34.491C28.3745 33.2366 26.971 32.3923 25.41 32.126C23.0661 31.6577 20.6319 32.07 18.573 33.284C18.531 33.307 18.497 33.343 18.546 33.305C19.315 33.091 20.165 32.786 21.046 32.625C22.7839 32.2771 24.5876 32.4969 26.191 33.252C26.9709 33.571 27.6662 34.0664 28.2223 34.6995C28.7784 35.3326 29.1801 36.086 29.3958 36.9005C29.6115 37.715 29.6354 38.5685 29.4656 39.3938C29.2957 40.2191 28.9368 40.9938 28.417 41.657C27.9044 42.3082 27.3573 42.9314 26.778 43.524C27.0318 43.508 27.2864 43.5097 27.54 43.529C28.2883 43.6949 28.9639 44.0961 29.4677 44.6737C29.9715 45.2513 30.2772 45.9751 30.34 46.739C30.3573 46.9017 30.3372 47.0661 30.2814 47.2198C30.2255 47.3736 30.1354 47.5126 30.0177 47.6262C29.9001 47.7399 29.7581 47.8253 29.6026 47.8758C29.447 47.9264 29.282 47.9408 29.12 47.918C27.12 47.9347 25.117 47.9483 23.111 47.959C21.418 47.97 19.725 48.025 18.034 47.981C15.6852 47.9804 13.3602 47.5112 11.195 46.601C8.23178 45.3361 5.77808 43.1144 4.226 40.291C3.64091 39.3566 3.25122 38.3133 3.08044 37.2241C2.90966 36.1349 2.96134 35.0224 3.23236 33.9538C3.50338 32.8851 3.98812 31.8825 4.65732 31.0063C5.32652 30.1301 6.16631 29.3987 7.126 28.856C8.262 28.125 9.516 27.581 10.684 26.896C11.7857 26.2773 12.8499 25.5942 13.871 24.85C14.5215 24.3867 15.0662 23.7905 15.4691 23.101C15.8719 22.4114 16.1238 21.6442 16.208 20.85C16.317 19.8948 16.145 18.9286 15.7132 18.0697C15.2815 17.2107 14.6086 16.4964 13.777 16.014C13.2705 15.7565 12.7126 15.6159 12.1445 15.6025C11.5765 15.5891 11.0126 15.7032 10.4945 15.9366C9.97637 16.1699 9.51718 16.5165 9.15072 16.9508C8.78426 17.3851 8.51987 17.896 8.377 18.446C8.27016 18.9153 8.28411 19.404 8.41755 19.8664C8.551 20.3288 8.79956 20.7498 9.14 21.09C9.81398 21.7739 10.6447 22.2829 11.56 22.573C11.7691 22.6376 11.9725 22.7196 12.168 22.818C12.4065 22.9149 12.5985 23.1 12.7039 23.3349C12.8093 23.5697 12.8201 23.8362 12.7341 24.0788C12.648 24.3214 12.4717 24.5215 12.2418 24.6374C12.012 24.7533 11.7462 24.7761 11.5 24.701C11.2095 24.6426 10.9247 24.5586 10.649 24.45C9.73673 24.1164 8.89044 23.6245 8.149 22.997C7.46156 22.4321 6.92996 21.7007 6.60473 20.8725C6.27949 20.0443 6.1714 19.1467 6.29074 18.2649C6.41008 17.3831 6.75288 16.5465 7.28657 15.8346C7.82026 15.1226 8.52712 14.5589 9.34 14.197C10.1682 13.7913 11.0774 13.5779 11.9996 13.5727C12.9218 13.5674 13.8333 13.7704 14.6662 14.1666C15.499 14.5627 16.2316 15.1418 16.8094 15.8607C17.3871 16.5795 17.7952 17.4195 18.003 18.318C18.3752 19.5178 18.4167 20.7959 18.1232 22.0173C17.8296 23.2388 17.2118 24.3584 16.335 25.258C15.0104 26.6031 13.4795 27.7279 11.8 28.59C10.81 29.148 9.8 29.677 8.816 30.237C7.71952 30.8304 6.78287 31.6802 6.086 32.714C5.50443 33.5608 5.15048 34.5429 5.05819 35.5661C4.96589 36.5892 5.13836 37.6188 5.559 38.556C6.30196 40.2341 7.51831 41.6589 9.059 42.656C9.425 42.914 9.589 42.835 9.572 42.389C9.41 37.914 11.443 34.36 14.272 31.137C16.22 28.918 18.44 26.977 20.572 24.948C22.07 23.526 23.531 22.065 24.955 20.565C26.5109 18.8852 27.3579 16.6693 27.319 14.38C27.2988 13.3223 27.3432 12.2643 27.452 11.212C27.8307 8.92876 28.8443 6.7982 30.377 5.064C32.1177 2.96591 34.3238 1.30283 36.82 0.207C36.959 0.145 37.102 0.09 37.32 0M41.105 10.46C41.0096 10.3141 40.8846 10.1898 40.7381 10.0951C40.5917 10.0005 40.427 9.93759 40.2547 9.91055C40.0825 9.8835 39.9064 9.89289 39.738 9.93809C39.5696 9.9833 39.4126 10.0633 39.277 10.173C39.0241 10.3986 38.8682 10.7131 38.8417 11.051C38.8152 11.3888 38.9203 11.7238 39.135 11.986C39.2304 12.1191 39.3522 12.2312 39.4928 12.3153C39.6335 12.3993 39.7898 12.4535 39.9523 12.4745C40.1148 12.4955 40.2798 12.4829 40.4372 12.4374C40.5945 12.3919 40.7408 12.3145 40.867 12.21C40.073 12.031 39.707 11.626 39.828 11.061C39.945 10.515 40.389 10.297 41.104 10.461" fill="currentColor"/>
</svg>
