<svg width="48" height="48" viewBox="0 0 48 48" fill="none" xmlns="http://www.w3.org/2000/svg">
<path d="M30.2626 3.26901C29.6806 2.14201 29.5876 0.892006 30.8066 0.300006C31.7154 -0.0866907 32.7402 -0.0985523 33.6576 0.267006C34.8826 0.830006 34.8696 2.06701 34.2706 3.21401C36.9946 5.84501 37.3366 8.46401 35.2366 10.445C34.8215 10.8393 34.3324 11.1473 33.7975 11.3513C33.2626 11.5553 32.6925 11.6512 32.1203 11.6334C31.5481 11.6156 30.9851 11.4846 30.4638 11.2478C29.9426 11.011 29.4735 10.6733 29.0836 10.254C27.1436 8.17701 27.5706 5.58201 30.2596 3.26901H30.2626Z" fill="currentColor"/>
<path d="M37.2638 18.376C37.3914 19.4067 37.5203 20.4375 37.6493 21.4682C37.9896 24.1875 38.3298 26.907 38.6438 29.627C38.6679 29.8357 38.7061 30.0489 38.7445 30.2629C38.9311 31.303 39.1212 32.3627 37.7038 33.022C37.4911 33.12 37.4899 33.7811 37.4891 34.2372L37.4888 34.332C37.4804 36.1851 37.4808 38.0384 37.4813 39.8914V39.8937C37.4816 41.5737 37.482 43.2533 37.4758 44.932C37.4688 46.843 36.5848 47.966 35.1148 47.996C33.5868 48.027 32.6438 46.865 32.6358 44.877C32.631 43.6875 32.6327 42.4978 32.6343 41.308C32.6375 39.015 32.6406 36.7218 32.5978 34.43C32.5917 34.0968 32.3655 33.7678 32.1393 33.4388C32.0349 33.287 31.9305 33.1352 31.8478 32.983C31.7621 33.1361 31.6537 33.2889 31.5453 33.4416C31.3112 33.7717 31.077 34.1017 31.0708 34.436C31.0253 36.8367 31.0287 39.2388 31.0321 41.6398C31.0337 42.7721 31.0353 43.9044 31.0318 45.036C31.0258 46.919 30.0968 48.025 28.5948 47.987C27.1658 47.951 26.2788 46.865 26.2708 45.064C26.2652 43.8136 26.2671 42.5633 26.2689 41.313C26.2723 38.9766 26.2758 36.6402 26.2308 34.305C26.2247 33.9742 26.0279 33.6527 25.8277 33.3258C25.6987 33.1151 25.5683 32.9021 25.4868 32.683C25.1702 32.0773 24.9877 31.4105 24.9518 30.728C25.3021 27.4534 25.7091 24.1846 26.116 20.9162L26.1162 20.9147C26.2471 19.8638 26.3779 18.813 26.5068 17.762L26.0188 17.656C25.8876 17.9851 25.7747 18.3213 25.6808 18.663C25.1428 21.0963 24.6135 23.5317 24.0928 25.969C23.8188 27.247 23.2618 28.234 21.7588 28.215C20.2558 28.196 19.7208 27.222 19.4588 25.929C18.8571 22.9313 18.2332 19.9413 17.608 16.9448L17.5728 16.776C17.5061 16.3627 17.2966 15.9858 16.9808 15.711L16.9568 44.467C16.9568 44.5363 16.9575 44.6057 16.9582 44.675C16.9595 44.8137 16.9608 44.9523 16.9568 45.091C16.9762 45.4161 16.9304 45.7418 16.8221 46.049C16.7138 46.3562 16.5452 46.6386 16.3261 46.8796C16.1071 47.1206 15.842 47.3154 15.5466 47.4525C15.2512 47.5897 14.9313 47.6663 14.6058 47.678C14.2795 47.6802 13.9562 47.6154 13.6559 47.4878C13.3556 47.3602 13.0847 47.1723 12.8598 46.9359C12.6349 46.6995 12.4608 46.4195 12.3484 46.1132C12.2359 45.8069 12.1874 45.4808 12.2058 45.155C12.1695 44.0681 12.1771 42.9802 12.1846 41.892C12.1879 41.4204 12.1911 40.9486 12.1908 40.477C12.1908 39.6762 12.194 38.8753 12.1972 38.0744C12.2063 35.808 12.2154 33.5417 12.1518 31.277C11.9964 30.6092 11.7209 29.9753 11.3388 29.406C10.986 30.0032 10.7365 30.6557 10.6008 31.336C10.5502 34.5168 10.5561 37.6988 10.562 40.881C10.5639 41.9096 10.5658 42.9383 10.5658 43.967C10.5658 44.0788 10.5671 44.1906 10.5684 44.3024C10.572 44.6069 10.5755 44.9112 10.5528 45.214C10.5507 45.8484 10.2967 46.456 9.84656 46.9031C9.39648 47.3501 8.78722 47.6001 8.15282 47.598C7.51842 47.5959 6.91085 47.3418 6.46376 46.8917C6.01668 46.4417 5.7667 45.8324 5.76882 45.198C5.72252 43.3271 5.72861 41.455 5.73469 39.5831C5.73689 38.9077 5.73909 38.2323 5.73882 37.557C5.73882 31.74 5.73882 25.922 5.50182 20.099C5.45188 20.8486 5.40454 21.5986 5.3572 22.3485C5.24907 24.0615 5.14091 25.7748 5.00182 27.485C4.87282 29.066 3.88882 29.977 2.63182 29.722C2.38377 29.6916 2.1443 29.6119 1.92751 29.4875C1.71073 29.3632 1.521 29.1968 1.36949 28.998C1.21798 28.7993 1.10776 28.5722 1.0453 28.3303C0.982848 28.0883 0.969424 27.8362 1.00582 27.589C1.05145 26.8591 1.09664 26.1291 1.14183 25.3991C1.42738 20.7859 1.71309 16.17 2.11282 11.571C2.19405 11.162 2.37221 10.7784 2.63235 10.4525C2.89248 10.1266 3.227 9.86788 3.60782 9.698L3.63489 9.69071C4.65711 9.41515 5.86046 9.09076 6.83782 10.308C7.35207 11.0183 8.02595 11.5979 8.80519 12.0002C9.58442 12.4024 10.4472 12.616 11.3241 12.6238C12.201 12.6316 13.0675 12.4333 13.8537 12.045C14.64 11.6566 15.324 11.0891 15.8508 10.388C16.2175 9.91953 16.7359 9.5934 17.317 9.46566C17.898 9.33792 18.5054 9.41653 19.0348 9.688C19.4226 9.89712 19.7636 10.1833 20.0369 10.5289C20.3101 10.8746 20.5099 11.2724 20.6238 11.698C20.8483 12.473 21.016 13.2647 21.1852 14.0641C21.393 15.045 21.6031 16.0376 21.9238 17.025C22.1815 15.556 22.5305 14.1045 22.9688 12.679C23.2502 11.8392 23.8419 11.1388 24.6228 10.721C25.1512 10.4425 25.7562 10.3448 26.3453 10.4429C26.9344 10.541 27.4752 10.8294 27.8848 11.264C28.4225 11.887 29.0867 12.3884 29.8331 12.7349C30.5795 13.0814 31.3912 13.2651 32.2141 13.2738C33.0369 13.2825 33.8523 13.116 34.6059 12.7854C35.3594 12.4547 36.034 11.9675 36.5848 11.356C38.0468 9.885 39.9148 10.329 40.4438 12.339C41.3812 15.9043 42.2725 19.4813 43.1178 23.07C43.1556 23.4682 43.3258 23.8422 43.6011 24.1322C43.8765 24.4223 44.2412 24.6116 44.6368 24.67C45.175 24.8263 45.6755 25.0912 46.1075 25.4482C46.5394 25.8052 46.8938 26.2469 47.1487 26.746C47.4036 27.2451 47.5536 27.7911 47.5896 28.3504C47.6256 28.9096 47.5467 29.4704 47.3578 29.998C47.2562 30.2188 47.1035 30.4122 46.9121 30.5621C46.7208 30.712 46.4965 30.8142 46.2578 30.86C45.8818 30.86 45.4218 30.371 45.1578 29.988C45.0194 29.7867 45.0368 29.4691 45.0535 29.1652C45.0581 29.0826 45.0625 29.0009 45.0638 28.923C45.0758 27.935 45.0328 26.868 43.7208 26.931C42.4768 26.991 42.4438 28.031 42.4488 29.031C42.4634 31.7146 42.461 34.3987 42.4586 37.0829C42.4577 38.0896 42.4568 39.0963 42.4568 40.103V46.184C42.4568 47.075 42.3008 48.058 41.1918 47.852C40.7278 47.766 40.1158 46.774 40.1098 46.188C40.0797 43.3666 40.0854 40.5446 40.0911 37.7227C40.0979 34.3593 40.1047 30.9961 40.0508 27.634C39.8831 26.15 39.5528 24.6889 39.0658 23.277C38.7799 22.1165 38.4831 20.9579 38.1866 19.8003C38.061 19.3102 37.9354 18.8198 37.8108 18.33L37.2668 18.383L37.2638 18.376Z" fill="currentColor"/>
<path d="M13.0997 2.82649C12.579 2.60094 12.019 2.48015 11.4516 2.47102C10.3057 2.45259 9.19947 2.8901 8.37619 3.68732C7.5529 4.48454 7.08003 5.57615 7.06159 6.72202C7.04316 7.86789 7.48068 8.97414 8.2779 9.79743C9.07511 10.6207 10.1667 11.0936 11.3126 11.112C11.88 11.1211 12.4436 11.0184 12.9713 10.8097C13.499 10.601 13.9804 10.2905 14.388 9.89572C14.7957 9.50098 15.1216 9.02981 15.3471 8.50911C15.5727 7.98842 15.6935 7.4284 15.7026 6.86102C15.7117 6.29364 15.609 5.73002 15.4003 5.20234C15.1916 4.67466 14.881 4.19326 14.4863 3.78561C14.0916 3.37796 13.6204 3.05205 13.0997 2.82649Z" fill="currentColor"/>
</svg>
