<svg width="48" height="48" viewBox="0 0 48 48" fill="none" xmlns="http://www.w3.org/2000/svg">
<path d="M20.4041 4.36498C20.4012 5.22539 20.1431 6.06561 19.6627 6.7794C19.1823 7.4932 18.501 8.04853 17.705 8.3752C16.909 8.70186 16.0341 8.78518 15.1907 8.61463C14.3474 8.44408 13.5735 8.02732 12.967 7.41703C12.3605 6.80674 11.9485 6.03032 11.7832 5.18593C11.6179 4.34155 11.7066 3.4671 12.0382 2.67315C12.3698 1.87919 12.9294 1.20138 13.6461 0.725389C14.3629 0.2494 15.2047 -0.00338901 16.0651 -0.00102111C16.6369 -0.000369633 17.203 0.113169 17.7308 0.333082C18.2587 0.552995 18.7379 0.874955 19.141 1.28049C19.5441 1.68603 19.8632 2.16717 20.08 2.69631C20.2967 3.22545 20.4069 3.79217 20.4041 4.36398V4.36498Z" fill="currentColor"/>
<path d="M26.481 1.93478C26.0029 2.65025 25.7479 3.49146 25.748 4.35195C25.7477 4.92254 25.8597 5.48763 26.0776 6.01494C26.2956 6.54225 26.6154 7.02146 27.0185 7.42521C27.4217 7.82896 27.9005 8.14934 28.4275 8.36806C28.9545 8.58678 29.5195 8.69956 30.09 8.69995C30.9505 8.70133 31.7921 8.44742 32.5082 7.97035C33.2244 7.49327 33.7829 6.81448 34.1131 6.01987C34.4433 5.22525 34.5304 4.35054 34.3633 3.50643C34.1962 2.66232 33.7824 1.88675 33.1744 1.27787C32.5663 0.668992 31.7913 0.254174 30.9475 0.0859112C30.1036 -0.0823511 29.2288 0.0035066 28.4337 0.332619C27.6386 0.661731 26.9591 1.2193 26.481 1.93478Z" fill="currentColor"/>
<path fill-rule="evenodd" clip-rule="evenodd" d="M23.38 11.556L23.149 11.81C23.1302 11.7891 23.1136 11.7712 23.0986 11.7549C23.0712 11.7252 23.049 11.7012 23.029 11.676C22.5123 10.9975 21.8405 10.4527 21.0699 10.0873C20.2993 9.72195 19.4523 9.54661 18.6 9.57598C17.4474 9.58265 16.2949 9.58043 15.1423 9.5782C14.566 9.57709 13.9893 9.57598 13.413 9.57598C12.6971 9.56052 11.9856 9.69027 11.3213 9.95739C10.6569 10.2245 10.0536 10.6235 9.54776 11.1302C9.04188 11.6369 8.64392 12.2409 8.3779 12.9056C8.11189 13.5704 7.98332 14.2822 7.99997 14.998V26.262C8.0005 26.491 8.05754 26.7164 8.16603 26.9181C8.27452 27.1198 8.43111 27.2916 8.6219 27.4183C8.8127 27.545 9.03181 27.6227 9.25982 27.6444C9.48782 27.6662 9.71766 27.6313 9.92897 27.543C10.2088 27.4232 10.4433 27.2176 10.5987 26.9559C10.7542 26.6943 10.8226 26.39 10.794 26.087V15.467C10.794 15.4399 10.7915 15.4115 10.7891 15.383C10.7833 15.3146 10.7774 15.2458 10.805 15.195C10.8784 15.0884 10.964 14.9908 11.06 14.904C11.1675 14.9911 11.2678 15.0868 11.36 15.19C11.3851 15.223 11.3803 15.2797 11.3756 15.3356C11.3738 15.3577 11.372 15.3796 11.372 15.4V45.909C11.3824 46.2538 11.4776 46.5908 11.6493 46.8901C11.8209 47.1894 12.0636 47.4418 12.356 47.625C12.6822 47.8524 13.0662 47.9825 13.4635 48.0002C13.8607 48.0179 14.2548 47.9225 14.6 47.725C14.9655 47.5448 15.271 47.2626 15.4795 46.9124C15.6881 46.5623 15.7907 46.1592 15.775 45.752V32.952C15.775 32.923 15.7724 32.8922 15.7697 32.8611C15.7633 32.7853 15.7567 32.708 15.788 32.652C15.849 32.544 15.964 32.394 16.06 32.396C16.156 32.398 16.274 32.544 16.336 32.653C16.3674 32.7073 16.3611 32.786 16.3549 32.863C16.3524 32.8938 16.35 32.9244 16.35 32.953V45.813C16.3556 46.2435 16.4875 46.6629 16.7292 47.0192C16.971 47.3755 17.3119 47.6531 17.7099 47.8175C18.1078 47.9818 18.5453 48.0258 18.968 47.944C19.3907 47.8621 19.7801 47.658 20.088 47.357C20.1625 47.2716 20.2021 47.1613 20.199 47.048C20.197 46.9406 20.1813 46.8333 20.1656 46.7259C20.1488 46.6113 20.132 46.4966 20.132 46.382C20.1253 41.9113 20.1253 37.4403 20.132 32.969C20.1371 32.8685 20.1194 32.7682 20.0803 32.6756C20.0411 32.5829 19.9815 32.5003 19.906 32.434C19.6376 32.1801 19.3776 31.9168 19.1177 31.6535C19.0183 31.5528 18.9188 31.4521 18.819 31.352C17.599 30.1286 16.377 28.907 15.153 27.687C14.9835 27.5368 14.8544 27.3465 14.7774 27.1336C14.7003 26.9207 14.6779 26.6918 14.712 26.468C14.7486 26.2112 14.8569 25.97 15.0244 25.772C15.1918 25.574 15.4117 25.4271 15.6587 25.3483C15.9058 25.2695 16.1701 25.2619 16.4213 25.3264C16.6725 25.3909 16.9004 25.5249 17.079 25.713L17.6247 26.2566C18.5952 27.2229 19.5658 28.1893 20.525 29.167C20.6189 29.2709 20.735 29.3523 20.8646 29.4053C20.9943 29.4583 21.1342 29.4814 21.274 29.473C22.543 29.458 23.811 29.461 25.08 29.473C25.1995 29.4797 25.319 29.4598 25.4299 29.4147C25.5407 29.3695 25.6402 29.3003 25.721 29.212C26.8658 28.0572 28.0155 26.9074 29.1653 25.7576C29.4084 25.4892 29.7435 25.3206 30.104 25.286C30.3969 25.2631 30.6896 25.3338 30.9397 25.488C31.1899 25.6421 31.3846 25.8717 31.4959 26.1437C31.6071 26.4157 31.6291 26.7159 31.5586 27.0012C31.4882 27.2865 31.329 27.542 31.104 27.731C29.5386 29.303 27.9673 30.8696 26.39 32.431C26.3163 32.4985 26.2585 32.5815 26.2207 32.674C26.1828 32.7665 26.1659 32.8662 26.171 32.966C26.1763 37.4366 26.1763 41.9076 26.171 46.379C26.1739 46.6131 26.1402 46.8463 26.071 47.07C26.0344 47.1406 26.0262 47.2225 26.0481 47.299C26.0701 47.3754 26.1205 47.4406 26.189 47.481C26.5055 47.7543 26.8955 47.9285 27.3104 47.9818C27.7252 48.0352 28.1465 47.9653 28.522 47.781C28.914 47.6186 29.2467 47.3396 29.4749 46.9819C29.7031 46.6242 29.8159 46.2049 29.798 45.781V32.89C29.8028 32.8184 29.8028 32.7466 29.798 32.675C29.762 32.411 29.884 32.323 30.131 32.361C30.1766 32.3676 30.2226 32.3711 30.274 32.3751C30.3003 32.3771 30.3283 32.3793 30.358 32.382C30.36 32.4111 30.3622 32.4392 30.3644 32.4666C30.3699 32.5352 30.375 32.5994 30.375 32.663V35.548C30.3683 38.9446 30.3683 42.3413 30.375 45.738C30.3756 46.0269 30.433 46.3129 30.5442 46.5795C30.6553 46.8462 30.8178 47.0884 31.0225 47.2923C31.2272 47.4962 31.4701 47.6577 31.7372 47.7677C32.0044 47.8778 32.2906 47.9341 32.5795 47.9335C32.8684 47.9329 33.1543 47.8754 33.421 47.7643C33.6877 47.6532 33.9299 47.4906 34.1338 47.2859C34.3377 47.0812 34.4992 46.8384 34.6092 46.5712C34.7192 46.3041 34.7756 46.0179 34.775 45.729C34.783 41.391 34.783 37.053 34.775 32.715C34.774 32.434 34.852 32.354 35.135 32.354C36.1062 32.3651 37.078 32.3636 38.0495 32.362C38.3874 32.3615 38.7252 32.361 39.063 32.361H39.478L34.807 14.923C34.9992 14.9107 35.1889 14.9722 35.3375 15.0947C35.4861 15.2173 35.5825 15.3919 35.607 15.583C36.001 17.0636 36.398 18.5446 36.798 20.026C36.8976 20.3989 36.9971 20.7719 37.0965 21.1449C37.4052 22.3025 37.7138 23.4604 38.03 24.616C38.069 24.8048 38.1467 24.9836 38.258 25.141C38.3694 25.2984 38.5121 25.4312 38.6771 25.5309C38.8422 25.6306 39.0261 25.6951 39.2173 25.7204C39.4084 25.7457 39.6028 25.7312 39.7881 25.6779C39.9734 25.6246 40.1457 25.5336 40.2942 25.4105C40.4427 25.2875 40.5642 25.1351 40.651 24.9629C40.7378 24.7907 40.7882 24.6025 40.7988 24.4099C40.8095 24.2174 40.7803 24.0247 40.713 23.844C39.826 20.506 38.938 17.166 38.026 13.833C37.6915 12.6025 36.9588 11.5176 35.9424 10.7477C34.9259 9.97785 33.683 9.56651 32.408 9.57798C31.8934 9.57798 31.3787 9.57698 30.8639 9.57598C29.8342 9.57398 28.8039 9.57198 27.774 9.57798C26.942 9.57005 26.1183 9.7428 25.3597 10.0843C24.6011 10.4258 23.9256 10.9279 23.38 11.556ZM25.4845 24.58C25.7903 25.0429 25.9519 25.5862 25.949 26.141C25.9445 26.8846 25.6451 27.596 25.1166 28.1191C24.5881 28.6422 23.8736 28.9342 23.13 28.931C22.5752 28.9282 22.0336 28.761 21.5739 28.4504C21.1141 28.1398 20.7568 27.6999 20.5471 27.1862C20.3374 26.6726 20.2847 26.1083 20.3957 25.5647C20.5068 25.0211 20.7765 24.5226 21.1709 24.1324C21.5652 23.7421 22.0664 23.4775 22.6111 23.3721C23.1558 23.2667 23.7196 23.3252 24.231 23.5402C24.7425 23.7552 25.1787 24.1171 25.4845 24.58Z" fill="currentColor"/>
<path d="M24.3602 47.975H24.371L24.366 47.977C24.364 47.9763 24.3621 47.9756 24.3602 47.975Z" fill="currentColor"/>
<path d="M24.3602 47.975C24.0193 47.8549 23.7289 47.623 23.5366 47.3168C23.3432 47.0088 23.2604 46.6442 23.302 46.283C23.3174 44.8742 23.315 43.4649 23.3127 42.0554C23.3118 41.543 23.311 41.0305 23.311 40.518C23.3219 40.4576 23.3202 40.3956 23.306 40.336C23.2543 40.2517 23.1954 40.172 23.13 40.098C23.0738 40.1696 23.0242 40.2463 22.982 40.327C22.9708 40.3871 22.9708 40.4488 22.982 40.509C22.9817 41.0301 22.9803 41.5513 22.9789 42.0725C22.9752 43.4627 22.9715 44.8531 22.989 46.243C23.0368 46.6108 22.9564 46.9839 22.7613 47.2993C22.5663 47.6148 22.2684 47.8534 21.918 47.975H24.3602Z" fill="currentColor"/>
</svg>
