<svg width="48" height="50" viewBox="0 0 48 50" fill="none" xmlns="http://www.w3.org/2000/svg">
<path d="M19.8462 19.64C21.1388 19.9227 22.4807 19.8884 23.7572 19.54C24.9208 19.248 25.9531 18.5746 26.6893 17.6274C27.4256 16.6802 27.8233 15.5137 27.8192 14.314C27.8013 12.4364 27.3636 10.5865 26.5382 8.89999C26.4263 8.62683 26.2772 8.37041 26.0952 8.13799C26.1412 8.26599 26.1862 8.39399 26.2332 8.52199C26.8257 9.999 27.1465 11.5709 27.1802 13.162C27.2153 13.8932 27.1031 14.6241 26.8505 15.3112C26.5978 15.9983 26.2097 16.6277 25.7092 17.162C25.1677 17.6935 24.5222 18.1073 23.8132 18.3775C23.1042 18.6476 22.3471 18.7683 21.5892 18.732C19.8268 18.765 18.1116 18.1614 16.7582 17.032C15.8661 16.3184 15.2441 15.3218 14.995 14.2069C14.7459 13.092 14.8846 11.9254 15.3882 10.9C16.1367 9.24687 17.237 7.77701 18.6122 6.59299C19.1137 6.13306 19.5594 5.61586 19.9402 5.05199C21.2997 3.10394 23.3397 1.73591 25.6579 1.21761C27.9762 0.699309 30.4046 1.06836 32.4642 2.25199C33.1789 2.68864 33.8674 3.16679 34.5262 3.68399C34.8182 3.89599 35.0832 4.14499 35.3592 4.37799C35.9917 4.93339 36.7296 5.35564 37.5288 5.61955C38.3281 5.88345 39.1724 5.98359 40.0112 5.91399C40.8488 5.88118 41.6878 5.90993 42.5212 5.99999C42.6121 6.01311 42.7049 5.99857 42.7875 5.95826C42.8701 5.91796 42.9386 5.85375 42.9842 5.77399C43.1923 5.50563 43.4708 5.30029 43.7887 5.18083C44.1067 5.06136 44.4515 5.03247 44.7848 5.09736C45.1182 5.16225 45.427 5.31837 45.6769 5.54835C45.9268 5.77834 46.1079 6.07315 46.2002 6.39999C46.3268 6.84632 46.2802 7.32399 46.0698 7.73745C45.8593 8.15092 45.5006 8.46968 45.0652 8.62999C44.9219 8.68622 44.8069 8.79699 44.7452 8.93799C44.3484 10.6392 43.5276 12.2124 42.3593 13.5112C41.191 14.8099 39.7131 15.792 38.0632 16.366C36.7942 16.823 35.4582 17.09 34.1542 17.454C33.7161 17.556 33.2872 17.6945 32.8722 17.868C32.5956 17.975 32.3712 18.1849 32.2459 18.4537C32.1207 18.7225 32.1043 19.0294 32.2002 19.31C32.3469 19.8572 32.542 20.3903 32.7832 20.903C33.4822 22.2558 34.0514 23.6718 34.4832 25.132C35.0706 27.6477 34.9729 30.2749 34.2002 32.74C33.7432 34.366 33.2642 35.989 32.9002 37.64C32.5603 39.0125 32.5136 40.4412 32.7632 41.833C32.8162 42.4738 33.1213 43.0674 33.6116 43.4835C34.1019 43.8995 34.7373 44.104 35.3782 44.052C36.0672 44.0413 36.7473 44.2095 37.3519 44.54C37.9566 44.8705 38.4652 45.3522 38.8282 45.938C39.0855 46.3974 39.2525 46.9018 39.3202 47.424C39.3468 47.5943 39.3354 47.7683 39.2866 47.9336C39.2378 48.0989 39.153 48.2514 39.0382 48.3799C38.9234 48.5085 38.7815 48.61 38.6228 48.6771C38.4641 48.7442 38.2924 48.7752 38.1202 48.768C36.1962 48.776 34.2712 48.768 32.3472 48.768C31.8247 48.7481 31.3298 48.5288 30.9642 48.155C30.2858 47.4986 29.7402 46.7177 29.3572 45.855C28.6878 44.4577 28.1757 42.9904 27.8302 41.48C27.8015 41.2933 27.8298 41.1024 27.9112 40.932C28.3466 40.0545 28.5718 39.0877 28.5691 38.1081C28.5663 37.1285 28.3356 36.163 27.8952 35.288C27.4337 34.4081 26.7781 33.6448 25.9781 33.0557C25.178 32.4667 24.2544 32.0674 23.2772 31.888C20.6871 31.3135 17.9753 31.759 15.7052 33.132C15.6722 33.15 15.6462 33.182 15.6632 33.167C16.4142 32.937 17.2052 32.632 18.0232 32.457C20.0266 31.9764 22.1343 32.1977 23.9942 33.084C24.837 33.4384 25.585 33.9853 26.1782 34.681C26.7714 35.3767 27.1933 36.2017 27.41 37.0899C27.6268 37.9782 27.6323 38.9048 27.4262 39.7955C27.2201 40.6862 26.8081 41.5163 26.2232 42.219C25.7105 42.8463 25.1661 43.4471 24.5922 44.019C25.1154 44.0407 25.6363 44.1022 26.1502 44.203C26.8807 44.3371 27.5531 44.6906 28.0778 45.2163C28.6025 45.7421 28.9546 46.4152 29.0872 47.146C29.1526 47.348 29.1658 47.5632 29.1255 47.7717C29.0852 47.9801 28.9927 48.1749 28.8567 48.3379C28.7206 48.5009 28.5455 48.6268 28.3476 48.7037C28.1498 48.7807 27.9356 48.8062 27.7252 48.778C23.9162 48.849 20.1082 48.942 16.2992 49.002C13.8943 49.1221 11.4869 48.822 9.1852 48.115C7.11851 47.4561 5.27865 46.2296 3.8756 44.5752C2.47255 42.9209 1.56281 40.9055 1.2502 38.759C0.784328 36.7202 0.916451 34.5902 1.63072 32.6246C2.345 30.659 3.6111 28.9411 5.2772 27.677C5.4162 27.562 5.5652 27.458 5.7142 27.356C5.80354 27.2751 5.90936 27.2146 6.02436 27.1786C6.13936 27.1426 6.2608 27.132 6.3803 27.1475C6.4998 27.163 6.61452 27.2042 6.71654 27.2684C6.81855 27.3325 6.90544 27.418 6.9712 27.519C7.04671 27.6126 7.10135 27.7212 7.13148 27.8376C7.1616 27.954 7.1665 28.0755 7.14586 28.1939C7.12522 28.3124 7.07951 28.425 7.01179 28.5244C6.94407 28.6237 6.85591 28.7075 6.7532 28.77C5.52057 29.662 4.5529 30.8716 3.9532 32.27C3.24121 33.918 3.00868 35.7335 3.28234 37.5078C3.55599 39.282 4.32473 40.9431 5.5002 42.3C5.6852 42.54 5.9002 42.754 6.1442 43.023C6.1442 42.541 6.1442 42.135 6.1442 41.729C6.22411 38.7471 7.29477 35.8768 9.1872 33.571C10.7061 31.7276 12.3428 29.9846 14.0872 28.353C14.8642 27.578 15.6362 26.795 16.3652 25.976C18.0947 24.2329 19.2996 22.0388 19.8422 19.644M33.7522 6.72699C33.7847 6.47337 33.7618 6.2157 33.6851 5.97179C33.6084 5.72788 33.4796 5.50352 33.3077 5.31423C33.1358 5.12493 32.9249 4.97519 32.6895 4.87536C32.454 4.77553 32.1998 4.72798 31.9442 4.73599C31.7 4.76035 31.4632 4.83365 31.248 4.95153C31.0327 5.06941 30.8435 5.22944 30.6914 5.42208C30.5394 5.61471 30.4277 5.836 30.3631 6.07274C30.2984 6.30948 30.2822 6.55682 30.3152 6.79999C30.3334 7.01823 30.3954 7.23056 30.4975 7.42428C30.5997 7.61799 30.7399 7.78911 30.9097 7.92738C31.0795 8.06565 31.2755 8.16823 31.4859 8.22899C31.6963 8.28975 31.9168 8.30744 32.1342 8.28099C31.871 8.16205 31.6577 7.95474 31.5313 7.69501C31.4049 7.43529 31.3734 7.13952 31.4422 6.85899C31.4759 6.63269 31.5775 6.42194 31.7336 6.25463C31.8896 6.08732 32.0928 5.97133 32.3162 5.92199C32.9552 5.76799 33.4052 6.06899 33.7512 6.72199" fill="currentColor"/>
</svg>
