<svg width="48" height="48" viewBox="0 0 48 48" fill="none" xmlns="http://www.w3.org/2000/svg">
<path fill-rule="evenodd" clip-rule="evenodd" d="M1.44302 47.9864C2.35473 47.9957 3.32367 48 4.58429 48C5.14685 47.9997 5.70977 47.9987 6.27306 47.9969L11.8215 47.9968C20.6789 47.9945 29.8246 47.9921 38.8224 47.9856C39.5004 47.9852 39.9138 47.9301 40.1483 47.6539C40.3827 47.3778 40.3864 46.9548 40.313 46.2168C40.1277 44.3893 39.1019 43.0966 38.0897 42.0732C38.264 41.8017 38.4379 41.534 38.607 41.2738L38.6078 41.2725C39.0588 40.5781 39.4848 39.9221 39.8911 39.2385C40.1862 38.7794 40.302 38.2172 40.2143 37.6697C40.0976 37.127 39.7938 36.65 39.3624 36.332C38.9284 35.9859 38.4797 35.6577 38.0049 35.3105C37.8308 35.1833 37.6519 35.0519 37.4682 34.9162L40.1593 30.6825C41.2266 29.0022 42.2693 27.3617 43.3017 25.7374C44.6825 23.565 46.045 21.4214 47.4236 19.2499C47.8719 18.5441 48.1027 18.0353 47.956 17.5245C47.8169 17.0347 47.3279 16.6055 46.5328 16.0299C46.149 15.6906 45.6783 15.4801 45.1808 15.4255C44.6844 15.4255 44.2677 15.7596 43.7427 16.578C42.8459 17.9756 41.9477 19.4045 41.0766 20.7902L40.9862 20.934C40.8594 21.1356 40.7318 21.3387 40.6035 21.5426C40.1351 22.2875 39.6588 23.0451 39.1856 23.7912C37.9096 25.8036 36.6027 27.8541 35.3388 29.8369C34.8261 30.6412 34.3116 31.4486 33.7953 32.2591L33.3793 31.9759C32.9882 31.7095 32.6187 31.4578 32.2474 31.2115C31.7784 30.8447 31.2215 30.6247 30.6401 30.5765C29.9969 30.5765 29.4613 30.9754 28.8486 31.9107C28.2748 32.7862 27.7105 33.6593 27.1132 34.5841C26.8897 34.9303 26.6615 35.2834 26.4286 35.6433C25.3353 33.8924 24.0806 32.8273 22.4982 32.303C21.8824 32.0975 21.2404 31.9938 20.5948 31.9957C19.5257 32.0184 18.4693 32.2451 17.4763 32.665C17.4713 32.5244 17.4681 32.3902 17.4649 32.2588L17.4645 32.2435C17.4671 31.8401 17.4365 31.4372 17.3732 31.0394C17.2465 30.531 17.2822 29.9926 17.4746 29.5079C17.6671 29.0231 18.0055 28.6194 18.4371 28.3594C19.3246 27.7224 20.2646 27.003 21.395 26.0957C21.652 25.8679 21.9748 25.7396 22.31 25.7321C22.5841 25.7423 22.8537 25.8082 23.1043 25.9263C24.2531 26.432 25.4836 26.697 26.7276 26.7067C28.48 26.7169 30.1874 26.1204 31.59 25.0081C33.0706 23.7924 34.1715 22.1331 34.7496 20.2462C34.8022 19.9967 34.791 19.7368 34.7172 19.4934C34.6434 19.25 34.5095 19.0318 34.3295 18.8615C32.942 17.9985 31.365 17.5357 29.7559 17.5191C28.2008 17.5238 26.6782 17.9912 25.3619 18.8679C24.0456 19.7447 22.9886 20.9955 22.3114 22.4776C22.2521 22.6149 22.1994 22.7553 22.1537 22.8983C22.0979 23.1499 21.979 23.381 21.8095 23.5671C20.7348 24.358 19.6412 25.0939 18.4867 25.8708L18.3949 25.9326C18.0721 26.1497 17.7408 26.3726 17.4069 26.5987C17.5603 22.1871 18.2379 18.6199 19.5323 15.3995C19.7656 14.8188 20.1032 14.6969 20.7635 14.5726C21.0246 14.5238 21.2937 14.4761 21.5549 14.4297L21.5974 14.4222C23.1229 14.1524 24.7002 13.8734 26.0383 13.1327C27.107 12.5461 28.044 11.7228 28.7855 10.7187C29.4716 9.77524 29.9934 8.70986 30.3264 7.57255C30.6536 6.46433 30.8394 5.31481 30.8789 4.15449C30.922 3.06642 30.8494 1.97668 30.6625 0.905785C30.5832 0.657004 30.4284 0.442992 30.2222 0.297138C30.0289 0.128544 29.7924 0.0250572 29.5431 0H29.5064C29.0471 0.03304 28.575 0.0568548 28.1177 0.0799224L28.0543 0.0831209C26.4638 0.162746 24.8191 0.24509 23.2929 0.708858C22.2235 1.02411 21.2157 1.53851 20.3167 2.22795C19.4857 2.86747 18.783 3.67533 18.2493 4.60467C17.7218 5.531 17.3796 6.5622 17.244 7.63431C17.1019 8.79182 17.1701 9.96743 17.4451 11.0978C17.7068 12.1694 17.7902 13.2811 17.6916 14.383C17.5791 15.4497 17.3315 16.4955 16.9557 17.4923C16.668 18.371 16.45 19.2736 16.3037 20.1906C16.238 20.5421 16.169 20.9053 16.0957 21.2576C16.0238 21.5982 15.9709 21.9463 15.9199 22.283C15.9096 22.3463 15.9 22.4104 15.8903 22.4748C15.8816 22.5322 15.873 22.5897 15.8638 22.647L15.7798 22.6858C15.5982 22.4263 15.3938 22.1696 15.1946 21.9214L15.1929 21.9193C14.6895 21.2913 14.2142 20.6983 14.0973 20.043C13.2142 15.0907 9.55411 11.7632 4.99006 11.7632C4.55076 11.7636 4.11193 11.7937 3.67625 11.8533C2.65447 11.9927 2.13974 12.0654 1.88658 12.4149C1.63343 12.7645 1.70057 13.2947 1.83485 14.3512C1.98313 15.5462 2.32703 16.7047 2.85113 17.7747C3.34747 18.7878 4.00969 19.6997 4.80699 20.4679C6.40293 22.0109 8.48691 22.8649 10.6482 22.8617C11.1042 22.8613 11.5596 22.8247 12.0104 22.7522C12.2251 22.7157 12.442 22.6963 12.6594 22.6943C12.9797 22.6738 13.2991 22.7474 13.5823 22.907C13.8655 23.0667 14.1015 23.3061 14.2642 23.599C14.3763 23.782 14.4996 23.9697 14.6187 24.1509L14.6215 24.1552C15.0567 24.8166 15.5065 25.5006 15.5663 26.1788C15.7167 27.8805 15.7046 29.6318 15.6928 31.3257C15.6881 31.9615 15.684 32.6203 15.6881 33.2678C15.6884 33.3302 15.6908 33.3949 15.6932 33.4577L15.6939 33.4779C15.7225 33.6889 15.7014 33.9041 15.6327 34.1044C15.1635 34.967 14.6751 35.7935 14.1589 36.6671L14.0692 36.8188C13.9324 37.0503 13.7925 37.2868 13.6541 37.5233C12.8904 37.3021 12.1038 37.1819 11.3122 37.1655C10.3499 37.1425 9.40396 37.4321 8.60168 37.9952C7.68241 38.6926 6.89979 39.5723 6.29728 40.5855C6.09054 40.8082 5.81221 40.9404 5.51764 40.9557C4.17088 41.0389 2.88982 41.5999 1.88108 42.5482C0.890246 43.5021 0.243448 44.791 0.0514263 46.1943C-0.0524022 46.8977 6.23677e-05 47.3187 0.217258 47.5898C0.434454 47.8609 0.800972 47.9798 1.44302 47.9864ZM38.3821 46.0257H2.06086C2.20174 45.1886 2.59943 44.4241 3.19233 43.8506C3.84151 43.2298 4.68582 42.8874 5.56057 42.89C5.63725 42.89 5.7154 42.8927 5.79281 42.8978C5.92746 42.9067 6.04376 42.911 6.15382 42.911C7.11103 42.911 7.58944 42.5408 7.98275 41.4968C8.26178 40.7671 8.74498 40.1453 9.36748 39.7149C9.98999 39.2844 10.722 39.0658 11.4652 39.0886C12.2469 39.0934 13.0141 39.3123 13.6922 39.724C14.0206 39.9664 14.3997 40.1208 14.7969 40.1738C14.9232 40.1749 15.0466 40.1343 15.1502 40.0577C15.2537 39.9812 15.3322 39.8724 15.3747 39.7466C15.4947 39.4091 15.5634 39.0537 15.5784 38.6936C15.6354 38.0518 15.7967 37.4252 16.0553 36.8416C16.3001 36.2893 16.6355 35.7873 17.0459 35.359C17.4513 34.9356 17.9257 34.5935 18.4463 34.3491C18.9875 34.0961 19.5677 33.9496 20.1586 33.9168C20.2554 33.911 20.3545 33.9083 20.4521 33.9083C21.0307 33.9069 21.6052 34.01 22.1511 34.2132C22.6784 34.4099 23.1703 34.7 23.6058 35.0712C24.5055 35.8409 25.128 36.9147 25.3687 38.1125C25.4327 38.4972 25.53 38.8749 25.6593 39.2408C25.7012 39.368 25.7799 39.4779 25.8841 39.5551C25.9883 39.6324 26.1128 39.673 26.24 39.6712C26.637 39.6203 27.0248 39.508 27.391 39.3379C27.878 39.1529 28.3913 39.0571 28.9088 39.0548C29.7277 39.0405 30.5287 39.3089 31.1907 39.8195C31.8527 40.3301 32.3395 41.0551 32.5776 41.8848C32.7977 42.6076 33.1599 42.9184 33.7883 42.9184C33.9335 42.9168 34.0785 42.9057 34.2224 42.885C34.3694 42.8653 34.5174 42.8555 34.6656 42.8554C35.606 42.8651 36.5111 43.2364 37.2121 43.9003C37.8228 44.4439 38.2363 45.1952 38.3821 46.0257ZM28.9374 37.1399C28.7734 37.1337 28.5976 37.131 28.3838 37.131C28.2319 37.131 28.077 37.131 27.9127 37.1356H27.6826C27.8694 36.8385 28.0536 36.5437 28.233 36.2559L28.253 36.2238C28.9581 35.0945 29.6251 34.0262 30.3396 32.9784C30.5221 32.8049 30.7551 32.7026 31 32.6883C31.0225 32.6871 31.0449 32.6901 31.0664 32.6972C33.16 34.1634 35.2597 35.7017 37.2914 37.1904L38.3634 37.9754C38.3679 37.9865 38.3737 38.0041 38.3792 38.0208C38.3813 38.0273 38.3834 38.0337 38.3854 38.0395C38.3877 38.0463 38.39 38.0533 38.3925 38.0606C38.3974 38.0754 38.4026 38.0912 38.4085 38.1078C38.2806 38.3101 38.1518 38.5148 38.0222 38.7219C37.5621 39.4537 37.0863 40.2103 36.6005 40.9545C36.5355 41.0449 36.4508 41.1173 36.3536 41.1654C36.0491 41.0729 35.7353 41.019 35.4188 41.0046C34.6957 40.9421 34.0712 40.8881 33.6368 39.9221C32.8561 38.1886 31.2311 37.2246 28.9374 37.1399ZM35.2863 33.3307L45.3188 17.5494L46.028 18.0132L36.4666 33.0448L35.9621 33.8407L35.2863 33.3307ZM26.6865 24.7564C25.9791 24.7591 25.2772 24.6235 24.6162 24.3564C24.8591 24.3041 25.0968 24.2532 25.3294 24.2037C26.3226 23.992 27.2611 23.792 28.1662 23.5364C28.4683 23.4175 28.7378 23.221 28.9506 22.9647L28.9588 22.9564C29.0578 22.8565 29.1514 22.762 29.2481 22.6811L29.4657 22.499L29.2224 22.3584C29.1031 22.2853 28.9876 22.2052 28.8765 22.1187C28.6419 21.8988 28.3514 21.7569 28.0411 21.7109C28.0193 21.7108 27.9975 21.712 27.9758 21.7144C27.0754 21.8161 26.1747 22.008 25.3038 22.1937C25.0789 22.2418 24.8484 22.2908 24.6188 22.3382C25.0023 21.4843 25.6442 20.7904 26.4426 20.3666C27.4619 19.7949 28.5991 19.4997 29.7526 19.5074C30.7797 19.4956 31.7944 19.7451 32.7115 20.2349C32.3085 21.5381 31.5172 22.6678 30.4563 23.4545C29.3572 24.2909 28.0401 24.7458 26.6865 24.7564ZM4.08606 13.72C4.44984 13.6404 4.82038 13.6006 5.19185 13.6011H5.19002C6.74325 13.6351 8.24041 14.2219 9.44001 15.2671C10.5971 16.2264 11.4551 17.5318 11.9029 19.0137L11.3271 18.6778C10.5458 18.2221 9.80761 17.7915 9.06359 17.3645C8.99828 17.3268 8.93261 17.286 8.8629 17.2425C8.625 17.0669 8.35296 16.95 8.06676 16.9003C8.0154 16.8957 7.96037 16.8934 7.90533 16.8934C7.63807 16.9022 7.37216 16.9373 7.11103 16.9982C6.98518 17.0235 6.85421 17.0495 6.72837 17.0681L6.4576 17.107L6.59519 17.3571C6.6593 17.4793 6.71759 17.6048 6.76982 17.7331C6.87142 18.0572 7.0595 18.3432 7.31135 18.5565C7.98568 19.0032 8.70147 19.3994 9.39378 19.7824C9.7603 19.9851 10.1393 20.1949 10.5062 20.4089C10.7104 20.5354 10.9065 20.6761 11.0932 20.8299C10.8764 20.8587 10.6582 20.8731 10.4398 20.8731C8.59556 20.8037 6.84873 19.9794 5.56717 18.5736C4.99772 17.9773 4.53046 17.2807 4.18622 16.515C3.85329 15.7862 3.67783 14.9879 3.67258 14.1783C3.6969 14.079 3.74787 13.9893 3.81933 13.92C3.89009 13.8297 3.98209 13.7607 4.08606 13.72ZM24.304 8.11594C24.0973 8.04708 23.8834 8.00508 23.6671 7.99087L23.6652 7.99126C23.5413 7.98496 23.4188 8.02194 23.3167 8.09652C22.339 8.86248 21.4085 9.72515 20.5086 10.5599C20.3182 10.7366 20.1208 10.9195 19.9267 11.0982C19.7548 11.266 19.5977 11.4501 19.4574 11.6482L19.4362 11.6762C19.0908 10.7193 18.9453 9.6946 19.0098 8.67254C19.083 7.52695 19.4327 6.42041 20.0254 5.45879C20.7352 4.33596 21.726 3.44432 22.8871 2.8836C24.4189 2.16068 26.0834 1.80788 27.76 1.8508C28.1423 1.8508 28.5389 1.86556 28.9407 1.89469C29.1774 3.16166 29.1719 4.466 28.9245 5.73068C28.6667 7.10071 28.1104 8.38813 27.3 9.49054C25.8511 11.4268 23.6931 12.5194 21.0383 12.6674C21.1781 12.5144 21.3113 12.366 21.4419 12.2203C21.9493 11.654 22.3877 11.165 22.8603 10.7028C23.0615 10.5181 23.2776 10.3524 23.506 10.2076C23.7656 10.0435 24.0095 9.85303 24.2343 9.63892C24.4343 9.40767 24.5918 9.13895 24.6988 8.84655C24.7516 8.72498 24.8015 8.61039 24.8576 8.50241L24.9853 8.25616L24.7226 8.21732C24.5814 8.19173 24.4417 8.15788 24.304 8.11594Z" fill="currentColor"/>
</svg>
