<svg width="48" height="48" viewBox="0 0 48 48" fill="none" xmlns="http://www.w3.org/2000/svg">
<path fill-rule="evenodd" clip-rule="evenodd" d="M24.2352 18.8372L20.7554 16.8264C20.7957 16.6346 20.8166 16.4378 20.8168 16.2388C20.8168 15.6712 20.6485 15.1163 20.3332 14.6444C20.0178 14.1725 19.5696 13.8046 19.0452 13.5874C18.5208 13.3702 17.9438 13.3134 17.3871 13.4241C16.8304 13.5348 16.3191 13.8082 15.9177 14.2095C15.5164 14.6109 15.2431 15.1222 15.1323 15.6789C15.0216 16.2356 15.0784 16.8126 15.2956 17.337C15.3133 17.3797 15.332 17.4219 15.3516 17.4635L9.21693 23.2765V10.1266L9.79096 10.7002C9.87332 10.7835 9.97144 10.8495 10.0796 10.8944C10.1877 10.9393 10.3038 10.9622 10.4209 10.9618H10.4216C10.5981 10.9625 10.7708 10.9106 10.9178 10.8128C11.0648 10.715 11.1793 10.5758 11.2469 10.4127C11.3145 10.2496 11.332 10.0701 11.2973 9.89704C11.2625 9.72396 11.1771 9.56514 11.0518 9.44076L8.97951 7.36948C8.97187 7.36124 8.96406 7.35312 8.95608 7.34515C8.78906 7.17813 8.56253 7.0843 8.32634 7.0843C8.09544 7.0843 7.87379 7.17396 7.70794 7.334C7.70401 7.33762 7.70012 7.34128 7.69625 7.34498L5.59905 9.44111C5.43252 9.60838 5.33902 9.83481 5.33902 10.0708C5.33902 10.3069 5.43252 10.5333 5.59905 10.7006C5.68169 10.7834 5.77985 10.8491 5.8879 10.8939C5.99596 10.9387 6.1118 10.9618 6.22878 10.9618C6.34576 10.9618 6.4616 10.9387 6.56966 10.8939C6.67771 10.8491 6.77587 10.7834 6.85851 10.7006L7.43575 10.1236V29.4302C7.43622 29.666 7.5301 29.892 7.69685 30.0588C7.8636 30.2255 8.08963 30.3194 8.32545 30.3199H37.2268L36.6521 30.8946C36.5269 31.0189 36.4415 31.1777 36.4067 31.3506C36.3719 31.5236 36.3894 31.703 36.4568 31.866C36.5243 32.0291 36.6386 32.1684 36.7854 32.2662C36.9322 32.3641 37.1048 32.4161 37.2813 32.4156C37.3983 32.416 37.5142 32.3929 37.6222 32.348C37.7302 32.303 37.8282 32.237 37.9105 32.1537L40.0062 30.0597C40.0262 30.0397 40.0452 30.0188 40.0631 29.9972C40.1946 29.838 40.2675 29.6373 40.2678 29.4291C40.2682 29.3121 40.2453 29.1963 40.2005 29.0882C40.1663 29.0061 40.1201 28.9297 40.0633 28.8616C40.0455 28.8401 40.0267 28.8194 40.0068 28.7995C40.0005 28.7933 39.9942 28.7872 39.9879 28.7812L37.9108 26.7041C37.8284 26.621 37.7303 26.5552 37.6223 26.5103C37.5142 26.4655 37.3983 26.4426 37.2813 26.4429C37.1048 26.4423 36.9322 26.4942 36.7853 26.592C36.6384 26.6897 36.5239 26.829 36.4563 26.992C36.3888 27.155 36.3712 27.3344 36.4059 27.5074C36.4405 27.6804 36.5259 27.8392 36.651 27.9636L37.2265 28.5387H9.21693V25.7291C9.22868 25.7191 9.24019 25.7087 9.25146 25.6981L16.5736 18.7586C16.9937 18.9876 17.4658 19.1086 17.947 19.1086C18.6578 19.1078 19.3411 18.8437 19.8666 18.3703L23.3365 20.3733L23.3316 20.3963L23.3291 20.4085L23.3261 20.4231C23.2154 20.9798 23.2722 21.5569 23.4894 22.0812C23.7066 22.6056 24.0745 23.0538 24.5464 23.3692C25.0184 23.6845 25.5732 23.8528 26.1408 23.8528C26.9017 23.852 27.6311 23.5494 28.1691 23.0113C28.7071 22.4733 29.0098 21.7439 29.0106 20.983C29.0106 20.4871 28.8821 20.0009 28.6393 19.5712L34.3692 13.3569C34.7425 13.5279 35.15 13.6174 35.5641 13.6174C36.3251 13.6164 37.0546 13.3137 37.5926 12.7755C38.1306 12.2374 38.4332 11.5078 38.434 10.7468C38.4339 10.1792 38.2655 9.62428 37.95 9.15232C37.6346 8.68036 37.1863 8.31254 36.6618 8.09537C36.1373 7.8782 35.5602 7.82143 35.0035 7.93224C34.4467 8.04306 33.9354 8.31648 33.534 8.71793C33.1327 9.11938 32.8594 9.63083 32.7487 10.1876C32.638 10.7444 32.6949 11.3215 32.9122 11.8459C32.9554 11.9501 33.0045 12.0513 33.0593 12.1491L27.3256 18.3692C27.297 18.3562 27.2681 18.3437 27.239 18.3316C26.7146 18.1144 26.1376 18.0576 25.5809 18.1683C25.0799 18.268 24.6156 18.4994 24.2352 18.8372ZM17.3424 15.3339C17.5214 15.2143 17.7318 15.1505 17.947 15.1505V15.1519C18.2353 15.1523 18.5117 15.2669 18.7156 15.4706C18.9196 15.6743 19.0345 15.9505 19.0353 16.2388C19.0353 16.454 18.9715 16.6644 18.8519 16.8434C18.7323 17.0224 18.5623 17.1618 18.3635 17.2442C18.1646 17.3266 17.9458 17.3481 17.7347 17.3061C17.5236 17.2642 17.3297 17.1605 17.1775 17.0083C17.0253 16.8561 16.9216 16.6622 16.8796 16.4511C16.8376 16.24 16.8592 16.0212 16.9416 15.8223C17.0239 15.6234 17.1634 15.4535 17.3424 15.3339ZM25.536 20.0775C25.7151 19.9581 25.9256 19.8945 26.1408 19.8947V19.8954C26.4292 19.8961 26.7056 20.0111 26.9094 20.2151C27.1131 20.4192 27.2277 20.6957 27.228 20.9841C27.2278 21.1993 27.1638 21.4097 27.044 21.5885C26.9243 21.7674 26.7542 21.9067 26.5552 21.9889C26.3563 22.071 26.1374 22.0924 25.9264 22.0502C25.7153 22.008 25.5215 21.9041 25.3695 21.7518C25.2174 21.5994 25.1139 21.4054 25.0722 21.1943C25.0304 20.9831 25.0521 20.7643 25.1347 20.5656C25.2173 20.3668 25.3569 20.197 25.536 20.0775ZM34.9589 9.84179C35.1381 9.72218 35.3487 9.65842 35.5641 9.65856C35.8527 9.65894 36.1292 9.77371 36.3333 9.97772C36.5373 10.1817 36.652 10.4583 36.6524 10.7468C36.6526 10.9623 36.5888 11.1729 36.4692 11.3521C36.3496 11.5313 36.1795 11.671 35.9805 11.7535C35.7815 11.836 35.5625 11.8576 35.3511 11.8157C35.1398 11.7737 34.9457 11.6699 34.7934 11.5176C34.6411 11.3652 34.5373 11.1711 34.4953 10.9598C34.4533 10.7485 34.475 10.5295 34.5575 10.3305C34.64 10.1315 34.7797 9.9614 34.9589 9.84179Z" fill="currentColor"/>
<path fill-rule="evenodd" clip-rule="evenodd" d="M38.845 36.4314H44.2821C45.2678 36.4304 46.2128 36.0384 46.9098 35.3414C47.6068 34.6445 47.9989 33.6995 48 32.7139V4.71752C47.9989 3.73186 47.6068 2.7869 46.9098 2.08996C46.2128 1.39302 45.2678 1.00104 44.2821 1H3.71752C2.73192 1.00113 1.78701 1.39316 1.09008 2.09008C0.393159 2.78701 0.00113028 3.73192 0 4.71752V32.7139C0.00113028 33.6995 0.393159 34.6444 1.09008 35.3413C1.78701 36.0382 2.73192 36.4303 3.71752 36.4314H9.15643V44.9565H4.93036C4.69416 44.9565 4.46764 45.0503 4.30062 45.2173C4.1336 45.3844 4.03977 45.6109 4.03977 45.8471C4.03977 46.0833 4.1336 46.3098 4.30062 46.4768C4.46764 46.6438 4.69416 46.7377 4.93036 46.7377H15.1626C15.3988 46.7377 15.6253 46.6438 15.7924 46.4768C15.9594 46.3098 16.0532 46.0833 16.0532 45.8471C16.0532 45.6109 15.9594 45.3844 15.7924 45.2173C15.6253 45.0503 15.3988 44.9565 15.1626 44.9565H10.9376V36.4314H37.0638V44.9565H32.837C32.6008 44.9565 32.3743 45.0503 32.2073 45.2173C32.0403 45.3844 31.9464 45.6109 31.9464 45.8471C31.9464 46.0833 32.0403 46.3098 32.2073 46.4768C32.3743 46.6438 32.6008 46.7377 32.837 46.7377H43.0696C43.3058 46.7377 43.5324 46.6438 43.6994 46.4768C43.8664 46.3098 43.9602 46.0833 43.9602 45.8471C43.9602 45.6109 43.8664 45.3844 43.6994 45.2173C43.5324 45.0503 43.3058 44.9565 43.0696 44.9565H38.845V36.4314ZM37.9853 34.6502H44.2821C44.7955 34.6497 45.2877 34.4455 45.6507 34.0825C46.0137 33.7194 46.2179 33.2273 46.2185 32.7139V4.71752C46.2179 4.20414 46.0137 3.71196 45.6507 3.34894C45.2877 2.98593 44.7955 2.78174 44.2821 2.78118H3.71752C3.20414 2.78174 2.71196 2.98593 2.34894 3.34894C1.98593 3.71196 1.78174 4.20414 1.78118 4.71752V32.7139C1.78174 33.2273 1.98593 33.7194 2.34894 34.0825C2.71196 34.4455 3.20414 34.6497 3.71752 34.6502H10.0161C10.0264 34.6499 10.0367 34.6497 10.047 34.6497C10.0573 34.6497 10.0676 34.6499 10.0779 34.6502H37.9235C37.9288 34.65 37.9341 34.6499 37.9393 34.6498L37.9455 34.6497L37.9544 34.6497C37.9647 34.6497 37.975 34.6499 37.9853 34.6502Z" fill="currentColor"/>
</svg>
