<svg width="48" height="48" viewBox="0 0 48 48" fill="none" xmlns="http://www.w3.org/2000/svg">
<path fill-rule="evenodd" clip-rule="evenodd" d="M27.6403 0.0188385C27.7129 0.0102266 27.7931 0.0037677 27.8782 0H28.2517C28.4681 0.0051943 28.6831 0.0370105 28.8917 0.0947308C28.9073 0.0997063 28.9236 0.104112 28.9399 0.108546C28.9625 0.114665 28.9853 0.120838 29.0069 0.12864C29.0296 0.137119 29.0524 0.145187 29.075 0.153193C29.1256 0.171107 29.1753 0.188711 29.2222 0.209915C29.4546 0.31368 29.667 0.457416 29.8498 0.634589C30.2495 1.07014 30.4869 1.63013 30.522 2.22025C30.5301 2.30314 30.5355 2.38872 30.5387 2.47592V2.87583C30.5333 3.03623 30.5215 3.19394 30.5053 3.34141C30.4766 3.64642 30.4288 3.94933 30.3622 4.24835L30.3164 4.46365C30.3082 4.50636 30.2985 4.54501 30.2893 4.58205C30.2811 4.61504 30.2732 4.64675 30.2669 4.67895C30.2578 4.72506 30.2451 4.77288 30.2319 4.82209C30.2256 4.84583 30.2192 4.8699 30.2131 4.89425L29.8298 6.21725C29.7644 6.44222 29.6887 6.66095 29.6128 6.88033C29.575 6.98952 29.5371 7.09887 29.5004 7.20923C29.4903 7.23836 29.4809 7.26387 29.4716 7.28902C29.4695 7.29454 29.4675 7.30005 29.4654 7.30558C29.4114 7.44916 29.3613 7.59445 29.3111 7.73979C29.2488 7.92026 29.1864 8.10079 29.1167 8.27818C29.0914 8.34277 29.0672 8.40736 29.0451 8.46926L28.5677 9.70722C28.4814 9.93534 28.3906 10.1586 28.2995 10.3825C28.2513 10.5009 28.203 10.6195 28.1554 10.739L27.4164 12.512C27.4103 12.5273 27.4048 12.5401 27.399 12.5533C27.3925 12.5683 27.3856 12.5839 27.3776 12.6046C27.3708 12.6221 27.3649 12.6352 27.3593 12.6476C27.3524 12.6628 27.3459 12.6771 27.3389 12.6972C27.291 12.8312 27.0552 13.3753 26.9879 13.5277L26.8313 13.8964C26.7619 14.0824 26.6553 14.3264 26.5668 14.5288C26.5495 14.5683 26.533 14.6062 26.5175 14.6418C26.4983 14.6726 26.4884 14.7083 26.489 14.7446C26.4868 14.7907 26.4818 14.7946 26.4691 14.8044C26.4627 14.8094 26.4542 14.8159 26.4432 14.8302C26.4094 14.8869 26.3817 14.947 26.3603 15.0095L26.2338 15.2786L26.2304 15.2861C26.2181 15.3133 26.2056 15.3408 26.1913 15.3674C26.1843 15.3641 26.178 15.3619 26.1719 15.3598C26.1641 15.3571 26.1565 15.3545 26.1477 15.3496C26.1401 15.3459 26.1331 15.3412 26.1267 15.3356C26.1036 15.3184 26.1294 15.3383 26.1127 15.3238C26.0768 15.3448 26.0392 15.3628 26.0002 15.3776C25.9624 15.3912 25.923 15.3995 25.8829 15.4024H25.8038C25.6552 15.3878 25.5148 15.3272 25.4023 15.2291C25.3701 15.2005 25.3277 15.1577 25.2841 15.1137C25.2185 15.0473 25.1503 14.9784 25.1105 14.9519C25.0937 14.9433 25.0786 14.9318 25.0658 14.918C25.0399 14.8753 25.0074 14.837 24.9695 14.8044L24.6105 14.4631C24.5938 14.4479 24.5795 14.4331 24.5645 14.4176C24.5568 14.4097 24.5489 14.4016 24.5405 14.3932C24.5146 14.3673 24.4893 14.3441 24.4642 14.3213C24.4399 14.299 24.4159 14.2771 24.392 14.2532C24.3745 14.2357 24.3578 14.2187 24.3413 14.2019C24.3122 14.1722 24.2837 14.143 24.252 14.1127C24.2393 14.1005 24.2283 14.0916 24.2174 14.0827C24.2049 14.0725 24.1925 14.0623 24.1772 14.0471L24.1072 13.9771C24.0628 13.9283 24.0155 13.8821 23.9657 13.8388C23.9049 13.7914 23.4323 13.3199 23.3941 13.2812C23.3795 13.2666 23.367 13.2564 23.3545 13.2462C23.342 13.2359 23.3295 13.2257 23.3149 13.2112L21.5517 11.4474C21.4996 11.3953 21.4338 11.3189 21.3664 11.2408C21.2918 11.1542 21.2153 11.0655 21.1534 11.0049L20.4886 10.2433C20.3974 10.1446 20.2686 9.97637 20.1514 9.82331C20.0922 9.74611 20.0361 9.67275 19.9891 9.6141C19.7792 9.35 19.5848 9.07395 19.4068 8.78736C19.3703 8.72546 19.3328 8.66749 19.2951 8.60936C19.2604 8.55579 19.2255 8.50209 19.1915 8.44504L19.1742 8.41588C19.0743 8.24731 18.9738 8.07755 18.8852 7.90249L18.7453 7.61345C18.7354 7.59337 18.7283 7.57713 18.721 7.56035C18.7152 7.54701 18.7093 7.53333 18.7017 7.51711L18.6172 7.32172C18.4102 6.82807 18.2629 6.31146 18.1785 5.78289C18.1409 5.53075 18.118 5.27662 18.1101 5.02181V4.96314C18.0967 4.54768 18.1328 4.13209 18.2178 3.72518C18.2935 3.32732 18.4178 2.94028 18.5881 2.5728C18.7425 2.23526 18.9337 1.91577 19.1581 1.62011C19.2048 1.55642 19.2571 1.49739 19.3095 1.43826C19.3367 1.40744 19.3641 1.3766 19.3906 1.34507C19.3973 1.3369 19.4026 1.33189 19.4084 1.32645C19.4132 1.32185 19.4184 1.31694 19.4251 1.30955C19.4331 1.30064 19.4363 1.29599 19.4399 1.2909C19.4428 1.28677 19.4459 1.28234 19.452 1.2751L19.9181 0.857422C20.1124 0.70719 20.3202 0.575124 20.5387 0.462889L20.547 0.458802C20.5752 0.444907 20.6001 0.432683 20.628 0.420906C20.9894 0.247497 21.3845 0.155623 21.7853 0.151785C22.3197 0.143404 22.8387 0.330831 23.2444 0.678725C23.2532 0.68671 23.2592 0.690997 23.2652 0.695243C23.2718 0.69987 23.2782 0.704449 23.288 0.713711L23.5243 0.949999C23.5384 0.965247 23.5517 0.981237 23.5642 0.997903C23.6494 1.09763 23.729 1.20203 23.8026 1.31062C23.8467 1.37683 23.8833 1.43388 23.9248 1.50331C24.0676 1.73781 24.1956 1.98104 24.308 2.23156L24.4038 2.45062C24.4098 2.46376 24.4148 2.47638 24.4196 2.48865C24.4217 2.49398 24.4238 2.49924 24.4259 2.50445C24.4291 2.51509 24.4334 2.52537 24.4388 2.53513C24.4421 2.54294 24.447 2.54992 24.4533 2.55558C24.4806 2.45919 24.5153 2.36507 24.5572 2.27408C24.8724 1.50082 25.4516 0.864397 26.1919 0.47796C26.2282 0.459671 26.2646 0.44323 26.3007 0.426875C26.3518 0.403764 26.4026 0.380825 26.4524 0.353088C26.5371 0.309074 26.6249 0.271123 26.715 0.239518C27.0139 0.130574 27.3244 0.0565228 27.6403 0.0188385ZM25.7552 14.5444C25.7565 14.5453 25.7578 14.5462 25.7591 14.5471L25.7553 14.5487C25.7553 14.5473 25.7552 14.5458 25.7552 14.5444ZM25.6976 14.4794C25.7128 14.5022 25.7281 14.5251 25.7552 14.5444C25.7547 14.5102 25.7662 14.4769 25.7876 14.4502C25.8555 14.344 25.9097 14.2297 25.9491 14.11C25.9797 14.0247 26.0215 13.9317 26.0626 13.8405C26.0881 13.7838 26.1133 13.7278 26.1353 13.6746L26.1355 13.6741C26.1478 13.6447 26.1575 13.6217 26.1703 13.5869C26.1999 13.5081 26.2346 13.4301 26.2693 13.352C26.2991 13.285 26.3289 13.218 26.3555 13.1504C26.3665 13.1224 26.3781 13.0966 26.3894 13.0713C26.4041 13.0385 26.4184 13.0066 26.4308 12.9717L26.6144 12.5341C26.6476 12.4405 26.7289 12.2559 26.8063 12.0803C26.8629 11.9518 26.9173 11.8282 26.9492 11.7488L27.531 10.3353C27.5454 10.3034 27.5576 10.2713 27.5697 10.2395C27.5806 10.2108 27.5914 10.1824 27.6037 10.1545C27.6736 9.99724 27.7343 9.83648 27.7952 9.67498C27.8019 9.65739 27.8085 9.63978 27.8152 9.62218L27.8523 9.52852C27.8716 9.48 27.8915 9.43137 27.9115 9.38259C27.9511 9.2858 27.9909 9.18845 28.0267 9.09039L28.0972 8.91546C28.1686 8.7081 28.2477 8.50425 28.3268 8.30045C28.4118 8.08159 28.4967 7.8628 28.572 7.63983C28.5924 7.57847 28.6123 7.5198 28.6366 7.45898C28.6492 7.42717 28.6606 7.39434 28.6719 7.36155C28.6822 7.33164 28.6925 7.30176 28.7038 7.27274C28.7275 7.21192 28.748 7.15433 28.7684 7.09243L28.896 6.72104C28.9035 6.70208 28.9082 6.686 28.9128 6.66982C28.9172 6.65478 28.9215 6.63964 28.9283 6.62201C28.962 6.53312 28.9909 6.44165 29.0199 6.34997C29.0404 6.2851 29.061 6.22012 29.0833 6.15589L29.2055 5.77912C29.2132 5.75328 29.2202 5.72697 29.2274 5.7003C29.2372 5.66363 29.2472 5.62628 29.2593 5.58858C29.3278 5.38128 29.3796 5.18146 29.4316 4.98035C29.4634 4.8577 29.4952 4.73458 29.5311 4.60898C29.5388 4.58183 29.5444 4.55772 29.5499 4.53392C29.5517 4.52611 29.5535 4.51833 29.5553 4.51048C29.5585 4.49699 29.5622 4.48398 29.566 4.47071C29.5711 4.45276 29.5763 4.43433 29.5806 4.41359L29.6544 4.10034C29.8202 3.29836 29.9633 2.16966 29.5704 1.46295C29.4991 1.32765 29.4043 1.2061 29.2905 1.10394C28.9663 0.841674 28.5581 0.705724 28.1414 0.721246L27.967 0.730396C27.7273 0.736047 27.4892 0.7713 27.2581 0.835354C27.2475 0.838073 27.2359 0.840452 27.2245 0.842802C27.2111 0.84557 27.1979 0.848299 27.1865 0.851501C27.0948 0.875846 27.0049 0.906417 26.9174 0.943002C26.9035 0.949177 26.8895 0.955368 26.8754 0.961583C26.7265 1.02741 26.5717 1.0959 26.433 1.17606C26.3188 1.24309 26.2094 1.31809 26.1057 1.40051L26.0083 1.47802C25.8771 1.5853 25.7566 1.70518 25.6488 1.83595L25.4943 2.05125C25.4865 2.06438 25.481 2.07182 25.4758 2.07891C25.4699 2.08694 25.4644 2.09452 25.4561 2.10938L25.363 2.27838C25.2579 2.48536 25.1721 2.70157 25.1068 2.92428C25.0321 3.16887 24.9814 3.42016 24.9555 3.67459C24.9374 3.78147 24.9253 3.88929 24.9194 3.99753V5.43357C24.896 5.41806 24.8909 5.40654 24.8828 5.38836C24.8794 5.38067 24.8755 5.37179 24.8694 5.3609L24.7407 5.13107L24.7371 5.1247C24.7084 5.07507 24.6826 5.03037 24.6568 4.97875C24.5922 4.85382 24.5213 4.73158 24.4503 4.60928C24.3757 4.48077 24.301 4.35219 24.2337 4.22037C24.1836 4.10529 24.1448 3.98559 24.118 3.86297C23.9984 3.4436 23.8547 3.03151 23.6874 2.62878C23.5042 2.1728 23.2464 1.75045 22.9247 1.37898C22.9187 1.37292 22.914 1.36756 22.9095 1.36233C22.9051 1.35735 22.9009 1.35248 22.8957 1.34722C22.7298 1.16736 22.5203 1.03332 22.2874 0.958073C22.0857 0.89485 21.8741 0.869307 21.6631 0.882719C21.4295 0.898441 21.2009 0.957774 20.9892 1.05765L20.7055 1.20297C20.5739 1.28039 20.448 1.36709 20.3288 1.46241L20.1619 1.61042C20.0659 1.69256 19.977 1.78258 19.896 1.87955C19.6601 2.14836 19.461 2.44738 19.304 2.76872C19.1073 3.17761 18.9704 3.61266 18.8976 4.06051C18.8836 4.13141 18.876 4.20589 18.8682 4.28193C18.8628 4.33462 18.8574 4.38805 18.8497 4.44158C18.8455 4.47321 18.8456 4.50611 18.8458 4.53911C18.8459 4.57406 18.8461 4.60911 18.8411 4.64289C18.8324 4.89879 18.8428 5.15499 18.8723 5.40935C18.8928 5.67138 18.938 5.93089 19.0074 6.18442C19.0655 6.41687 19.1374 6.64567 19.2227 6.8696L19.298 7.0483C19.3739 7.2243 19.4563 7.40892 19.5456 7.58008C19.7529 7.96753 19.9833 8.34211 20.2357 8.70178L20.3433 8.85572C20.3831 8.90685 20.4133 8.94937 20.451 9.0032C20.502 9.07396 20.5538 9.14034 20.6056 9.20679C20.6287 9.23638 20.6518 9.26599 20.6749 9.296L21.7438 10.555C21.8237 10.6519 21.9712 10.8113 22.0722 10.9203C22.0822 10.9311 22.0917 10.9414 22.1007 10.9511L22.1093 10.9597L24.1277 12.9674C24.1759 13.0076 24.2193 13.0527 24.2628 13.0979C24.281 13.1167 24.2992 13.1356 24.3177 13.1541C24.3285 13.1647 24.338 13.1744 24.3473 13.1838C24.3587 13.1955 24.37 13.207 24.3834 13.2198L24.5804 13.4076C24.5881 13.4152 24.5952 13.4224 24.602 13.4294C24.6165 13.4442 24.6299 13.458 24.6471 13.4722C24.6585 13.4812 24.6691 13.4911 24.6789 13.5018L25.1057 13.9147C25.23 14.0223 25.3818 14.1741 25.4991 14.2914C25.5411 14.3372 25.5878 14.3783 25.6385 14.4142C25.6666 14.4328 25.682 14.456 25.6976 14.4794Z" fill="currentColor"/>
<path fill-rule="evenodd" clip-rule="evenodd" d="M40.9978 42.6795V48.0027H39.7184V47.2352C39.7184 45.9843 39.7239 44.7334 39.7294 43.4825C39.7424 40.5458 39.7553 37.6085 39.6968 34.6731C39.5784 28.6986 36.8802 24.1483 31.6883 21.217C22.4714 16.0149 10.6495 21.899 9.13592 32.3818C9.01741 33.2019 8.9559 34.0291 8.95184 34.8577C8.93758 37.8574 8.93877 40.8574 8.93997 43.8574C8.9404 44.9329 8.94082 46.0084 8.94054 47.0839V47.9989H7.67351V42.7424C7.48799 42.7983 7.30547 42.8637 7.12666 42.9384L6.95076 43.0247L6.94996 43.0251C5.68367 43.6463 4.41722 44.2677 3.15765 44.9013C2.72329 45.1199 2.30831 45.1834 2.07309 44.686C1.85457 44.2237 2.15437 43.9373 2.55751 43.7387C3.00599 43.5185 3.45249 43.2938 3.89898 43.0691L3.89952 43.0689C4.891 42.5699 5.88281 42.0708 6.89575 41.6207C7.04769 41.5827 7.18909 41.5109 7.30944 41.4107C7.42978 41.3104 7.52596 41.1843 7.59083 41.0418C7.6557 40.8992 7.68757 40.7438 7.68409 40.5873C7.68061 40.4307 7.64185 40.2769 7.57071 40.1373H4.54309C4.47546 40.1373 4.40386 40.1441 4.33216 40.1508C4.16648 40.1664 4.0003 40.182 3.88159 40.1147C3.6403 39.9367 3.42319 39.7281 3.2357 39.4941C3.30202 39.4303 3.36777 39.351 3.43379 39.2714C3.58208 39.0925 3.73166 38.9121 3.89182 38.9021C4.60805 38.8525 5.32801 38.859 6.04814 38.8655C6.31403 38.8678 6.57994 38.8702 6.8457 38.8698H7.55779L7.55823 38.8677C7.66829 38.3344 7.72182 38.0751 7.62826 37.8902C7.53969 37.7152 7.31931 37.6068 6.89031 37.396L6.88283 37.3923C6.30617 37.109 5.73039 36.8232 5.15453 36.5374C4.30817 36.1173 3.46164 35.6971 2.61187 35.2845C2.18128 35.0762 1.84811 34.8055 2.08224 34.306C2.31638 33.8065 2.74428 33.8905 3.17003 34.1042C4.28957 34.6649 5.41336 35.2175 6.53687 35.7701L6.95819 35.9773C7.08942 36.0418 7.22355 36.1005 7.3884 36.1727C7.46966 36.2083 7.55838 36.2472 7.65791 36.2916V12.7262C7.62786 12.5043 7.63294 12.2791 7.67298 12.0588L7.68232 12.0319C7.78233 11.7436 7.91351 11.3653 8.13425 11.2724C8.2882 11.2356 8.44857 11.2349 8.60283 11.2704C8.75709 11.3059 8.90104 11.3766 9.02343 11.477C9.73164 12.1267 10.4098 12.8114 11.0878 13.4958C11.3084 13.7186 11.5291 13.9413 11.7507 14.1628C12.1584 14.5705 12.5669 14.9775 12.9754 15.3845C14.2007 16.6054 15.426 17.8263 16.631 19.0667C16.7697 19.2585 16.975 19.3917 17.2066 19.4404C17.4383 19.4891 17.6798 19.4497 17.884 19.3299C19.9258 18.4536 22.1248 18.0028 24.3467 18.0051C26.5686 18.0074 28.7667 18.4628 30.8067 19.3434C31.0025 19.4563 31.2333 19.4928 31.4544 19.4457C31.6756 19.3986 31.8714 19.2712 32.0043 19.0883C33.999 17.0678 36.0098 15.062 38.0198 13.0569C38.4505 12.6273 38.8811 12.1978 39.3115 11.7682C39.4609 11.6018 39.6272 11.4514 39.8077 11.3193C39.9163 11.2391 40.0446 11.19 40.179 11.1773C40.3133 11.1645 40.4486 11.1886 40.5703 11.2469C40.692 11.3052 40.7956 11.3956 40.8698 11.5083C40.9441 11.621 40.9863 11.7517 40.9919 11.8866C41.0055 12.0876 41.008 12.2892 40.9994 12.4905V36.3034C41.2299 36.1919 41.4521 36.0847 41.6685 35.9803C42.1498 35.7482 42.6027 35.5297 43.056 35.3077C43.8788 34.9029 44.6998 34.4948 45.519 34.0832C45.9205 33.8813 46.3264 33.8081 46.5616 34.2726C46.8162 34.7705 46.5078 35.0526 46.0739 35.2636C45.5885 35.5008 45.1057 35.744 44.6229 35.9872C43.6674 36.4686 42.7119 36.95 41.7357 37.3848C41.5869 37.4266 41.4493 37.501 41.3328 37.6025C41.2163 37.704 41.1238 37.8301 41.0619 37.9718C41.0001 38.1134 40.9706 38.267 40.9754 38.4215C40.9802 38.576 41.0193 38.7274 41.0898 38.8649H44.4059C44.456 38.8649 44.5101 38.8616 44.5649 38.8582C44.73 38.848 44.9021 38.8373 44.9926 38.9161C45.1858 39.0824 45.435 39.4064 45.3828 39.5797C45.327 39.7114 45.2403 39.8277 45.1301 39.9188C45.0198 40.0098 44.8892 40.073 44.7493 40.1029C44.0473 40.147 43.3422 40.1415 42.637 40.1361C42.3787 40.1341 42.1203 40.1321 41.8622 40.1325H41.0936C41.0201 40.2682 40.9785 40.4188 40.9718 40.573C40.9652 40.7272 40.9937 40.8808 41.0552 41.0223C41.1167 41.1639 41.2096 41.2895 41.3268 41.3899C41.4441 41.4902 41.5826 41.5625 41.7319 41.6014C42.7408 42.0539 43.7298 42.5513 44.7186 43.0486L44.7197 43.0491C45.109 43.2449 45.4983 43.4407 45.8888 43.6338C45.9102 43.6443 45.9317 43.6549 45.9534 43.6655L45.9542 43.6659C46.3878 43.8781 46.8635 44.111 46.5546 44.7135C46.2654 45.278 45.8142 45.0521 45.393 44.8413L45.3398 44.8147C44.2178 44.2576 43.0958 43.7067 41.9 43.1196L41.8981 43.1187L41.8917 43.1155C41.5987 42.9717 41.3013 42.8256 40.9983 42.6768L40.9978 42.6795ZM15.7569 20.3531L9.01213 13.5987V27.8342C9.18429 27.5563 9.35558 27.2817 9.52559 27.0092C9.98117 26.2789 10.4276 25.5632 10.8572 24.8372C10.9841 24.6074 11.0516 24.3495 11.0537 24.0869C11.0636 23.4585 11.0639 22.8298 11.0642 22.2011C11.0645 21.531 11.0649 20.8609 11.0768 20.1911C11.1135 19.9627 11.1822 19.7405 11.2808 19.5312C11.5216 19.5957 11.7498 19.7003 11.9558 19.8407C12.4173 20.2943 12.859 20.7683 13.2888 21.2296L13.2904 21.2313C13.4491 21.4016 13.6062 21.5702 13.7621 21.7353L15.7569 20.3531ZM39.6635 13.5142L32.8472 20.3203L34.8198 21.6804C34.9852 21.5116 35.1497 21.342 35.314 21.1726C35.7576 20.7152 36.2005 20.2585 36.6585 19.8187C36.8473 19.6871 37.0552 19.5851 37.2747 19.5162C37.3852 19.7147 37.463 19.9297 37.5051 20.1529C37.5197 20.98 37.5188 21.8073 37.5179 22.6348V22.6354C37.5174 23.0618 37.5169 23.4883 37.5186 23.9147C37.4906 24.1129 37.5111 24.315 37.5783 24.5035C38.0882 25.3487 38.6146 26.1841 39.153 27.0387C39.3216 27.3063 39.4916 27.576 39.6624 27.8482L39.6635 13.5142Z" fill="currentColor"/>
<path d="M24.3332 40.9673C24.217 41.1116 24.1069 41.2553 23.9988 41.3964C23.7694 41.6959 23.5488 41.9839 23.2971 42.2419C22.7169 42.8382 21.9735 43.2498 21.1601 43.4249C20.3468 43.5999 19.4998 43.5307 18.7258 43.2258C18.2952 43.0573 18.0007 42.8135 18.1525 42.3296C18.314 41.8188 18.7295 41.814 19.138 41.99C21.1898 42.8754 23.1404 41.252 23.5425 39.0754C23.5812 38.8649 23.359 38.5727 23.1969 38.367C23.1485 38.3056 23.0926 38.2449 23.0364 38.1839C22.8068 37.9349 22.5725 37.6806 22.8272 37.3503C23.0927 37.1132 23.4309 36.9734 23.7863 36.9536C24.2294 36.889 24.6796 36.8907 25.1222 36.9585C25.2562 36.9763 25.3847 37.0228 25.4989 37.0949C25.6132 37.167 25.7105 37.2629 25.7843 37.3762C25.8198 37.5087 25.8218 37.648 25.7902 37.7815C25.7585 37.915 25.6941 38.0385 25.6029 38.141C24.8698 38.6652 25.0846 39.2616 25.3418 39.9053C26.0599 41.7015 27.8344 42.7607 29.5784 41.976C29.6588 41.9218 29.7511 41.8878 29.8475 41.8768C29.9438 41.8658 30.0414 41.8781 30.132 41.9128C30.2226 41.9474 30.3036 42.0032 30.3681 42.0757C30.4325 42.1482 30.4787 42.2351 30.5025 42.3291C30.6473 42.7763 30.3949 43.0288 29.9923 43.1994C29.1911 43.53 28.3077 43.6064 27.4617 43.4182C26.6158 43.23 25.8481 42.7862 25.2627 42.1471C25.0359 41.9049 24.8367 41.6368 24.6302 41.3588C24.5344 41.2298 24.4367 41.0984 24.3342 40.9668L24.3332 40.9673Z" fill="currentColor"/>
<path d="M34.0514 33.8003C34.1289 33.6211 34.1701 33.4285 34.1728 33.2333C34.1827 33.0325 34.151 32.8317 34.0797 32.6437C34.0084 32.4557 33.8989 32.2845 33.7583 32.1408C33.6176 31.9971 33.4488 31.884 33.2623 31.8087C33.0759 31.7334 32.8759 31.6974 32.6748 31.7031C32.2812 31.7045 31.904 31.8612 31.6252 32.1392C31.3464 32.4171 31.1886 32.7939 31.1861 33.1876C31.1881 33.5811 31.3434 33.9583 31.6191 34.2391C31.8948 34.5199 32.2691 34.6822 32.6625 34.6914C32.8576 34.6956 33.0516 34.6612 33.2333 34.59C33.4151 34.5189 33.5809 34.4125 33.7213 34.2769C33.8617 34.1414 33.9739 33.9794 34.0514 33.8003Z" fill="currentColor"/>
<path d="M14.4795 33.1796C14.4768 32.9845 14.5134 32.7908 14.587 32.6101C14.6606 32.4291 14.77 32.2647 14.9085 32.1268C15.047 31.9888 15.2118 31.8802 15.3931 31.8072C15.5744 31.7342 15.7685 31.6984 15.964 31.702C16.1646 31.7005 16.3636 31.7396 16.5488 31.8168C16.734 31.894 16.9018 32.0078 17.042 32.1514C17.1822 32.295 17.292 32.4654 17.3648 32.6524C17.4376 32.8394 17.4719 33.0392 17.4657 33.2398C17.4492 33.6329 17.2806 34.0042 16.9955 34.2754C16.7104 34.5465 16.331 34.6963 15.9376 34.693C15.5435 34.6854 15.1686 34.5216 14.8952 34.2377C14.622 33.954 14.4725 33.5735 14.4795 33.1796Z" fill="currentColor"/>
</svg>
