<svg width="48" height="48" viewBox="0 0 48 48" fill="none" xmlns="http://www.w3.org/2000/svg">
<path fill-rule="evenodd" clip-rule="evenodd" d="M36.2546 22.358V26.1363H35.3462V25.5917C35.3462 24.7022 35.3502 23.8126 35.3541 22.923C35.3633 20.8403 35.3724 18.7576 35.3313 16.6759C35.2472 12.4358 33.3324 9.206 29.6472 7.12599C23.1051 3.43384 14.7154 7.60978 13.6393 15.0498C13.5553 15.6313 13.5115 16.2178 13.5084 16.8053C13.4986 18.9088 13.4993 21.0125 13.5001 23.1161C13.5004 23.9049 13.5007 24.694 13.5004 25.4827V26.1298H12.6025V22.3968C12.471 22.4366 12.3415 22.4831 12.2148 22.5362L12.1103 22.5874C11.2046 23.0316 10.2986 23.476 9.39762 23.9298C9.08953 24.0851 8.79487 24.1289 8.62813 23.7765C8.47334 23.4485 8.68537 23.2454 8.97256 23.1041C9.29346 22.9466 9.61289 22.7858 9.93232 22.6251C10.6335 22.2722 11.3348 21.9193 12.0515 21.6009C12.1594 21.574 12.2599 21.5231 12.3454 21.4519C12.4309 21.3808 12.4992 21.2912 12.5453 21.19C12.5913 21.0888 12.614 20.9784 12.6115 20.8672C12.609 20.756 12.5814 20.6468 12.5308 20.5478H10.3811C10.3335 20.5478 10.2832 20.5522 10.2327 20.5567C10.1148 20.5672 9.99647 20.5777 9.91178 20.5313C9.74005 20.405 9.58545 20.257 9.45187 20.0908C9.49979 20.0446 9.54689 19.9877 9.59396 19.9309C9.69897 19.804 9.80384 19.6773 9.91725 19.6698C10.4252 19.6335 10.935 19.6385 11.4449 19.6434C11.6345 19.6453 11.8241 19.6471 12.0137 19.6469H12.5194C12.6715 18.9101 12.6687 18.9087 12.0486 18.6024L12.0401 18.5981C11.6615 18.4117 11.2835 18.2242 10.9054 18.0366L10.9048 18.0362L10.9039 18.0358C10.2731 17.7228 9.64193 17.4096 9.0084 17.102C8.70379 16.9527 8.46637 16.762 8.63261 16.4052C8.79885 16.0483 9.10197 16.1105 9.40459 16.2618C10.1589 16.6389 10.9131 17.0104 11.6674 17.3819L12.0923 17.5912C12.1872 17.6377 12.2839 17.6799 12.4038 17.7323C12.4599 17.7568 12.5215 17.7838 12.5901 17.8142V1.10048C12.5688 0.943109 12.5725 0.783362 12.601 0.627141L12.6074 0.608637C12.6783 0.404007 12.7715 0.134878 12.928 0.069187C13.0372 0.0431323 13.1509 0.0426479 13.2603 0.0677716C13.3697 0.0928953 13.4718 0.142948 13.5586 0.214026C14.0589 0.674251 14.5377 1.15722 15.017 1.64058C15.1758 1.80072 15.3346 1.96091 15.4943 2.12033C15.7749 2.40079 16.0559 2.68079 16.337 2.96079C17.2155 3.83601 18.0943 4.71144 18.9585 5.60095C19.0569 5.73709 19.2024 5.83169 19.3668 5.8663C19.5312 5.9009 19.7025 5.87302 19.8474 5.78809C21.2966 5.16594 22.8574 4.84589 24.4345 4.84751C26.0116 4.84914 27.5717 5.17241 29.0196 5.79755C29.1584 5.87819 29.3222 5.90436 29.4792 5.87097C29.6362 5.83758 29.7752 5.74702 29.8692 5.61688C31.2492 4.21897 32.639 2.83196 34.029 1.44479C34.3713 1.10329 34.7135 0.761774 35.0556 0.420086C35.1616 0.301308 35.2797 0.193884 35.4079 0.0995484C35.485 0.0426292 35.576 0.00775284 35.6714 -0.00133999C35.7667 -0.0104328 35.8628 0.00660088 35.9492 0.0479342C36.0356 0.0892676 36.1091 0.153341 36.1618 0.233283C36.2146 0.313225 36.2446 0.406019 36.2486 0.501714C36.2584 0.644513 36.2603 0.787752 36.2541 0.930756V17.8336C36.4261 17.7504 36.5918 17.6705 36.7531 17.5928C37.0863 17.4323 37.4009 17.2808 37.7134 17.1269C38.2974 16.8395 38.8801 16.5498 39.4615 16.2578C39.7462 16.114 40.0328 16.0622 40.2016 16.3922C40.3823 16.7451 40.1623 16.9457 39.8532 17.0955C39.5079 17.2642 39.1646 17.4372 38.8214 17.6101C38.1439 17.9515 37.4662 18.293 36.7742 18.6011C36.6685 18.6306 36.5706 18.6833 36.4877 18.7552C36.4047 18.8272 36.3389 18.9167 36.2948 19.0173C36.2507 19.1179 36.2296 19.227 36.2329 19.3367C36.2362 19.4465 36.2638 19.5541 36.3138 19.6518H38.6676C38.7031 19.6518 38.7415 19.6495 38.7805 19.6471C38.8975 19.6399 39.0196 19.6324 39.0842 19.6877C39.221 19.8061 39.3982 20.0361 39.3609 20.1585C39.3214 20.2518 39.2601 20.3342 39.1822 20.3988C39.1042 20.4634 39.0119 20.5083 38.913 20.5298C38.4137 20.5612 37.9122 20.5573 37.4108 20.5533C37.2284 20.5519 37.046 20.5505 36.8638 20.5507H36.3228C36.2707 20.647 36.2412 20.7539 36.2365 20.8633C36.2319 20.9726 36.2521 21.0816 36.2957 21.182C36.3394 21.2824 36.4052 21.3716 36.4884 21.4428C36.5715 21.514 36.6698 21.5653 36.7757 21.593C37.5023 21.919 38.2141 22.2774 38.9259 22.6358C39.1923 22.7699 39.4586 22.904 39.7257 23.0364L39.7718 23.059C40.0796 23.2096 40.4175 23.375 40.1981 23.8029C39.9931 24.2028 39.674 24.0435 39.375 23.8942L39.3355 23.8746C38.6396 23.5286 37.942 23.1862 37.2099 22.8269L37.2092 22.8266C36.8979 22.6738 36.5804 22.518 36.2541 22.3575L36.2546 22.358ZM13.5527 1.71966L18.3397 6.5132L16.9243 7.49381C16.8094 7.37244 16.6937 7.24847 16.5767 7.12319C16.2749 6.8 15.9649 6.46809 15.6421 6.14994C15.4959 6.05027 15.3338 5.97606 15.1628 5.93045C15.0928 6.07882 15.044 6.23632 15.018 6.39831C15.0095 6.87559 15.0092 7.35181 15.009 7.82779C15.0088 8.27307 15.0085 8.71815 15.0016 9.16369C15.0001 9.35004 14.9522 9.53309 14.8622 9.69626C14.5706 10.1893 14.2671 10.6759 13.9584 11.1709C13.824 11.3864 13.6885 11.6036 13.5527 11.8236V1.71966ZM35.3079 1.65893L30.47 6.49039L31.8701 7.45549C31.9891 7.33401 32.1074 7.21205 32.2256 7.09019L32.226 7.08978C32.5392 6.76693 32.8519 6.44464 33.1751 6.13402C33.3092 6.04049 33.4567 5.96798 33.6126 5.919C33.6911 6.05988 33.7464 6.21248 33.7764 6.37094C33.7869 6.95661 33.7861 7.54229 33.7854 8.12796C33.785 8.43213 33.7847 8.73659 33.7858 9.04075C33.7658 9.18149 33.7803 9.32499 33.8282 9.45885C34.1838 10.0483 34.5508 10.6308 34.9259 11.2261L34.9263 11.2268L34.9294 11.2316C35.0545 11.4302 35.1806 11.6303 35.3074 11.8325L35.3079 1.65893Z" fill="currentColor"/>
<path d="M24.427 21.1445C24.345 21.2465 24.2671 21.348 24.1907 21.4477C24.0274 21.6607 23.8704 21.8655 23.6914 22.0489C23.2795 22.4721 22.7517 22.764 22.1744 22.888C21.5971 23.0119 20.996 22.9625 20.4467 22.7457C20.1426 22.6263 19.932 22.4531 20.04 22.1096C20.1535 21.7468 20.4497 21.7438 20.7369 21.8687C22.1932 22.4969 23.5774 21.3451 23.8631 19.7997C23.8905 19.6504 23.7332 19.4428 23.6177 19.297C23.5834 19.2535 23.5437 19.2105 23.5039 19.1673C23.3409 18.9905 23.1745 18.81 23.3549 18.5753C23.5433 18.4071 23.7832 18.3078 24.0353 18.2936C24.3498 18.2479 24.6693 18.249 24.9835 18.297C25.0787 18.3099 25.1701 18.3432 25.2512 18.3948C25.3323 18.4463 25.4013 18.5149 25.4533 18.5957C25.4794 18.6898 25.4816 18.7889 25.4597 18.8841C25.4378 18.9793 25.3925 19.0675 25.3279 19.1407C24.8078 19.5125 24.9601 19.9371 25.1428 20.393C25.6524 21.6677 26.9117 22.4197 28.1495 21.8628C28.2065 21.8242 28.2719 21.8 28.3402 21.792C28.4086 21.784 28.4778 21.7926 28.5421 21.817C28.6064 21.8414 28.6639 21.8809 28.7098 21.9322C28.7556 21.9835 28.7885 22.045 28.8055 22.1116C28.9081 22.4292 28.7294 22.6094 28.4432 22.7298C27.8746 22.9644 27.2477 23.0187 26.6473 22.8851C26.0469 22.7516 25.502 22.4367 25.0865 21.9832C24.9255 21.8113 24.7841 21.621 24.6376 21.4239L24.6371 21.4231C24.5692 21.3317 24.5001 21.2388 24.4275 21.1455L24.427 21.1445Z" fill="currentColor"/>
<path d="M31.3244 16.0581C31.3794 15.9309 31.4087 15.7941 31.4106 15.6556H31.4131C31.42 15.513 31.3975 15.3706 31.3468 15.2372C31.2962 15.1038 31.2185 14.9823 31.1187 14.8803C31.0189 14.7784 30.8991 14.6981 30.7668 14.6446C30.6345 14.5912 30.4925 14.5656 30.3499 14.5695C30.0705 14.5706 29.8028 14.6818 29.6049 14.8791C29.4071 15.0764 29.2951 15.3438 29.2932 15.6232C29.2946 15.9021 29.4044 16.1695 29.5995 16.3688C29.7946 16.5681 30.0597 16.6836 30.3385 16.6908C30.477 16.6938 30.6147 16.6693 30.7437 16.6188C30.8727 16.5683 30.9905 16.4927 31.0901 16.3965C31.1898 16.3003 31.2694 16.1852 31.3244 16.0581Z" fill="currentColor"/>
<path d="M17.432 15.6172C17.43 15.4785 17.456 15.3409 17.5083 15.2124C17.5606 15.0839 17.6382 14.9673 17.7365 14.8694C17.8348 14.7715 17.9518 14.6944 18.0805 14.6426C18.2092 14.5908 18.347 14.5655 18.4857 14.568C18.6281 14.567 18.7693 14.5946 18.9008 14.6495C19.0323 14.7043 19.1513 14.785 19.2508 14.887C19.3503 14.9889 19.4283 15.1099 19.4799 15.2426C19.5315 15.3754 19.5558 15.5172 19.5513 15.6596C19.5398 15.9387 19.4203 16.2025 19.2179 16.3951C19.0155 16.5877 18.7462 16.6941 18.4668 16.6918C18.1871 16.6863 17.9211 16.5701 17.7271 16.3686C17.5331 16.1671 17.4269 15.8969 17.432 15.6172Z" fill="currentColor"/>
<path fill-rule="evenodd" clip-rule="evenodd" d="M12.6248 31.6008L12.2505 27.8002L12.2097 26.8276C12.1848 26.6923 12.1644 26.5836 12.147 26.4914C12.1195 26.3454 12.0997 26.2403 12.0823 26.1348C11.8349 24.6152 11.2018 24.0791 9.77781 24.1787C8.59321 24.2623 8.02033 24.99 8.01087 26.4523C8.0102 26.5538 8.00952 26.6554 8.00884 26.757C8.00034 28.0218 7.99181 29.29 8.01485 30.5556C8.11895 32.8006 8.68416 35.0001 9.67528 37.0171C10.7224 39.3465 12.4968 41.0433 14.2722 42.7411C14.4656 42.9261 14.6591 43.1111 14.8517 43.297C15.9546 44.3596 16.8988 45.3874 16.5614 47.0797C16.4275 47.7432 16.7928 48.0025 17.4727 48C22.1371 47.9864 26.8016 47.9864 31.4664 48C32.0791 48 32.4613 47.789 32.3414 47.1539C32.0084 45.3939 32.9232 44.2491 34.1486 43.2039C34.5016 42.9024 34.8209 42.5623 35.1403 42.2221C35.3979 41.9478 35.6555 41.6734 35.931 41.419C38.3787 39.2712 40.008 36.3427 40.5424 33.1303C40.8064 31.4197 40.8171 29.6682 40.8279 27.92C40.8313 27.3508 40.8348 26.7819 40.8471 26.2149C40.8754 24.9108 40.2553 24.2504 39.0955 24.1802C37.7183 24.0971 37.0429 24.6256 36.8329 25.9466C36.804 26.129 36.7693 26.3104 36.7294 26.5197C36.7108 26.6171 36.691 26.7206 36.6701 26.8331L36.6437 27.8494C36.6041 28.2633 36.5649 28.6729 36.5253 29.0855C36.4467 29.9066 36.3668 30.74 36.2804 31.6446C34.9002 30.5352 33.9042 31.0837 32.862 32.0164C31.6184 33.1299 30.3495 34.215 29.0807 35.3001C28.0342 36.1949 26.9878 37.0898 25.9555 38.0006C25.4545 38.4993 24.9918 39.0351 24.5713 39.6033C23.6793 38.8129 22.7831 38.0206 21.8847 37.2263C19.7728 35.3592 17.6484 33.481 15.5355 31.5899C14.5804 30.7348 13.6467 30.8935 12.6248 31.6008ZM17.3904 47.0339H23.9686C23.9686 46.482 23.9794 45.9366 23.9902 45.3967C24.0159 44.1051 24.041 42.8446 23.9153 41.5992C23.8149 40.6614 23.4051 39.7837 22.7506 39.1046C20.9877 37.4557 19.154 35.8826 17.3201 34.3093C16.5761 33.671 15.832 33.0327 15.0926 32.3892C14.6182 31.9761 14.112 31.5675 13.5496 32.1533C12.9872 32.7391 13.3943 33.2428 13.8393 33.6898C14.2163 34.0685 14.595 34.4457 14.9737 34.8229C15.9838 35.829 16.9941 36.8354 17.9744 37.8707C18.1879 38.2156 18.3359 38.597 18.4109 38.9956C18.0552 38.8755 17.7196 38.7025 17.4155 38.4824C16.776 37.8487 16.1487 37.2024 15.5213 36.5562C14.611 35.6184 13.7008 34.6807 12.7537 33.7814C12.4447 33.5033 12.1943 33.1664 12.0172 32.7903C11.84 32.4143 11.7396 32.0067 11.7219 31.5914C11.6391 30.492 11.5269 29.395 11.4148 28.2979C11.3416 27.5821 11.2684 26.8663 11.2033 26.1497C11.1341 25.3877 10.7792 25.0119 9.98735 25.0363C9.14569 25.0622 8.92669 25.5534 8.93266 26.2846C8.93738 26.8763 8.935 27.468 8.93263 28.0598C8.92923 28.9051 8.92584 29.7504 8.94312 30.5954C9.02922 34.7415 10.7777 38.0862 13.6715 41.0114C14.0429 41.3864 14.4659 41.7348 14.8918 42.0855C16.3694 43.3022 17.8814 44.5473 17.3904 47.0339ZM39.9606 28.8205L40.2682 28.8797L40.2727 28.8748C40.1553 29.4923 40.0496 30.113 39.9438 30.7338C39.7051 32.1355 39.4663 33.5373 39.0941 34.9023C38.4146 37.3934 36.8876 39.4017 34.9758 41.1264C34.5992 41.4664 34.2449 41.831 33.8905 42.1957C33.5115 42.5856 33.1325 42.9757 32.7261 43.3358C31.8257 44.1321 31.2961 45.04 31.4723 46.2774C31.5629 46.9209 31.2583 47.1325 30.6262 47.12C29.0145 47.0897 27.4019 47.0941 25.7898 47.12C25.189 47.13 24.8914 46.9797 24.9078 46.3032C24.9255 45.5873 24.9196 44.8707 24.9137 44.1542C24.9075 43.3983 24.9012 42.6425 24.9227 41.8874C24.961 40.4952 25.742 39.4167 26.7145 38.5466C28.353 37.0788 30.0266 35.6508 31.7006 34.2226C32.4492 33.5838 33.1979 32.9451 33.9436 32.3026C34.3791 31.9253 34.838 31.6755 35.3247 32.1618C35.8289 32.6655 35.5353 33.088 35.1291 33.5091C33.6703 35.0197 32.2189 36.5383 30.7989 38.0813C30.6312 38.3655 30.5183 38.6787 30.4659 39.0045C30.5607 38.9724 30.6643 38.9487 30.7679 38.9249C30.9919 38.8735 31.2162 38.8221 31.3524 38.686C33.1542 36.8758 34.9495 35.0531 36.688 33.1811C36.9678 32.7858 37.1258 32.3173 37.1425 31.8333C37.2904 30.5338 37.4083 29.231 37.5262 27.9281C37.5725 27.4161 37.6189 26.904 37.6671 26.3921C37.7338 25.6848 37.8796 25.0577 38.7969 25.0482C39.5191 25.0412 39.9417 25.3454 39.9566 26.0865C39.9691 26.7201 39.9661 27.3542 39.9632 27.9883C39.9619 28.2657 39.9606 28.5431 39.9606 28.8205Z" fill="currentColor"/>
</svg>
