<svg width="48" height="48" viewBox="0 0 48 48" fill="none" xmlns="http://www.w3.org/2000/svg">
<path fill-rule="evenodd" clip-rule="evenodd" d="M41.9206 37.8629V43.582H40.5451V42.7566C40.5451 41.4115 40.5511 40.0662 40.557 38.721C40.5709 35.5646 40.5848 32.4081 40.5222 29.2531C40.3945 22.8316 37.4945 17.9392 31.9136 14.7894C22.0052 9.19732 9.29798 15.5223 7.66923 26.7919C7.54187 27.6724 7.47566 28.5606 7.47106 29.4503C7.45599 32.681 7.45732 35.912 7.45864 39.1429C7.45911 40.2929 7.45958 41.4428 7.45931 42.5927V43.5753H6.0987V37.9286C5.89944 37.9886 5.7034 38.0588 5.51135 38.139L5.34822 38.219C3.97824 38.8909 2.60769 39.5632 1.24461 40.2494C0.777793 40.4843 0.331916 40.5528 0.0790989 40.017C-0.155842 39.52 0.166436 39.2121 0.601077 38.9986C1.08514 38.7609 1.56697 38.5184 2.04878 38.2759L2.04939 38.2756C3.11331 37.7401 4.17713 37.2046 5.26466 36.7217C6.00064 36.3943 6.25447 35.9745 5.99042 35.1272H2.73342C2.66086 35.1272 2.58402 35.1344 2.50707 35.1416C2.32893 35.1583 2.15015 35.175 2.02247 35.1026C1.7629 34.9109 1.5294 34.6861 1.32786 34.4341C1.40186 34.3638 1.47464 34.276 1.54741 34.1882C1.70515 33.9979 1.86282 33.8077 2.03269 33.7962C2.8041 33.7427 3.57962 33.7497 4.35523 33.7567C4.6395 33.7593 4.92386 33.7618 5.20796 33.7614H5.97408C6.20426 32.6436 6.20392 32.6434 5.26293 32.1802L5.24831 32.173C4.67393 31.8902 4.10077 31.6058 3.52776 31.3214C2.57219 30.8472 1.61702 30.3732 0.657258 29.9074C0.197591 29.6832 -0.163503 29.3925 0.0877815 28.8558C0.343152 28.3103 0.799244 28.4094 1.25738 28.6387C2.4397 29.231 3.6263 29.8147 4.81277 30.3983L5.32952 30.6526C5.46849 30.7198 5.61033 30.7823 5.78325 30.8584C5.87279 30.8978 5.9707 30.9408 6.08082 30.9901V5.66656C6.04882 5.42883 6.05434 5.18754 6.09717 4.95152L6.10685 4.92361C6.21442 4.61348 6.35563 4.20638 6.59258 4.10624C6.75813 4.06665 6.9306 4.06593 7.09647 4.10412C7.26234 4.14231 7.41713 4.21838 7.54869 4.32637C8.31869 5.03478 9.05626 5.77889 9.79364 6.52282C10.0222 6.75342 10.2509 6.98411 10.4803 7.2136C10.9097 7.64282 11.3398 8.0713 11.7698 8.49978C13.0961 9.82107 14.4224 11.1425 15.7267 12.485C15.8756 12.6915 16.0962 12.8349 16.3453 12.8873C16.5944 12.9396 16.8541 12.8971 17.0735 12.7679C19.2685 11.8259 21.6325 11.3414 24.0211 11.3439C26.4097 11.3465 28.7727 11.8361 30.9657 12.7827C31.1761 12.9042 31.4241 12.9435 31.6618 12.8929C31.8994 12.8424 32.11 12.7056 32.2527 12.509C34.3367 10.3989 36.4353 8.30416 38.534 6.20937C39.0586 5.68581 39.5831 5.16225 40.1074 4.63844C40.2682 4.45956 40.4471 4.29781 40.6412 4.15579C40.7579 4.06965 40.8958 4.01688 41.0402 4.00316C41.1846 3.98943 41.33 4.01526 41.4609 4.07788C41.5917 4.14049 41.7031 4.23753 41.783 4.35859C41.8629 4.47965 41.9083 4.62018 41.9144 4.7651C41.9292 4.98134 41.9319 5.19823 41.9226 5.41477V31.0126C42.1545 30.9004 42.3788 30.7923 42.5975 30.6868L42.599 30.6861C43.133 30.4286 43.6341 30.187 44.1331 29.9401C45.0184 29.5053 45.901 29.0664 46.7808 28.6234C47.2124 28.4063 47.646 28.3277 47.9014 28.8277C48.1751 29.3629 47.8416 29.6658 47.3768 29.8931C46.8529 30.149 46.3319 30.4115 45.8109 30.674C44.7858 31.1904 43.7606 31.7069 42.7132 32.1735C41.9625 32.5076 41.7745 32.9575 42.0161 33.765H45.5805C45.6342 33.765 45.6923 33.7615 45.7511 33.7579C45.9285 33.747 46.1135 33.7357 46.2113 33.8197C46.4187 33.9984 46.6873 34.3473 46.6306 34.5347C46.5706 34.6761 46.4774 34.801 46.3589 34.8988C46.2404 34.9966 46.1001 35.0644 45.9498 35.0965C45.1931 35.1437 44.433 35.1379 43.6731 35.132C43.3976 35.1299 43.1219 35.1278 42.8465 35.1282H42.0232C41.9443 35.274 41.8996 35.436 41.8925 35.6017C41.8853 35.7674 41.916 35.9325 41.9821 36.0846C42.0483 36.2367 42.1481 36.3718 42.2742 36.4796C42.4002 36.5874 42.5492 36.6651 42.7097 36.7069C43.7961 37.1943 44.8612 37.73 45.9261 38.2656C46.343 38.4753 46.76 38.6851 47.1781 38.8918L47.1958 38.9006L47.2494 38.9269C47.715 39.155 48.2255 39.4052 47.8932 40.0522C47.5823 40.6584 47.0982 40.4164 46.6456 40.1901L46.5872 40.161C45.6738 39.7071 44.7585 39.2577 43.809 38.7915L43.8081 38.7911L43.7895 38.782C43.1834 38.4844 42.5632 38.1799 41.9206 37.8629ZM7.53541 6.60428L14.7879 13.865L14.7854 13.8645L12.6403 15.3502C12.4652 15.165 12.2888 14.9755 12.1104 14.784C11.6554 14.2956 11.1877 13.7936 10.6995 13.3134C10.478 13.1625 10.2326 13.0501 9.97369 12.9809C9.86771 13.2059 9.79395 13.4447 9.75459 13.6903C9.74173 14.4075 9.74141 15.1247 9.74109 15.842C9.74079 16.5208 9.74048 17.1997 9.72956 17.8784C9.7274 18.1606 9.6549 18.4378 9.51862 18.6849C9.04848 19.4794 8.55982 20.2627 8.06117 21.0621L8.06077 21.0627L8.05943 21.0649C7.88585 21.3431 7.71106 21.6233 7.53541 21.9066V6.60428ZM33.1593 13.8297L40.4859 6.51337L40.4864 21.9209C40.2959 21.6171 40.1066 21.3166 39.9186 21.0181C39.3472 20.111 38.7881 19.2235 38.2463 18.3258C38.174 18.123 38.1521 17.9056 38.1825 17.6925C38.1809 17.2472 38.1815 16.8018 38.182 16.3565C38.1831 15.4538 38.1842 14.5511 38.1682 13.6489C38.1228 13.409 38.0392 13.1779 37.9204 12.9645C37.6839 13.0386 37.46 13.1483 37.2565 13.2899C36.7601 13.7671 36.2802 14.2618 35.7993 14.7576C35.6266 14.9357 35.4537 15.1139 35.2799 15.2915L33.1593 13.8297Z" fill="currentColor"/>
<path d="M23.6489 36.4825C23.7645 36.3315 23.8822 36.1778 24.0064 36.0235V36.023C24.1173 36.1654 24.2226 36.3072 24.3263 36.4467C24.5475 36.7445 24.7609 37.0318 25.0044 37.2917C25.6338 37.9784 26.459 38.4551 27.3683 38.6573C28.2776 38.8596 29.2271 38.7776 30.0883 38.4224C30.5214 38.237 30.79 37.9674 30.6368 37.4868C30.6112 37.3857 30.5616 37.2923 30.4923 37.2144C30.423 37.1365 30.336 37.0764 30.2386 37.0392C30.1412 37.002 30.0363 36.9888 29.9327 37.0006C29.8291 37.0125 29.7299 37.049 29.6434 37.1073C27.769 37.951 25.8614 36.8121 25.0897 34.8815C24.8128 34.1899 24.582 33.5469 25.3701 32.9851C25.4682 32.8749 25.5374 32.7421 25.5715 32.5986C25.6055 32.455 25.6034 32.3053 25.5652 32.1628C25.486 32.041 25.3814 31.9378 25.2586 31.8602C25.1358 31.7827 24.9977 31.7325 24.8537 31.7133C24.3779 31.6405 23.8938 31.6387 23.4175 31.7082C23.0356 31.7296 22.6722 31.8799 22.3868 32.1347C22.1135 32.4901 22.3654 32.7633 22.6122 33.0311C22.6726 33.0966 22.7327 33.1617 22.7847 33.2277C22.9588 33.4488 23.1979 33.7629 23.156 33.9892C22.7239 36.3289 20.6268 38.0736 18.4214 37.1221C17.9827 36.9331 17.5343 36.9377 17.3621 37.4873C17.1992 38.0077 17.5189 38.2692 17.9786 38.4505C18.8107 38.7783 19.7211 38.8529 20.5954 38.6648C21.4697 38.4767 22.2688 38.0343 22.8924 37.3933C23.1642 37.1156 23.4018 36.8053 23.6489 36.4825Z" fill="currentColor"/>
<path d="M34.5842 27.7112C34.5814 27.921 34.537 28.1281 34.4537 28.3207C34.3704 28.5132 34.2498 28.6874 34.0989 28.8331C33.9479 28.9788 33.7696 29.0932 33.5743 29.1697C33.3789 29.2461 33.1703 29.2832 32.9606 29.2786C32.5377 29.2687 32.1354 29.0943 31.8391 28.7924C31.5428 28.4906 31.3758 28.0851 31.3737 27.6621C31.3762 27.2389 31.5458 26.8338 31.8454 26.5349C32.1451 26.2361 32.5506 26.0676 32.9738 26.0661C33.1899 26.06 33.405 26.0986 33.6054 26.1796C33.8059 26.2606 33.9874 26.3821 34.1387 26.5366C34.2899 26.6911 34.4075 26.8752 34.4842 27.0773C34.5609 27.2794 34.5949 27.4953 34.5842 27.7112Z" fill="currentColor"/>
<path d="M13.5307 27.0406C13.4514 27.2352 13.4121 27.4438 13.4151 27.654H13.4166C13.4088 28.0775 13.5695 28.4869 13.8633 28.7921C14.1571 29.0973 14.56 29.2734 14.9836 29.2817C15.4067 29.2852 15.8147 29.1241 16.1212 28.8324C16.4277 28.5406 16.6088 28.1411 16.6261 27.7183C16.6329 27.5027 16.596 27.2879 16.5178 27.0868C16.4395 26.8857 16.3215 26.7025 16.1707 26.5481C16.02 26.3938 15.8396 26.2714 15.6405 26.1884C15.4413 26.1054 15.2274 26.0634 15.0117 26.065C14.8016 26.0611 14.5928 26.0994 14.3978 26.1777C14.2028 26.256 14.0255 26.3728 13.8766 26.5211C13.7276 26.6693 13.61 26.846 13.5307 27.0406Z" fill="currentColor"/>
</svg>
