<svg width="48" height="48" viewBox="0 0 48 48" fill="none" xmlns="http://www.w3.org/2000/svg">
<path d="M39.7947 21.5182V45.8471C39.7947 47.5155 40.6149 47.4874 40.6149 47.4874C40.8324 47.4874 41.041 47.401 41.1948 47.2472C41.3486 47.0934 41.435 46.8848 41.435 46.6673V22.3384H47.1797C47.3476 22.3385 47.5114 22.287 47.6491 22.191C47.7867 22.095 47.8916 21.959 47.9495 21.8014C48.0074 21.6439 48.0155 21.4723 47.9727 21.31C47.9299 21.1477 47.8384 21.0024 47.7104 20.8939L24.5305 1.1958C24.3823 1.06976 24.1941 1.00055 23.9996 1.00055C23.805 1.00055 23.6168 1.06976 23.4686 1.1958L14.2595 9.0213V5.75023C14.2595 5.53271 14.1731 5.3241 14.0193 5.17029C13.8655 5.01648 13.6568 4.93007 13.4393 4.93007H8.2659C8.04838 4.93007 7.83977 5.01648 7.68596 5.17029C7.53215 5.3241 7.44574 5.53271 7.44574 5.75023V14.8119L0.289376 20.8939C0.161378 21.0024 0.0698071 21.1477 0.0270437 21.31C-0.0157197 21.4723 -0.00761364 21.6439 0.050266 21.8014C0.108146 21.959 0.213007 22.095 0.350675 22.191C0.488343 22.287 0.652177 22.3385 0.82003 22.3384H6.56589V46.6673C6.56589 46.8846 6.65214 47.093 6.80569 47.2468C6.95924 47.4006 7.16754 47.4871 7.38486 47.4874C7.38486 47.4874 8.20442 47.4874 8.20442 45.8471V21.5182C8.20442 21.3008 8.11809 21.0923 7.96441 20.9385C7.81073 20.7847 7.60227 20.6982 7.38486 20.6981H3.05128L8.79357 15.8153C8.88427 15.7385 8.95715 15.6429 9.00714 15.5351C9.05714 15.4272 9.08305 15.3098 9.08307 15.191V6.57038H12.6168V10.7947C12.6167 10.9513 12.6615 11.1045 12.7458 11.2364C12.8301 11.3683 12.9504 11.4733 13.0925 11.539C13.2346 11.6046 13.3925 11.6283 13.5476 11.607C13.7026 11.5858 13.8484 11.5206 13.9676 11.4191L23.9999 2.89639L44.9473 20.6981H40.6143C40.3969 20.6982 40.1884 20.7847 40.0347 20.9385C39.8811 21.0923 39.7947 21.3008 39.7947 21.5182Z" fill="currentColor"/>
<path fill-rule="evenodd" clip-rule="evenodd" d="M34.234 44.3345V47.6026H33.4485V47.1317C33.4485 46.3645 33.4518 45.5973 33.4552 44.8302L33.4552 44.8287C33.4631 43.0256 33.471 41.2225 33.4354 39.4202C33.4616 37.7231 33.0158 36.0521 32.1477 34.5935C31.2796 33.135 30.0234 31.9464 28.5192 31.1601C27.1889 30.4327 25.7028 30.0367 24.1869 30.0058C22.671 29.9748 21.17 30.3098 19.811 30.9823C18.4521 31.6549 17.2754 32.6451 16.3806 33.8692C15.4858 35.0932 14.8993 36.5149 14.6709 38.0139C14.5983 38.5166 14.5606 39.0238 14.5581 39.5318C14.5493 41.3624 14.5502 43.1933 14.551 45.024C14.5513 45.6951 14.5517 46.3663 14.5515 47.0374V47.5985H13.7755V44.3716C13.6617 44.4056 13.5498 44.4455 13.44 44.4909C12.6265 44.8897 11.8129 45.289 11.0035 45.6961C10.7366 45.8304 10.4824 45.8692 10.3379 45.563C10.2036 45.2789 10.3874 45.1034 10.6364 44.9816C10.9172 44.8438 11.1967 44.7031 11.4762 44.5624C12.0796 44.2587 12.6828 43.955 13.2992 43.6809C13.3925 43.6576 13.4793 43.6135 13.5532 43.5519C13.6271 43.4904 13.6862 43.4129 13.726 43.3254C13.7658 43.2378 13.7854 43.1424 13.7832 43.0463C13.781 42.9501 13.7572 42.8557 13.7134 42.77H11.8552C11.8137 42.77 11.7698 42.7742 11.7257 42.7783C11.6242 42.7879 11.5222 42.7975 11.4493 42.7563C11.3008 42.6472 11.1672 42.5192 11.0518 42.3755C11.0939 42.3354 11.1354 42.2854 11.1769 42.2354C11.2671 42.1266 11.3572 42.0179 11.4541 42.0114C11.8966 41.9807 12.3414 41.9848 12.786 41.9889C12.9465 41.9904 13.1071 41.9918 13.2675 41.9917H13.7051C13.8366 41.3531 13.8364 41.353 13.2956 41.0867L13.2908 41.0844C12.9577 40.9204 12.6251 40.7554 12.2925 40.5903L12.2916 40.5898C11.7514 40.3217 11.2111 40.0536 10.6686 39.7903C10.4047 39.6625 10.2 39.496 10.3433 39.1898C10.4865 38.8836 10.7492 38.9349 11.0112 39.0656C11.6681 39.3935 12.3249 39.7167 12.9817 40.0399L13.3392 40.2159C13.4172 40.2549 13.4978 40.2901 13.5956 40.3328L13.5965 40.3331L13.599 40.3342C13.6499 40.3565 13.7055 40.3808 13.7677 40.4087V25.9467C13.7494 25.8106 13.7526 25.6724 13.7773 25.5372C13.837 25.3581 13.9206 25.1134 14.0602 25.0543C14.1548 25.0316 14.2533 25.0311 14.348 25.0529C14.4428 25.0746 14.5312 25.118 14.6064 25.1797C15.0474 25.5854 15.4698 26.0115 15.8921 26.4375C16.0213 26.5678 16.151 26.6986 16.2807 26.8283C16.531 27.0786 16.7818 27.3285 17.0326 27.5783C17.7847 28.3276 18.5372 29.0773 19.2766 29.8392C19.3618 29.9568 19.4877 30.0386 19.6298 30.0685C19.7719 30.0984 19.9201 30.0743 20.0455 30.0009C21.299 29.4629 22.649 29.1861 24.0131 29.1875C25.3772 29.189 26.7266 29.4686 27.979 30.0093C28.0992 30.0785 28.2407 30.1009 28.3764 30.072C28.5121 30.0431 28.6322 29.9651 28.7138 29.8529C29.926 28.6256 31.1469 27.407 32.3678 26.1885C32.6451 25.9117 32.9224 25.635 33.1996 25.3581C33.2912 25.2559 33.3933 25.1635 33.504 25.0824C33.5707 25.0333 33.6494 25.0032 33.7319 24.9954C33.8143 24.9876 33.8973 25.0024 33.972 25.0381C34.0467 25.0739 34.1102 25.1293 34.1559 25.1984C34.2015 25.2675 34.2275 25.3476 34.231 25.4304C34.2395 25.5537 34.241 25.6775 34.2358 25.8011V40.4194C34.3951 40.3423 34.5481 40.2685 34.6968 40.1968C34.9739 40.0633 35.2365 39.9367 35.4983 39.8082C36.0037 39.5599 36.5077 39.3093 37.0103 39.0567C37.2568 38.9325 37.5045 38.8877 37.6502 39.1731C37.8065 39.4787 37.6161 39.6506 37.3517 39.7813C37.0558 39.926 36.7615 40.0742 36.4672 40.2224C35.8787 40.5189 35.2902 40.8154 34.6889 41.0832C34.5974 41.1087 34.5128 41.1542 34.4411 41.2164C34.3694 41.2787 34.3125 41.3561 34.2744 41.443C34.2363 41.53 34.218 41.6243 34.2208 41.7192C34.2236 41.8141 34.2475 41.9071 34.2907 41.9917H36.3268C36.3575 41.9917 36.3908 41.9896 36.4245 41.9875C36.5256 41.9813 36.6308 41.9748 36.6849 42.0227C36.8043 42.1248 36.9565 42.3212 36.9237 42.4304C36.8895 42.5112 36.8363 42.5826 36.7687 42.6385C36.701 42.6944 36.6209 42.7332 36.5351 42.7515C36.1017 42.7788 35.666 42.7753 35.2304 42.7718C35.0745 42.7705 34.9186 42.7693 34.7629 42.7694H34.2943C34.2493 42.8527 34.2237 42.9451 34.2196 43.0397C34.2156 43.1343 34.233 43.2286 34.2708 43.3154C34.3085 43.4022 34.3655 43.4793 34.4374 43.5409C34.5093 43.6025 34.5943 43.6469 34.6859 43.6708C35.3061 43.9491 35.9142 44.2549 36.5224 44.5607L36.524 44.5615C36.7616 44.681 36.9993 44.8005 37.2377 44.9183L37.2784 44.9383C37.5441 45.0685 37.8356 45.2113 37.6466 45.5809C37.4673 45.9279 37.1872 45.7858 36.9262 45.6534L36.901 45.6406C36.337 45.3603 35.7714 45.0824 35.1812 44.7924L35.1546 44.7793C34.8557 44.6324 34.5505 44.4824 34.2358 44.3274L34.234 44.3345ZM18.7394 30.6301L14.5986 26.4833V35.2221C14.7093 35.0435 14.8194 34.867 14.9287 34.6919C15.2032 34.2521 15.4729 33.8199 15.7328 33.3824C15.8102 33.2411 15.8513 33.0827 15.8522 32.9216C15.8582 32.537 15.8584 32.1522 15.8586 31.7674C15.8589 31.355 15.8591 30.9423 15.8665 30.5298C15.889 30.3896 15.9312 30.2534 15.9918 30.1251C16.1396 30.1646 16.2797 30.2288 16.4061 30.3149C16.6874 30.5919 16.9568 30.8808 17.2193 31.1624C17.3188 31.2691 17.4174 31.3748 17.5152 31.4783L18.7394 30.6301ZM33.4157 26.432L29.2313 30.6104L30.4425 31.446C30.5465 31.3399 30.6498 31.2333 30.7531 31.1268C31.023 30.8484 31.2924 30.5706 31.5712 30.303C31.6872 30.2221 31.8148 30.1595 31.9497 30.1173C32.0175 30.2392 32.0652 30.3712 32.0911 30.5083C32.1002 31.0166 32.0996 31.5252 32.099 32.0339C32.0988 32.2952 32.0985 32.5565 32.0995 32.8177C32.0821 32.9395 32.0946 33.0636 32.1359 33.1795C32.4441 33.6903 32.762 34.1951 33.0869 34.7109C33.1955 34.8834 33.305 35.0572 33.4151 35.2328L33.4157 26.432Z" fill="currentColor"/>
<path d="M23.7986 43.548C23.6578 43.7317 23.5223 43.9085 23.3677 44.0671C23.0117 44.4331 22.5554 44.6856 22.0563 44.7931C21.5571 44.9006 21.0373 44.8582 20.5622 44.6712C20.299 44.5679 20.1169 44.4181 20.2101 44.1214C20.3085 43.8081 20.564 43.8051 20.8147 43.9131C22.0742 44.4563 23.2716 43.4601 23.5187 42.1224C23.5426 41.9935 23.4059 41.8138 23.3068 41.6878C23.2772 41.6502 23.2429 41.613 23.2084 41.5756C23.0675 41.4226 22.9235 41.2663 23.0794 41.0635C23.2423 40.918 23.4499 40.8321 23.668 40.8199C23.9398 40.7793 24.2162 40.7793 24.4881 40.8199C24.5704 40.8309 24.6493 40.8595 24.7194 40.9038C24.7896 40.9481 24.8493 41.0071 24.8946 41.0766C24.9164 41.158 24.9177 41.2436 24.8982 41.3256C24.8787 41.4076 24.8391 41.4835 24.783 41.5464C24.3329 41.8681 24.4648 42.234 24.623 42.6292C25.0635 43.7317 26.1529 44.3823 27.2238 43.9C27.2731 43.8667 27.3298 43.8457 27.389 43.8389C27.4482 43.8321 27.5082 43.8396 27.5639 43.8608C27.6196 43.8821 27.6693 43.9164 27.7089 43.961C27.7485 44.0055 27.7768 44.0589 27.7914 44.1167C27.8804 44.3913 27.7252 44.5453 27.478 44.6539C26.9863 44.8569 26.444 44.9038 25.9246 44.7883C25.4053 44.6727 24.934 44.4004 24.5747 44.008C24.436 43.8601 24.3144 43.6964 24.1884 43.5268C24.1289 43.4466 24.0684 43.3651 24.0046 43.2834L24.004 43.2846C23.9327 43.3731 23.8651 43.4613 23.7986 43.548Z" fill="currentColor"/>
<path d="M29.9697 38.8854C30.0172 38.7754 30.0425 38.6571 30.0442 38.5373C30.0503 38.4141 30.0309 38.2908 29.9871 38.1754C29.9434 38.06 29.8762 37.9549 29.7899 37.8667C29.7036 37.7784 29.5999 37.709 29.4855 37.6627C29.3711 37.6165 29.2483 37.5944 29.1249 37.5978C28.8832 37.5986 28.6516 37.6948 28.4804 37.8655C28.3093 38.0362 28.2125 38.2676 28.211 38.5093C28.2121 38.7509 28.3073 38.9826 28.4765 39.155C28.6458 39.3275 28.8756 39.4271 29.1172 39.4327C29.2369 39.4352 29.356 39.414 29.4676 39.3703C29.5791 39.3266 29.6809 39.2613 29.7671 39.178C29.8533 39.0948 29.9221 38.9953 29.9697 38.8854Z" fill="currentColor"/>
<path d="M17.955 38.5027C17.9534 38.3828 17.9759 38.2637 18.0212 38.1526C18.0664 38.0415 18.1336 37.9407 18.2186 37.8561C18.3036 37.7714 18.4048 37.7047 18.5161 37.66C18.6274 37.6152 18.7465 37.5932 18.8665 37.5954C18.9897 37.5945 19.1118 37.6184 19.2255 37.6658C19.3392 37.7131 19.4423 37.783 19.5284 37.8711C19.6145 37.9592 19.6819 38.0638 19.7266 38.1786C19.7714 38.2934 19.7925 38.416 19.7887 38.5391C19.7794 38.7811 19.6762 39.0099 19.501 39.177C19.3259 39.3442 19.0925 39.4365 18.8504 39.4345C18.6084 39.4299 18.3781 39.3295 18.2102 39.1552C18.0423 38.9809 17.9505 38.7471 17.955 38.5051V38.5027Z" fill="currentColor"/>
</svg>
