<svg width="48" height="48" viewBox="0 0 48 48" fill="none" xmlns="http://www.w3.org/2000/svg">
<path d="M24.8491 0C24.9256 0.0150719 25.003 0.0260269 25.0807 0.0328181C28.1554 0.149309 31.177 0.870912 33.9725 2.15634C37.1008 3.58588 39.8862 5.66971 42.1408 8.26726C44.3953 10.8648 46.0666 13.9157 47.0418 17.214C47.4323 18.5497 47.7081 19.9163 47.8661 21.2989C47.9823 22.421 48.023 23.5497 47.9877 24.6772C47.9234 28.0954 47.1054 31.4572 45.592 34.5227C44.4722 36.8226 42.9878 38.9263 41.1963 40.7523C41.1519 40.7986 41.1056 40.843 41.0573 40.8855C41.0573 40.8855 41.0303 40.8855 41.011 40.9009C40.0377 37.289 37.9431 34.0791 35.029 31.7336C32.1149 29.3881 28.5315 28.0279 24.795 27.849C26.1606 27.7421 27.4886 27.3498 28.6931 26.6973C29.8975 26.0449 30.9516 25.1469 31.7872 24.0614C32.6467 22.9946 33.2664 21.755 33.6038 20.4272C33.9413 19.0993 33.9887 17.7144 33.7428 16.3666C33.3538 13.9742 32.0961 11.8093 30.2104 10.2866C28.3246 8.76384 25.9435 7.99019 23.5228 8.11379C21.1022 8.23739 18.8122 9.24956 17.0914 10.9565C15.3706 12.6634 14.3399 14.9451 14.1967 17.3646C14.0982 18.6477 14.2598 19.9374 14.6718 21.1565C15.0838 22.3755 15.7377 23.4989 16.5944 24.4591C18.2855 26.4296 20.6888 27.6494 23.2777 27.8509C19.5331 28.0253 15.941 29.3861 13.0207 31.7366C10.1005 34.087 8.0034 37.3052 7.03272 40.926C6.96129 40.8546 6.9053 40.8044 6.85318 40.7504C4.40224 38.2461 2.53186 35.2336 1.3745 31.9262C0.834009 30.4059 0.458625 28.8319 0.254823 27.2313C0.166021 26.517 0.115828 25.7969 0.0444009 25.0788C0.0335174 25.0021 0.0186975 24.9261 0 24.851L0 23.1367C0.0250962 22.9533 0.0656361 22.7719 0.0752885 22.5885C0.299476 18.6583 1.49328 14.8447 3.55014 11.4882C5.61956 8.08644 8.50873 5.25766 11.9535 3.26057C15.3029 1.28954 19.0891 0.180476 22.9726 0.0328181C23.0421 0.0259908 23.1111 0.015032 23.1792 0L24.8491 0Z" fill="currentColor"/>
</svg>
