<svg width="48" height="48" viewBox="0 0 48 48" fill="none" xmlns="http://www.w3.org/2000/svg">
<path d="M23.9977 48.0012C28.7448 48.0014 33.3853 46.5939 37.3324 43.9567C41.2796 41.3195 44.3561 37.5711 46.1728 33.1854C47.9895 28.7997 48.4649 23.9738 47.5389 19.3179C46.6128 14.662 44.3269 10.3853 40.9702 7.02863C37.6135 3.67194 33.3368 1.38602 28.681 0.459971C24.0251 -0.466083 19.1991 0.00931798 14.8135 1.82605C10.4278 3.64278 6.67932 6.71925 4.04213 10.6664C1.40493 14.6135 -0.00254073 19.2541 -0.00231342 24.0012C-0.00170335 30.3662 2.52705 36.4703 7.02779 40.971C11.5285 45.4718 17.6327 48.0005 23.9977 48.0012ZM11.1598 23.8284C11.1857 23.7024 11.218 23.5777 11.2565 23.4548C11.3662 23.135 11.5712 22.8564 11.8439 22.6564C12.1167 22.4565 12.444 22.3447 12.7821 22.3363C12.8356 22.3363 12.8891 22.3363 12.945 22.3363L31.142 22.3363L31.0608 22.2499C28.7197 19.9088 26.377 17.5676 24.0328 15.2265C23.8405 15.043 23.6947 14.8163 23.6077 14.5651C23.5207 14.314 23.4948 14.0457 23.5324 13.7825C23.57 13.5194 23.6698 13.269 23.8236 13.0523C23.9775 12.8355 24.1808 12.6586 24.4168 12.5363C24.584 12.4462 24.7669 12.3891 24.9556 12.3682L24.9988 12.3526L25.3575 12.3526L25.5382 12.3906C25.8599 12.4634 26.1533 12.6287 26.3822 12.8661C29.6418 16.1257 32.9015 19.3862 36.1615 22.6477C36.3187 22.7928 36.4595 22.9547 36.5812 23.1307C36.7819 23.4483 36.8679 23.8251 36.8249 24.1983C36.7818 24.5716 36.6123 24.9189 36.3445 25.1825C33.0186 28.5084 29.6928 31.8334 26.3672 35.1575C26.0637 35.4673 25.6511 35.6462 25.2175 35.6563C24.7839 35.6663 24.3635 35.5066 24.0459 35.2113C23.7283 34.9159 23.5386 34.5082 23.5172 34.075C23.4959 33.6418 23.6445 33.2173 23.9315 32.8921C23.9925 32.8259 24.0535 32.7626 24.1169 32.6987L31.0505 25.7605C31.0787 25.7351 31.1081 25.7121 31.1524 25.6712C31.1245 25.6672 31.0965 25.6647 31.0683 25.6638C31.0446 25.6625 31.0207 25.6625 30.9969 25.6638L12.8627 25.6638C12.4769 25.6728 12.0999 25.5474 11.7965 25.3089C11.493 25.0705 11.282 24.7339 11.1995 24.3569C11.1845 24.2959 11.1713 24.2326 11.1586 24.1687L11.1598 23.8284Z" fill="currentColor"/>
</svg>
