<svg width="48" height="48" viewBox="0 0 48 48" fill="none" xmlns="http://www.w3.org/2000/svg">
<path d="M24.0023 -0.00115964C19.2552 -0.00138736 14.6147 1.40609 10.6676 4.04328C6.72041 6.68048 3.64394 10.4289 1.82721 14.8146C0.0104769 19.2003 -0.464923 24.0262 0.46113 28.6821C1.38718 33.338 3.67309 37.6147 7.02979 40.9714C10.3865 44.3281 14.6632 46.614 19.3191 47.54C23.9749 48.4661 28.8009 47.9907 33.1865 46.1739C37.5722 44.3572 41.3207 41.2807 43.9579 37.3336C46.5951 33.3865 48.0025 28.7459 48.0023 23.9988C48.0017 17.6338 45.4729 11.5297 40.9722 7.02895C36.4715 2.52821 30.3673 -0.000549015 24.0023 -0.00115964ZM36.8402 24.1715C36.8143 24.2976 36.782 24.4223 36.7435 24.5452C36.6338 24.865 36.4288 25.1436 36.1561 25.3436C35.8834 25.5435 35.556 25.6553 35.2179 25.6637C35.1644 25.6637 35.1109 25.6637 35.055 25.6637H16.858L16.9392 25.7501C19.2803 28.0912 21.623 30.4324 23.9672 32.7735C24.1595 32.957 24.3053 33.1837 24.3923 33.4349C24.4793 33.686 24.5052 33.9543 24.4676 34.2175C24.43 34.4806 24.3302 34.731 24.1764 34.9477C24.0225 35.1645 23.8192 35.3414 23.5832 35.4637C23.416 35.5538 23.2331 35.6108 23.0444 35.6318L23.0012 35.6474H22.6425L22.4618 35.6094C22.1401 35.5366 21.8467 35.3713 21.6178 35.1339C18.3582 31.8743 15.0985 28.6138 11.8385 25.3523C11.6813 25.2072 11.5405 25.0453 11.4189 24.8693C11.2181 24.5517 11.1321 24.1749 11.1751 23.8017C11.2182 23.4284 11.3877 23.0811 11.6555 22.8175C14.9814 19.4916 18.3072 16.1666 21.6328 12.8425C21.9363 12.5327 22.3489 12.3538 22.7825 12.3437C23.2161 12.3337 23.6365 12.4934 23.9541 12.7887C24.2717 13.0841 24.4614 13.4918 24.4828 13.925C24.5041 14.3582 24.3555 14.7827 24.0685 15.1079C24.0075 15.1741 23.9465 15.2374 23.8831 15.3013L16.9495 22.2395C16.9213 22.2649 16.892 22.2879 16.8476 22.3288C16.8755 22.3328 16.9035 22.3353 16.9317 22.3362C16.9555 22.3375 16.9793 22.3375 17.0031 22.3362H35.1373C35.5231 22.3272 35.9001 22.4526 36.2035 22.6911C36.507 22.9295 36.718 23.2661 36.8005 23.6431C36.8155 23.7041 36.8287 23.7674 36.8414 23.8313L36.8402 24.1715Z" fill="currentColor"/>
</svg>
