<svg width="48" height="48" viewBox="0 0 48 48" fill="none" xmlns="http://www.w3.org/2000/svg">
<path d="M0 2.82809C0.606863 1.91335 0.981429 1.80665 2.03288 2.26124C3.55004 2.91701 5.06053 3.59501 6.58991 4.22855C7.03044 4.39278 7.41815 4.67345 7.71175 5.04064C8.00535 5.40784 8.19384 5.8478 8.25712 6.31367C8.42606 7.2662 8.65058 8.20317 8.82619 9.15903C8.89066 9.50915 9.02959 9.63141 9.40527 9.62919C12.0928 9.6114 14.7803 9.61918 17.4679 9.61918C26.7027 9.61918 35.9376 9.61918 45.1724 9.61918C45.5457 9.60583 45.9192 9.63981 46.2839 9.72033C46.8573 9.87296 47.3502 10.2402 47.6605 10.746C47.9708 11.2518 48.0749 11.8575 47.9511 12.4379C46.8707 17.727 45.7841 23.0154 44.6912 28.303C44.6022 28.924 44.2726 29.4852 43.7736 29.8653C43.2745 30.2454 42.6459 30.4141 42.0236 30.3348C33.1948 30.3348 24.366 30.3348 15.5373 30.3348C14.9282 30.3348 14.3146 30.3348 13.7089 30.3348C13.5577 30.3348 13.4066 30.3481 13.2087 30.357L13.8945 33.6914H14.5025C23.5499 33.6914 32.5972 33.6914 41.6446 33.6914C41.894 33.6848 42.1435 33.7031 42.3893 33.7459C42.6556 33.8016 42.8938 33.9493 43.0621 34.1631C43.2304 34.3769 43.3181 34.6431 43.3097 34.9151C43.3014 35.187 43.1975 35.4473 43.0164 35.6504C42.8353 35.8534 42.5885 35.9862 42.3193 36.0255C42.1182 36.0534 41.9153 36.0656 41.7124 36.0622C32.5709 36.0622 23.4298 36.0622 14.2891 36.0622C13.9573 36.1091 13.6195 36.0871 13.2966 35.9975C12.9738 35.9079 12.6729 35.7527 12.4127 35.5416C12.1526 35.3305 11.9387 35.068 11.7846 34.7705C11.6305 34.473 11.5394 34.1469 11.5171 33.8126C9.67202 24.8623 7.82957 15.909 5.98972 6.95276C5.96844 6.80189 5.90499 6.66009 5.80667 6.54368C5.70835 6.42728 5.57917 6.341 5.43398 6.29477C3.97018 5.68124 2.51859 5.02881 1.05256 4.41305C0.593228 4.25429 0.21502 3.92082 0 3.48497V2.82809ZM9.46084 12.0144C9.46633 12.1342 9.47783 12.2537 9.4953 12.3723C10.5327 17.4154 11.57 22.4589 12.6074 27.5028C12.6874 27.8962 12.8364 27.9874 13.2165 27.9874C22.764 27.9762 32.3112 27.9733 41.858 27.9785C42.0236 27.9785 42.1915 27.964 42.3537 27.9562L45.6381 12.0144H9.46084Z" fill="currentColor"/>
<path d="M20.1421 37.9805C20.9774 37.9805 21.794 38.2283 22.4886 38.6924C23.1832 39.1565 23.7245 39.8161 24.0442 40.5879C24.3638 41.3596 24.4475 42.2088 24.2845 43.0281C24.1216 43.8474 23.7193 44.6 23.1286 45.1907C22.5379 45.7814 21.7854 46.1836 20.9661 46.3466C20.1468 46.5096 19.2975 46.4259 18.5258 46.1062C17.754 45.7866 17.0944 45.2452 16.6303 44.5507C16.1662 43.8561 15.9185 43.0395 15.9185 42.2042C15.9185 41.084 16.3635 40.0097 17.1556 39.2176C17.9476 38.4255 19.0219 37.9805 20.1421 37.9805ZM18.2737 42.183C18.2719 42.552 18.38 42.9131 18.5841 43.2204C18.7882 43.5278 19.0791 43.7675 19.4198 43.909C19.7606 44.0506 20.1357 44.0876 20.4975 44.0153C20.8593 43.943 21.1914 43.7647 21.4516 43.5031C21.7118 43.2415 21.8883 42.9085 21.9586 42.5463C22.0289 42.1841 21.9899 41.8091 21.8465 41.4692C21.7031 41.1292 21.4619 40.8396 21.1534 40.6372C20.8449 40.4348 20.4832 40.3287 20.1143 40.3324C19.6264 40.3388 19.1604 40.5361 18.8163 40.8821C18.4722 41.2281 18.2774 41.6951 18.2737 42.183Z" fill="currentColor"/>
<path d="M30.7255 42.1719C30.7312 41.0532 31.1812 39.9826 31.9763 39.1957C32.7714 38.4087 33.8465 37.9698 34.9652 37.9755C36.0839 37.9813 37.1545 38.4312 37.9415 39.2263C38.7284 40.0214 39.1673 41.0966 39.1616 42.2153C39.1587 42.7692 39.0468 43.3171 38.8322 43.8278C38.6176 44.3384 38.3045 44.8018 37.9108 45.1915C37.1157 45.9785 36.0406 46.4174 34.9219 46.4116C33.8032 46.4059 32.7326 45.956 31.9456 45.1609C31.1586 44.3658 30.7197 43.2906 30.7255 42.1719ZM34.9491 40.3324C34.4545 40.3274 33.9781 40.5191 33.6248 40.8653C33.2715 41.2115 33.0702 41.6839 33.0651 42.1786C33.0601 42.6732 33.2518 43.1496 33.5981 43.5029C33.9443 43.8562 34.4167 44.0575 34.9113 44.0625C35.406 44.0675 35.8823 43.8758 36.2356 43.5296C36.5889 43.1834 36.7902 42.711 36.7952 42.2164C36.8002 41.7217 36.6086 41.2453 36.2624 40.892C35.9161 40.5387 35.4437 40.3374 34.9491 40.3324Z" fill="currentColor"/>
<path d="M27.5011 18.103C24.798 18.103 22.0935 18.103 19.3874 18.103C19.1697 18.1098 18.9521 18.0869 18.7405 18.0352C18.4821 17.9636 18.2571 17.8032 18.1051 17.5823C17.9531 17.3614 17.8837 17.094 17.9091 16.827C17.9331 16.5524 18.0533 16.2951 18.2485 16.1004C18.4437 15.9058 18.7014 15.7864 18.9761 15.7634C19.0873 15.7534 19.1985 15.7534 19.304 15.7534C24.7873 15.7534 30.2705 15.7534 35.7538 15.7534C36.5496 15.7534 37.0387 16.1146 37.1231 16.7437C37.1518 16.9183 37.1405 17.0972 37.0901 17.2668C37.0398 17.4365 36.9517 17.5925 36.8325 17.7233C36.7133 17.8541 36.566 17.9562 36.4017 18.0219C36.2374 18.0877 36.0604 18.1154 35.8839 18.103C34.5712 18.1141 33.2586 18.103 31.947 18.103H27.4945" fill="currentColor"/>
<path d="M27.5478 24.2172C25.0811 24.2172 22.614 24.2172 20.1465 24.2172C19.84 24.2508 19.5325 24.1634 19.2894 23.9736C19.0463 23.7839 18.8869 23.5068 18.845 23.2013C18.8219 23.0383 18.8336 22.8722 18.8793 22.714C18.9251 22.5558 19.0039 22.4091 19.1105 22.2836C19.2171 22.1581 19.3491 22.0566 19.4978 21.9858C19.6465 21.9151 19.8085 21.8767 19.9732 21.8731C20.4722 21.8498 20.9735 21.8665 21.4714 21.8665C25.9373 21.8665 30.4028 21.8665 34.868 21.8665C35.035 21.8433 35.205 21.8559 35.3668 21.9033C35.5286 21.9508 35.6785 22.032 35.8066 22.1417C35.9346 22.2514 36.038 22.387 36.1097 22.5396C36.1815 22.6921 36.2201 22.8582 36.2229 23.0268C36.2278 23.1917 36.1975 23.3557 36.134 23.508C36.0704 23.6602 35.9752 23.7971 35.8545 23.9096C35.7338 24.0221 35.5905 24.1075 35.4342 24.1602C35.2779 24.2128 35.1121 24.2315 34.948 24.215C32.9963 24.2228 31.0445 24.215 29.0928 24.215H27.5467" fill="currentColor"/>
</svg>
