<svg width="48" height="48" viewBox="0 0 48 48" fill="none" xmlns="http://www.w3.org/2000/svg">
<path d="M5.28328 46.6897C4.88494 46.6897 4.49487 46.6714 4.11308 46.635C3.83732 46.6072 3.57588 46.4987 3.36133 46.3233C3.14677 46.1478 2.98861 45.9131 2.90654 45.6484C2.82448 45.3837 2.82214 45.1006 2.89983 44.8346C2.97752 44.5685 3.13179 44.3312 3.34342 44.1523C5.23998 42.4794 6.62124 40.3013 7.32577 37.8725C5.22366 36.1286 3.48094 33.9924 2.19473 31.5829C0.803079 28.9896 0.0520012 26.101 0.00420374 23.1583C-0.0435937 20.2156 0.613276 17.3041 1.91997 14.667C3.1816 12.1289 4.94585 9.8736 7.10563 8.03807C11.8339 4.06997 17.8277 1.92777 24 2C30.1723 1.92777 36.1661 4.06997 40.8943 8.03807C43.0548 9.87331 44.8197 12.1286 46.0816 14.667C47.3446 17.2136 48.0017 20.0176 48.0017 22.8601C48.0017 25.7027 47.3446 28.5067 46.0816 31.0532C44.8198 33.5917 43.055 35.8471 40.8943 37.6822C36.1658 41.6497 30.172 43.7913 24 43.7186C22.8038 43.7194 21.611 43.5935 20.4414 43.3429C20.2611 43.2994 20.0911 43.2209 19.9411 43.1117C19.7912 43.0025 19.6642 42.8649 19.5675 42.7067C19.4707 42.5485 19.4061 42.3727 19.3772 42.1895C19.3484 42.0063 19.3559 41.8192 19.3994 41.6389C19.4429 41.4586 19.5215 41.2886 19.6306 41.1387C19.7398 40.9887 19.8774 40.8618 20.0356 40.765C20.1939 40.6683 20.3696 40.6036 20.5528 40.5748C20.736 40.546 20.9231 40.5535 21.1034 40.597C22.0562 40.7951 23.0268 40.8955 24 40.8965C35.6756 40.8965 45.1762 32.8044 45.1762 22.8552C45.1762 12.9059 35.6756 4.81379 24 4.81379C12.3244 4.81379 2.82535 12.9142 2.82535 22.8552C2.82615 25.439 3.46642 27.9825 4.68908 30.2588C5.94361 32.5875 7.68384 34.6196 9.79197 36.2174C10.006 36.3826 10.168 36.6059 10.2587 36.8606C10.3493 37.1153 10.3649 37.3908 10.3034 37.6541C9.80329 39.795 8.89268 41.8185 7.62204 43.6127C8.20949 43.4956 8.78931 43.343 9.35832 43.1559C11.4625 42.4475 13.4192 41.3598 15.1316 39.9465C15.2748 39.8241 15.4411 39.7316 15.6206 39.6745C15.8001 39.6174 15.9892 39.5967 16.1769 39.6138C16.3645 39.6309 16.5468 39.6854 16.713 39.774C16.8792 39.8627 17.0261 39.9837 17.1448 40.1299C17.2636 40.2762 17.3518 40.4447 17.4044 40.6256C17.457 40.8065 17.4729 40.9961 17.4511 41.1832C17.4293 41.3704 17.3703 41.5512 17.2775 41.7152C17.1847 41.8792 17.0601 42.0229 16.9109 42.1379C14.9333 43.7768 12.6719 45.0391 10.2389 45.8621C8.64059 46.396 6.96831 46.6752 5.28328 46.6897Z" fill="currentColor"/>
</svg>
