<svg width="48" height="48" viewBox="0 0 48 48" fill="none" xmlns="http://www.w3.org/2000/svg">
<path d="M34.1695 48.0013C33.2002 47.7432 32.332 47.1969 31.6797 46.4348C25.0705 39.81 18.457 33.1922 11.8391 26.5812C11.3216 26.144 10.9506 25.5587 10.776 24.9042C10.6014 24.2496 10.6316 23.5573 10.8627 22.9204C11.0619 22.3954 11.3715 21.9191 11.7704 21.5238C18.5534 14.7097 25.3515 7.90251 32.1647 1.10224C32.6092 0.598879 33.1985 0.245306 33.8518 0.0899912C34.505 -0.0653235 35.1904 -0.0147758 35.8138 0.2347C36.4187 0.439511 36.9484 0.820665 37.3348 1.3291C37.7213 1.83753 37.9467 2.44997 37.982 3.0876C38.0277 3.61153 37.9502 4.13887 37.7556 4.62748C37.5611 5.1161 37.2549 5.55242 36.8616 5.90159C35.3116 7.44388 33.7649 8.98964 32.2218 10.5388C27.869 14.8917 23.5161 19.2436 19.1633 23.5947C18.9767 23.7478 18.8106 23.9243 18.6692 24.1199C18.8439 24.1928 19.0083 24.2882 19.1581 24.4039C25.0498 30.2895 30.9414 36.1769 36.8331 42.066C37.3335 42.4976 37.6951 43.0675 37.8725 43.7041C38.0499 44.3407 38.0353 45.0155 37.8303 45.6438C37.6809 46.164 37.4014 46.6377 37.0182 47.02C36.635 47.4023 36.1607 47.6806 35.6401 47.8288C35.4624 47.8872 35.2848 47.9455 35.1071 48.0013L34.1695 48.0013Z" fill="currentColor"/>
</svg>
