<svg width="48" height="48" viewBox="0 0 48 48" fill="none" xmlns="http://www.w3.org/2000/svg">
<path d="M13.8305 -0.00128174C14.7998 0.256814 15.668 0.803058 16.3203 1.56522C22.9295 8.18999 29.543 14.8078 36.1609 21.4188C36.6784 21.856 37.0494 22.4413 37.224 23.0958C37.3986 23.7504 37.3684 24.4427 37.1373 25.0796C36.9381 25.6046 36.6285 26.0809 36.2296 26.4762C29.4466 33.2903 22.6485 40.0975 15.8353 46.8978C15.3908 47.4011 14.8015 47.7547 14.1482 47.91C13.4949 48.0653 12.8096 48.0148 12.1862 47.7653C11.5813 47.5605 11.0516 47.1793 10.6651 46.6709C10.2787 46.1625 10.0533 45.55 10.018 44.9124C9.9723 44.3885 10.0498 43.8611 10.2444 43.3725C10.4389 42.8839 10.7451 42.4476 11.1384 42.0984C12.6884 40.5561 14.2351 39.0104 15.7782 37.4612C20.131 33.1083 24.4839 28.7564 28.8367 24.4053C29.0233 24.2522 29.1894 24.0757 29.3308 23.8801C29.1561 23.8072 28.9917 23.7118 28.8419 23.5961C22.9502 17.7105 17.0586 11.8231 11.1669 5.93404C10.6665 5.50238 10.3049 4.93245 10.1275 4.29588C9.95005 3.65931 9.96473 2.9845 10.1697 2.35625C10.3191 1.83597 10.5986 1.36234 10.9818 0.980035C11.365 0.59773 11.8393 0.31936 12.3599 0.171189C12.5376 0.112834 12.7152 0.0544794 12.8929 -0.00128174H13.8305Z" fill="currentColor"/>
</svg>
