<svg xmlns="http://www.w3.org/2000/svg" width="32.368" height="32.369" viewBox="0 0 32.368 32.369">
  <path d="M20.366,32.369a.845.845,0,0,1-.6-.246L6.62,18.973l2.989-2.988a.846.846,0,0,0-1.2-1.194L5.423,17.779.245,12.6a.854.854,0,0,1,0-1.2L3.431,8.217a.847.847,0,0,1,1.2,0A2.535,2.535,0,1,0,8.213,4.631a.848.848,0,0,1,0-1.2L11.4.248a.847.847,0,0,1,1.2,0l5.178,5.179L14.788,8.415a.85.85,0,0,0,0,1.2.847.847,0,0,0,1.2,0l2.987-2.988L32.119,19.771a.842.842,0,0,1,0,1.194l-3.186,3.189a.847.847,0,0,1-1.2,0,2.535,2.535,0,0,0-3.585,3.585.842.842,0,0,1,0,1.194l-3.187,3.189A.843.843,0,0,1,20.366,32.369ZM13,10.558a.848.848,0,0,0-.6.248L10.8,12.4A.846.846,0,0,0,12,13.6L13.593,12a.845.845,0,0,0,0-1.194A.843.843,0,0,0,13,10.558Z" transform="translate(0 0)" fill="currentColor"/>
</svg>
