<svg width="24" height="24" viewBox="0 0 24 24" fill="none" xmlns="http://www.w3.org/2000/svg">
<path d="M12 21L10.55 19.7C8.86667 18.1834 7.475 16.875 6.375 15.775C5.275 14.675 4.4 13.6874 3.75 12.812C3.1 11.9374 2.646 11.1334 2.388 10.4C2.13 9.66669 2.00067 8.91669 2 8.15002C2 6.58336 2.525 5.27502 3.575 4.22502C4.625 3.17502 5.93333 2.65002 7.5 2.65002C8.36667 2.65002 9.19167 2.83336 9.975 3.20002C10.7583 3.56669 11.4333 4.08336 12 4.75002C12.5667 4.08336 13.2417 3.56669 14.025 3.20002C14.8083 2.83336 15.6333 2.65002 16.5 2.65002C18.0667 2.65002 19.375 3.17502 20.425 4.22502C21.475 5.27502 22 6.58336 22 8.15002C22 8.91669 21.871 9.66669 21.613 10.4C21.355 11.1334 20.9007 11.9374 20.25 12.812C19.6 13.6874 18.725 14.675 17.625 15.775C16.525 16.875 15.1333 18.1834 13.45 19.7L12 21ZM12 18.3C13.6 16.8667 14.9167 15.6377 15.95 14.613C16.9833 13.5884 17.8 12.6967 18.4 11.938C19 11.1794 19.4167 10.504 19.65 9.91202C19.8833 9.32002 20 8.73269 20 8.15002C20 7.15002 19.6667 6.31669 19 5.65002C18.3333 4.98336 17.5 4.65002 16.5 4.65002C15.7167 4.65002 14.9917 4.87069 14.325 5.31202C13.6583 5.75336 13.2 6.31602 12.95 7.00002H11.05C10.8 6.31669 10.3417 5.75436 9.675 5.31302C9.00833 4.87169 8.28333 4.65069 7.5 4.65002C6.5 4.65002 5.66667 4.98336 5 5.65002C4.33333 6.31669 4 7.15002 4 8.15002C4 8.73336 4.11667 9.32102 4.35 9.91302C4.58333 10.505 5 11.18 5.6 11.938C6.2 12.696 7.01667 13.5877 8.05 14.613C9.08333 15.6384 10.4 16.8674 12 18.3Z" fill="currentColor"/>
</svg>
