<svg width="48" height="48" viewBox="0 0 48 48" fill="none" xmlns="http://www.w3.org/2000/svg">
<path d="M24.4706 28.3399C22.4196 28.35 20.4482 27.5463 18.9889 26.105C17.5296 24.6637 16.7015 22.7024 16.6862 20.6514C16.7011 18.6003 17.5291 16.6388 18.9885 15.1974C20.4479 13.756 22.4195 12.9524 24.4706 12.9629C26.5218 12.9524 28.4934 13.756 29.9528 15.1974C31.4122 16.6388 32.2402 18.6003 32.2551 20.6514C32.2398 22.7024 31.4117 24.6637 29.9524 26.105C28.4931 27.5463 26.5217 28.35 24.4706 28.3399ZM24.4706 15.809C23.5155 15.8207 22.5852 16.1147 21.7967 16.6538C21.0082 17.1929 20.3968 17.9532 20.0394 18.839C19.6819 19.7248 19.5945 20.6965 19.788 21.6319C19.9814 22.5673 20.4472 23.4246 21.1268 24.0959C21.8063 24.7672 22.6692 25.2225 23.6068 25.4046C24.5445 25.5867 25.5151 25.4874 26.3964 25.1192C27.2778 24.751 28.0306 24.1304 28.5601 23.3354C29.0896 22.5404 29.3722 21.6066 29.3723 20.6514C29.3626 19.36 28.8411 18.1251 27.9222 17.2176C27.0033 16.3101 25.7621 15.8027 24.4706 15.809Z" fill="currentColor"/>
<path d="M24.4706 48C24.0882 47.9992 23.7217 47.8469 23.4513 47.5765C22.3219 46.4555 21.0316 45.264 19.6706 44.0033C18.0612 42.5111 16.3953 40.9666 14.745 39.3261C14.6114 39.1947 14.5053 39.0381 14.4328 38.8652C14.3604 38.6924 14.3231 38.5069 14.3231 38.3195C14.3231 38.1322 14.3604 37.9466 14.4328 37.7738C14.5053 37.601 14.6114 37.4443 14.745 37.3129C15.0169 37.0457 15.383 36.8959 15.7643 36.8959C16.1456 36.8959 16.5116 37.0457 16.7836 37.3129C18.4 38.9195 20.0447 40.4457 21.6372 41.9209C22.6254 42.8372 23.5756 43.7181 24.4607 44.568C25.3078 43.7562 26.2254 42.9092 27.1756 42.0268C30.7863 38.8496 34.1381 35.3897 37.1991 31.68C40.4589 27.48 42.0443 23.7261 42.0443 20.2038C42.0478 17.9165 41.5939 15.6515 40.7092 13.5422C39.8245 11.4329 38.5269 9.52185 36.8927 7.92142C33.5744 4.66064 29.1081 2.83352 24.4558 2.83352C19.8035 2.83352 15.3372 4.66064 12.0189 7.92142C10.3846 9.5218 9.08699 11.4329 8.20229 13.5422C7.3176 15.6515 6.8637 17.9164 6.86732 20.2038C6.86732 23.952 8.64473 27.9558 12.304 32.4409C12.4227 32.5861 12.5112 32.7534 12.5645 32.9331C12.6177 33.1129 12.6347 33.3014 12.6143 33.4878C12.594 33.6741 12.5367 33.8545 12.4458 34.0185C12.355 34.1825 12.2324 34.3267 12.0852 34.4428C11.7892 34.6777 11.4133 34.7882 11.0373 34.7508C10.6612 34.7134 10.3145 34.531 10.0706 34.2424C5.98638 29.2235 4.00003 24.6438 4.00003 20.2193C3.9954 17.5136 4.54305 14.8354 5.60944 12.3487C6.64062 9.9443 8.13051 7.76389 9.99579 5.92942C12.8976 3.08131 16.5742 1.15141 20.5665 0.380834C24.5587 -0.389747 28.6896 0.0331591 32.4429 1.59672C34.8707 2.60827 37.0801 4.07948 38.9497 5.92942C40.8133 7.76439 42.3017 9.94474 43.3318 12.3487C44.3982 14.8354 44.9458 17.5136 44.9412 20.2193C44.9412 24.3911 43.1624 28.7125 39.5017 33.4278C36.3458 37.2625 32.8866 40.8374 29.1577 44.1177C27.8306 45.3459 26.5784 46.5078 25.4871 47.5821C25.2173 47.8526 24.8512 48.0049 24.4692 48.0057L24.4706 48Z" fill="currentColor"/>
</svg>
