<svg width="48" height="48" viewBox="0 0 48 48" fill="none" xmlns="http://www.w3.org/2000/svg">
<path d="M44.793 48C39.735 48 34.55 46.734 29.238 44.202C23.926 41.67 18.991 38.115 14.433 33.537C9.877 28.961 6.332 24.026 3.798 18.732C1.264 13.438 -0.00199763 8.26401 2.36593e-06 3.21001C2.36593e-06 2.29401 0.300003 1.53101 0.900003 0.921013C1.5 0.311013 2.25 0.00401282 3.15 1.28205e-05H10.569C11.385 1.28205e-05 12.097 0.257013 12.705 0.771013C13.313 1.28501 13.724 1.94401 13.938 2.74801L15.426 9.90001C15.566 10.74 15.541 11.473 15.351 12.099C15.161 12.725 14.828 13.238 14.352 13.638L7.77 19.776C9.002 22.01 10.363 24.086 11.853 26.004C13.343 27.922 14.933 29.739 16.623 31.455C18.363 33.195 20.237 34.815 22.245 36.315C24.253 37.813 26.457 39.227 28.857 40.557L35.274 34.026C35.762 33.5 36.311 33.153 36.921 32.985C37.529 32.819 38.203 32.786 38.943 32.886L45.252 34.176C46.068 34.376 46.73 34.787 47.238 35.409C47.746 36.031 48 36.743 48 37.545V44.85C48 45.75 47.694 46.5 47.082 47.1C46.47 47.7 45.707 48 44.793 48ZM6.36 16.962L12.12 11.667C12.31 11.513 12.434 11.301 12.492 11.031C12.552 10.761 12.542 10.511 12.462 10.281L11.133 3.92101C11.055 3.61501 10.92 3.38501 10.728 3.23101C10.536 3.07701 10.287 3.00001 9.981 3.00001H3.825C3.595 3.00001 3.403 3.07701 3.249 3.23101C3.095 3.38501 3.018 3.57701 3.018 3.80701C3.076 5.85701 3.397 7.99701 3.981 10.227C4.565 12.457 5.356 14.702 6.36 16.962ZM31.713 41.964C33.741 42.968 35.901 43.711 38.193 44.193C40.489 44.673 42.489 44.93 44.193 44.964C44.423 44.964 44.615 44.887 44.769 44.733C44.923 44.579 45 44.388 45 44.16V38.136C45 37.83 44.923 37.58 44.769 37.386C44.615 37.194 44.385 37.06 44.079 36.984L38.529 35.847C38.297 35.769 38.094 35.759 37.92 35.817C37.748 35.877 37.566 36.002 37.374 36.192L31.713 41.964Z" fill="currentColor"/>
</svg>
