<svg width="48" height="48" viewBox="0 0 48 48" fill="none" xmlns="http://www.w3.org/2000/svg">
<path fill-rule="evenodd" clip-rule="evenodd" d="M48 24C48 37.2548 37.2548 48 24 48C10.7452 48 0 37.2548 0 24C0 10.7452 10.7452 0 24 0C37.2548 0 48 10.7452 48 24ZM23.0771 14.7692C23.0771 14.5244 23.1744 14.2896 23.3475 14.1165C23.5206 13.9434 23.7554 13.8461 24.0002 13.8461C24.245 13.8461 24.4798 13.9434 24.6529 14.1165C24.826 14.2896 24.9233 14.5244 24.9233 14.7692V23.0769H33.2308C33.4756 23.0769 33.7104 23.1742 33.8835 23.3473C34.0566 23.5204 34.1539 23.7552 34.1539 24C34.1539 24.2448 34.0566 24.4796 33.8835 24.6527C33.7104 24.8258 33.4756 24.9231 33.2308 24.9231H24.9233V33.2307C24.9233 33.4756 24.826 33.7104 24.6529 33.8835C24.4798 34.0566 24.245 34.1538 24.0002 34.1538C23.7554 34.1538 23.5206 34.0566 23.3475 33.8835C23.1744 33.7104 23.0771 33.4756 23.0771 33.2307V24.9231H14.7693C14.5245 24.9231 14.2897 24.8258 14.1166 24.6527C13.9434 24.4796 13.8462 24.2448 13.8462 24C13.8462 23.7552 13.9434 23.5204 14.1166 23.3473C14.2897 23.1742 14.5245 23.0769 14.7693 23.0769H23.0771V14.7692Z" fill="currentColor"/>
</svg>
