<svg width="24" height="24" viewBox="0 0 24 24" fill="none" xmlns="http://www.w3.org/2000/svg">
<path d="M22 12.08C21.9884 14.5353 21.0738 16.9004 19.4307 18.7248C17.7876 20.5493 15.5307 21.7054 13.09 21.973V14.8H15.44C15.5434 14.8006 15.6434 14.7633 15.7212 14.6951C15.799 14.6269 15.849 14.5326 15.862 14.43L16.116 12.228C16.1252 12.1702 16.1216 12.1111 16.1056 12.0548C16.0895 11.9985 16.0614 11.9464 16.0231 11.9021C15.9848 11.8578 15.9373 11.8224 15.8839 11.7984C15.8305 11.7744 15.7725 11.7623 15.714 11.763H13.09V9.96302C13.09 9.12702 13.323 8.55602 14.518 8.55602H15.63C15.7404 8.55314 15.8454 8.50718 15.9224 8.42794C15.9994 8.34871 16.0423 8.2425 16.042 8.13202V6.23802C16.0394 6.12757 15.9937 6.02253 15.9146 5.94535C15.8356 5.86818 15.7295 5.82499 15.619 5.82502H13.82C13.3147 5.78889 12.8075 5.86346 12.334 6.04353C11.8605 6.22361 11.4319 6.50484 11.0783 6.86762C10.7247 7.23039 10.4545 7.66596 10.2865 8.14394C10.1186 8.62191 10.057 9.13078 10.106 9.63502V11.751H8.339C8.28383 11.751 8.22921 11.762 8.17837 11.7835C8.12753 11.8049 8.0815 11.8363 8.04301 11.8758C8.00451 11.9154 7.97432 11.9622 7.95422 12.0136C7.93413 12.065 7.92453 12.1199 7.926 12.175V14.375C7.926 14.4846 7.96951 14.5896 8.04696 14.6671C8.12442 14.7445 8.22947 14.788 8.339 14.788H10.106V21.825C7.83697 21.3874 5.78953 20.1775 4.31176 18.4009C2.83399 16.6243 2.01711 14.3908 2 12.08C2 9.42785 3.05357 6.88431 4.92893 5.00895C6.8043 3.13359 9.34784 2.08002 12 2.08002C14.6522 2.08002 17.1957 3.13359 19.0711 5.00895C20.9464 6.88431 22 9.42785 22 12.08Z" fill="currentColor"/>
</svg>
