<svg width="24" height="24" viewBox="0 0 24 24" fill="none" xmlns="http://www.w3.org/2000/svg">
<path d="M13.9317 12.2916C13.9244 12.6717 13.8045 13.0412 13.587 13.3531C13.3696 13.665 13.0644 13.9053 12.7103 14.0435C12.3561 14.1818 11.9688 14.2118 11.5976 14.1297C11.2264 14.0477 10.8878 13.8572 10.625 13.5825C10.3621 13.3079 10.1867 12.9613 10.121 12.5868C10.0552 12.2123 10.1022 11.8268 10.2559 11.479C10.4095 11.1312 10.663 10.8369 10.9841 10.6334C11.3053 10.4298 11.6796 10.3262 12.0597 10.3356C12.5648 10.3543 13.0427 10.569 13.3922 10.9342C13.7416 11.2993 13.9351 11.7862 13.9317 12.2916Z" fill="currentColor"/>
<path d="M15.316 6.27967H8.80603C8.16188 6.27967 7.54412 6.53556 7.08863 6.99104C6.63315 7.44652 6.37726 8.06429 6.37726 8.70844V15.3648C6.37726 15.6837 6.44009 15.9995 6.56214 16.2942C6.6842 16.5889 6.8631 16.8566 7.08863 17.0822C7.31417 17.3077 7.58191 17.4866 7.87658 17.6086C8.17126 17.7307 8.48708 17.7935 8.80603 17.7935H15.316C15.6349 17.7935 15.9507 17.7307 16.2454 17.6086C16.5401 17.4866 16.8078 17.3077 17.0333 17.0822C17.2589 16.8566 17.4378 16.5889 17.5598 16.2942C17.6819 15.9995 17.7447 15.6837 17.7447 15.3648V8.72044C17.746 8.40057 17.6841 8.08359 17.5627 7.78768C17.4412 7.49176 17.2625 7.22273 17.0369 6.99598C16.8113 6.76924 16.5431 6.58926 16.2478 6.46634C15.9525 6.34342 15.6358 6.27998 15.316 6.27967ZM12.0604 15.5472C11.416 15.5617 10.7818 15.3839 10.2389 15.0365C9.69592 14.689 9.26882 14.1877 9.01206 13.5964C8.7553 13.0052 8.68053 12.3508 8.79729 11.7169C8.91406 11.0829 9.21706 10.4982 9.66763 10.0372C10.1182 9.57623 10.6959 9.25996 11.327 9.12876C11.9581 8.99756 12.614 9.05737 13.2109 9.30057C13.8079 9.54377 14.3189 9.95932 14.6786 10.4942C15.0384 11.0291 15.2306 11.659 15.2308 12.3036C15.236 12.7249 15.1581 13.143 15.0015 13.5341C14.8449 13.9252 14.6128 14.2816 14.3183 14.5829C14.0238 14.8842 13.6728 15.1244 13.2854 15.2899C12.8979 15.4553 12.4817 15.5428 12.0604 15.5472ZM15.5835 9.06124C15.5044 9.06125 15.426 9.04547 15.353 9.01481C15.28 8.98415 15.2138 8.93923 15.1584 8.88269C15.103 8.82614 15.0594 8.7591 15.0302 8.6855C15.001 8.6119 14.9868 8.53321 14.9884 8.45404C14.9884 8.29301 15.0523 8.13856 15.1662 8.02469C15.2801 7.91082 15.4345 7.84685 15.5955 7.84685C15.7566 7.84685 15.911 7.91082 16.0249 8.02469C16.1388 8.13856 16.2027 8.29301 16.2027 8.45404C16.2051 8.53977 16.189 8.62499 16.1553 8.70389C16.1217 8.78278 16.0715 8.85348 16.008 8.91114C15.9445 8.9688 15.8693 9.01207 15.7876 9.03797C15.7058 9.06388 15.6195 9.07182 15.5343 9.06124H15.5835Z" fill="currentColor"/>
<path d="M12.06 0.000150207C8.87744 -0.0157626 5.81891 1.23324 3.55725 3.4724C1.29559 5.71156 0.016063 8.75744 0.000150207 11.94C-0.0157626 15.1226 1.23324 18.1811 3.4724 20.4428C5.71156 22.7044 8.75744 23.9839 11.94 23.9999C13.5158 24.0077 15.0778 23.7051 16.5367 23.1094C17.9956 22.5136 19.3229 21.6363 20.4428 20.5276C21.5626 19.4189 22.4531 18.1005 23.0635 16.6476C23.6738 15.1947 23.992 13.6358 23.9999 12.06C24.0077 10.4842 23.7051 8.92219 23.1094 7.46329C22.5136 6.00438 21.6363 4.67711 20.5276 3.55725C19.4189 2.43739 18.1005 1.54687 16.6476 0.936545C15.1947 0.326217 13.6358 0.00802942 12.06 0.000150207ZM19.3475 15.2424C19.3509 15.7807 19.2473 16.3144 19.0429 16.8124C18.8384 17.3104 18.5372 17.7629 18.1565 18.1437C17.7759 18.5244 17.3235 18.8258 16.8255 19.0304C16.3275 19.235 15.7939 19.3387 15.2556 19.3355H8.86684C8.32849 19.3389 7.79483 19.2353 7.29679 19.0309C6.79875 18.8264 6.34625 18.5252 5.96552 18.1445C5.58478 17.7639 5.28338 17.3115 5.0788 16.8135C4.87421 16.3155 4.7705 15.7819 4.77369 15.2436V8.85364C4.77035 8.31529 4.8739 7.78162 5.07834 7.28359C5.28278 6.78555 5.58404 6.33305 5.96467 5.95232C6.34529 5.57158 6.7977 5.27018 7.29568 5.0656C7.79365 4.86101 8.32729 4.7573 8.86564 4.76049H15.2556C15.7938 4.75731 16.3273 4.86097 16.8252 5.06549C17.3231 5.27 17.7755 5.57129 18.1561 5.95189C18.5367 6.3325 18.838 6.78486 19.0425 7.28276C19.247 7.78065 19.3507 8.31419 19.3475 8.85244V15.2424Z" fill="currentColor"/>
</svg>
