<svg width="24" height="24" viewBox="0 0 24 24" fill="none" xmlns="http://www.w3.org/2000/svg">
<path d="M13.6099 12.243C13.6038 12.5598 13.5039 12.8676 13.3227 13.1275C13.1415 13.3875 12.8872 13.5877 12.592 13.7029C12.2969 13.8182 11.9742 13.8432 11.6648 13.7748C11.3554 13.7064 11.0733 13.5477 10.8542 13.3188C10.6352 13.0899 10.489 12.8011 10.4342 12.489C10.3795 12.1769 10.4186 11.8556 10.5467 11.5658C10.6747 11.276 10.886 11.0307 11.1536 10.8611C11.4212 10.6915 11.7331 10.6051 12.0499 10.613C12.4708 10.6286 12.8691 10.8075 13.1603 11.1118C13.4515 11.4161 13.6128 11.8218 13.6099 12.243Z" fill="currentColor"/>
<path d="M14.763 7.23297H9.33797C8.80117 7.23297 8.28635 7.44621 7.90678 7.82579C7.52721 8.20536 7.31396 8.72017 7.31396 9.25697V14.804C7.31396 15.0698 7.36632 15.333 7.46803 15.5785C7.56975 15.8241 7.71883 16.0472 7.90678 16.2352C8.09473 16.4231 8.31785 16.5722 8.56341 16.6739C8.80898 16.7756 9.07217 16.828 9.33797 16.828H14.763C15.0288 16.828 15.292 16.7756 15.5375 16.6739C15.7831 16.5722 16.0062 16.4231 16.1941 16.2352C16.3821 16.0472 16.5312 15.8241 16.6329 15.5785C16.7346 15.333 16.787 15.0698 16.787 14.804V9.26697C16.788 9.00041 16.7365 8.73626 16.6352 8.48966C16.534 8.24306 16.3851 8.01886 16.1971 7.82991C16.0091 7.64095 15.7856 7.49096 15.5395 7.38853C15.2934 7.28609 15.0295 7.23323 14.763 7.23297ZM12.05 14.956C11.5129 14.9681 10.9845 14.8199 10.532 14.5304C10.0795 14.2408 9.72362 13.823 9.50965 13.3303C9.29568 12.8376 9.23338 12.2923 9.33068 11.764C9.42799 11.2357 9.68049 10.7484 10.056 10.3643C10.4314 9.98014 10.9129 9.71658 11.4388 9.60724C11.9647 9.49791 12.5113 9.54775 13.0088 9.75042C13.5062 9.95309 13.9321 10.2994 14.2318 10.7451C14.5316 11.1909 14.6918 11.7158 14.692 12.253C14.6961 12.604 14.631 12.9523 14.5004 13.2781C14.3698 13.6039 14.1763 13.9008 13.931 14.1518C13.6856 14.4029 13.3932 14.6031 13.0705 14.741C12.7477 14.879 12.4009 14.9521 12.05 14.956ZM14.986 9.55097C14.92 9.55098 14.8547 9.53783 14.7938 9.51228C14.733 9.48673 14.6778 9.4493 14.6317 9.40218C14.5855 9.35506 14.5491 9.29919 14.5248 9.23785C14.5005 9.17652 14.4886 9.11094 14.49 9.04497C14.49 8.91077 14.5433 8.78207 14.6382 8.68718C14.7331 8.59228 14.8618 8.53897 14.996 8.53897C15.1302 8.53897 15.2589 8.59228 15.3538 8.68718C15.4487 8.78207 15.502 8.91077 15.502 9.04497C15.504 9.11641 15.4905 9.18743 15.4625 9.25318C15.4345 9.31892 15.3926 9.37784 15.3397 9.42589C15.2868 9.47394 15.2241 9.51 15.156 9.53159C15.0879 9.55318 15.0159 9.55979 14.945 9.55097H14.986Z" fill="currentColor"/>
<path d="M12.0501 2C9.39796 1.98674 6.84915 3.02759 4.96441 4.89358C3.07967 6.75957 2.01339 9.29784 2.00013 11.95C1.98686 14.6022 3.02771 17.151 4.8937 19.0357C6.75969 20.9205 9.29796 21.9867 11.9501 22C13.2633 22.0066 14.565 21.7544 15.7808 21.2579C16.9965 20.7615 18.1026 20.0304 19.0358 19.1064C19.9691 18.1825 20.7112 17.0838 21.2198 15.873C21.7284 14.6623 21.9936 13.3632 22.0001 12.05C22.0067 10.7368 21.7545 9.43513 21.2581 8.21936C20.7616 7.00359 20.0305 5.89752 19.1065 4.96429C18.1826 4.03106 17.0839 3.28896 15.8732 2.78034C14.6624 2.27173 13.3633 2.00657 12.0501 2ZM18.1231 14.702C18.1259 15.1506 18.0396 15.5954 17.8693 16.0104C17.6989 16.4254 17.4478 16.8025 17.1306 17.1198C16.8134 17.4371 16.4364 17.6883 16.0214 17.8587C15.6065 18.0292 15.1618 18.1157 14.7131 18.113H9.38913C8.94057 18.1155 8.49596 18.029 8.08105 17.8586C7.66614 17.6881 7.28915 17.4371 6.97192 17.1199C6.65469 16.8028 6.40351 16.4259 6.23293 16.011C6.06234 15.5961 5.97574 15.1516 5.97813 14.703V9.378C5.97534 8.92937 6.06163 8.48465 6.232 8.06961C6.40237 7.65458 6.65343 7.27749 6.97062 6.9602C7.28781 6.64292 7.66482 6.39175 8.07981 6.22126C8.49479 6.05077 8.93949 5.96435 9.38812 5.967H14.7131C15.1617 5.96435 15.6063 6.05074 16.0212 6.22117C16.4361 6.3916 16.8131 6.64267 17.1303 6.95985C17.4475 7.27703 17.6985 7.654 17.869 8.06892C18.0394 8.48384 18.1258 8.92845 18.1231 9.377V14.702Z" fill="currentColor"/>
</svg>
