<svg width="24" height="24" viewBox="0 0 24 24" fill="none" xmlns="http://www.w3.org/2000/svg">
<path d="M12.3999 2C6.87699 2 2.3999 6.47708 2.3999 12C2.3999 17.5229 6.87699 22 12.3999 22C17.9228 22 22.3999 17.5229 22.3999 12C22.3999 6.47708 17.9228 2 12.3999 2ZM9.95199 16.1448H7.92699V9.62812H9.95199V16.1448ZM8.92699 8.82812C8.2874 8.82812 7.87386 8.375 7.87386 7.81458C7.87386 7.24271 8.2999 6.80312 8.95303 6.80312C9.60615 6.80312 10.0062 7.24271 10.0187 7.81458C10.0187 8.375 9.60615 8.82812 8.92699 8.82812ZM17.3478 16.1448H15.3228V12.5333C15.3228 11.6927 15.0291 11.1219 14.2968 11.1219C13.7374 11.1219 13.4051 11.5083 13.2582 11.8802C13.2041 12.0125 13.1905 12.2 13.1905 12.3865V16.1437H11.1645V11.7063C11.1645 10.8927 11.1384 10.2125 11.1114 9.62708H12.8707L12.9634 10.5323H13.0041C13.2707 10.1073 13.9239 9.48021 15.0166 9.48021C16.3489 9.48021 17.3478 10.3729 17.3478 12.2917V16.1448Z" fill="currentColor"/>
</svg>
