<svg width="24" height="24" viewBox="0 0 24 24" fill="none" xmlns="http://www.w3.org/2000/svg">
<path fill-rule="evenodd" clip-rule="evenodd" d="M12 22C17.5228 22 22 17.5228 22 12C22 6.47715 17.5228 2 12 2C6.47715 2 2 6.47715 2 12C2 17.5228 6.47715 22 12 22ZM14.2386 6.60419C14.9407 6.89563 15.5777 7.32395 16.1125 7.86416C17.2033 8.95499 17.8041 10.4075 17.8041 11.9533C17.8041 15.1383 15.2083 17.7342 12.0233 17.7342C11.055 17.7342 10.1041 17.4892 9.2583 17.0283L6.1958 17.8333L7.01247 14.835C6.5108 13.96 6.24247 12.9683 6.24247 11.9475C6.24247 8.76249 8.8383 6.16666 12.0233 6.16666C12.7835 6.16401 13.5365 6.31275 14.2386 6.60419ZM9.5733 16.0833C10.3141 16.5208 11.16 16.7542 12.0233 16.7542C14.6716 16.7542 16.83 14.6017 16.8183 11.9533C16.8207 11.3216 16.6976 10.6958 16.4563 10.112C16.215 9.52821 15.8602 8.99814 15.4125 8.55249C14.5083 7.64249 13.3008 7.14083 12.0175 7.14083C9.36913 7.14083 7.2108 9.29916 7.2108 11.9475C7.21147 12.8512 7.46615 13.7366 7.9458 14.5025L8.06247 14.6833L7.5783 16.4567L9.3983 15.9783L9.5733 16.0833ZM14.4679 13.0675C14.5546 13.1097 14.6243 13.1437 14.66 13.1608C14.6888 13.1747 14.7154 13.1869 14.7397 13.1982C14.8386 13.2437 14.9014 13.2727 14.9341 13.3242C14.975 13.3883 14.975 13.6742 14.8525 14.0125C14.7358 14.3508 14.1583 14.66 13.8783 14.7008C13.6275 14.7358 13.3125 14.7533 12.9683 14.6425C12.7583 14.5783 12.49 14.4908 12.1458 14.3392C10.7627 13.7424 9.83286 12.3833 9.69261 12.1783C9.68616 12.1688 9.68138 12.1619 9.6783 12.1575L9.67717 12.156C9.60288 12.057 9.08913 11.3721 9.08913 10.6642C9.08913 10.0076 9.40693 9.65882 9.5569 9.49425C9.56948 9.48045 9.58087 9.46794 9.5908 9.45666C9.72497 9.31083 9.87663 9.27583 9.9758 9.27583H10.2558C10.2659 9.2765 10.2765 9.27663 10.2875 9.27676C10.3716 9.27778 10.4793 9.27908 10.5825 9.52666C10.6991 9.81833 10.9908 10.53 11.0258 10.6C11.0608 10.67 11.0841 10.7517 11.0375 10.8508C11.0335 10.8588 11.0296 10.8665 11.0259 10.8741C10.9855 10.9552 10.9557 11.0153 10.8916 11.09C10.8693 11.1161 10.8457 11.1445 10.822 11.1733C10.7713 11.2345 10.7195 11.2971 10.6758 11.3408C10.6 11.4167 10.53 11.4925 10.6116 11.6383C10.6991 11.7842 10.985 12.2567 11.4166 12.6417C11.8855 13.0606 12.2946 13.2365 12.4945 13.3225C12.5284 13.337 12.5563 13.349 12.5775 13.3592C12.7233 13.435 12.8108 13.4233 12.8925 13.3242C12.9741 13.2308 13.2483 12.9042 13.3475 12.7583C13.4466 12.6183 13.54 12.6417 13.6741 12.6883C13.771 12.728 14.2005 12.9372 14.4679 13.0675Z" fill="currentColor"/>
</svg>
